<?xml version="1.0" encoding="utf-8"?>
<!-- Generator: Adobe Illustrator 26.0.3, SVG Export Plug-In . SVG Version: 6.00 Build 0)  -->
<svg version="1.1" xmlns="http://www.w3.org/2000/svg" xmlns:xlink="http://www.w3.org/1999/xlink" x="0px" y="0px"
	 viewBox="0 0 566.93 566.93" style="enable-background:new 0 0 566.93 566.93;" xml:space="preserve">
<style type="text/css">

</style>
<g id="Layer_1">
</g>
<g id="Layer_2">
	<g>
		<path class="st0" d="M366.49,272.99c4.54,1.58,9.69-0.93,12.64-4.72c2.96-3.79,4.21-8.59,5.39-13.25
			c4.74-18.66,9.48-37.31,14.22-55.97c3.12-12.3,6.14-25.85,0.5-37.21c-1.78-3.6-5.15-7.12-9.13-6.61c-2.34,0.3-4.25,1.93-5.98,3.53
			c-13.36,12.38-24.39,27.59-30.19,44.85s-6.1,36.65,0.93,53.45c1.16,2.78,3.63,5.98,6.46,4.96c4.03-13.51,5.36-27.82,3.89-41.84
			c-0.22-2.1-0.81-4.58-2.8-5.28c-3.04-1.06-5.22,2.99-5.77,6.17c-2.02,11.71-1.76,23.82,0.75,35.44
			c8.53-6.79,9.29-19.41,7.95-30.23c-1.34-10.82-4-22.21,0.14-32.3c2.06-5.03,5.66-9.25,8.48-13.9c2.16-3.56,3.91-7.44,6.82-10.42
			c2.91-2.98,7.42-4.9,11.28-3.33c5.2,2.12,6.32,8.85,6.68,14.46c0.48,7.67,0.73,16.12-4.05,22.14c0.83-9.27,1.66-18.53,2.49-27.8
			c0.27-2.97,0.16-6.66-2.48-8.03c0.33,11.18,0.66,22.36,0.98,33.54c-2.68-10.39,1.91-22.92-4.83-31.27
			c-0.65-0.8-1.43-1.56-2.42-1.83c-2.18-0.6-4.34,1.52-4.68,3.76c-0.34,2.24,0.57,4.45,1.43,6.54c4.16,10.13,7.53,20.77,7.87,31.71
			c0.34,10.95-2.61,22.31-9.83,30.54c-0.63-5.71,3.14-10.83,5.5-16.07c6.48-14.42,2.36-31.16-1.85-46.4
			c-0.9-3.27-3.51-7.41-6.57-5.95c0.47,6.28,4.28,11.72,6.86,17.47c7.11,15.85,4.36,35.65-6.8,48.96c0.12-2.48-1.87-4.88-4.33-5.23
			s-5.03,1.41-5.61,3.83c3.31-0.03,6.62-0.06,9.93-0.1c0.7-0.01,1.45,0,2.02,0.4c0.57,0.4,0.83,1.09,1.06,1.75
			c1.16,3.3,2.33,6.61,3.49,9.91c-2.26-3.92-4.08-8.1-5.4-12.43c-3.39,5.06-6.79,10.13-10.18,15.19c-1.59,2.38-3.23,4.88-3.52,7.73
			s1.28,6.1,4.09,6.68c2.81,0.58,5.37-1.61,7.41-3.62c2.17,2.12,1.39,6.11-1,7.97s-5.77,1.95-8.7,1.18
			c-0.99-0.26-1.99-0.63-2.68-1.39c-1.09-1.2-1.13-3.12-2.29-4.25c-1.7-1.66-4.54-0.69-6.86-1.21c-4.4-0.98-5.58-6.6-5.85-11.11
			c-0.55-9.07-1.1-18.13-1.64-27.2c-0.54-8.9-1.07-17.94,0.84-26.65c1.4-6.38,3.99-13.19,7.63-18.65c3.1-4.66,7.45-7.8,8.7-13.69
			c1.01-4.71,0.48-9.61-0.22-14.38c-5.12-35.1-19.23-68.85-40.62-97.15c-5.9-7.81-13.98-13.77-22.49-18.61
			c-21.05-11.98-46.05-14.71-70.26-15.2c-11.64-0.23-23.52,0.03-34.56,3.75c-4.83,1.63-9.44,3.9-14.34,5.33
			c-5.9,1.72-12.09,2.2-18.03,3.77c-17.22,4.57-30.58,17.8-43.06,30.51c-13.59,13.84-27.69,29.54-32.49,48.33
			c-3.46,13.53-3.24,27.7-2.99,41.67c0.26,14.76,0.55,29.75,4.89,43.86c6.39,20.78,3.81,43.31,7.83,64.68
			c-7.99-17.01-14.03-34.93-17.97-53.31c-1.22-5.69-1.93-12.47,2.23-16.53c0.97-0.95,2.23-1.69,3.58-1.71
			c3.58-0.04,5.21,4.41,5.68,7.96c1.3,9.88,1.5,19.9,0.59,29.82c-1.78-6.39-3.57-12.79-5.35-19.18c-1.02-3.65-3.97-8.26-7.37-6.59
			c2.34-2.14,6.05-2.61,8.85-1.12c2.8,1.48,4.5,4.82,4.04,7.95c-1.89-2-3.95-4.1-6.65-4.65c-2.69-0.55-6.03,1.33-5.85,4.07
			c1.25-2.57,3.58-4.58,6.3-5.45c2.44,8.27,4.88,16.54,7.31,24.81c-0.73-7.57-1.45-15.14-2.18-22.71
			c9.83,39.96,1.44,84.18,19.2,121.29c4.51,9.43,9.71,16.1,12.75,26.11c3.04,10.01,6.85,20.52,15.18,26.84
			c14.86,11.26,22.86,29.52,33.92,44.53c3.8,5.16,7.67,10.38,12.76,14.28c12.57,9.63,30.61,9.29,45.25,3.23
			c14.63-6.06,26.64-16.96,38.32-27.66c8.97-8.21,16.34-18.5,22.05-29.24c-6.19,0.37-9.96,6.7-13.28,11.94
			c-11.94,18.86-31.01,31.86-49.53,44.31c5.97,2.95,13.03-0.06,18.98-3.06c18.48-9.32,37.7-19.47,49.22-36.66
			c3.63-5.42,6.39-11.41,10.22-16.69c3.15-4.34,6.97-8.14,10.39-12.26c16.23-19.6,22.58-46.99,16.64-71.73
			c-2.67-11.11,2.15-23.1,6.26-33.76c2.3-5.97,5.28-11.77,6.27-18.09c0.57-3.64,0.46-7.35,0.34-11.04
			c-0.27-8.78-0.54-17.56-0.82-26.34c-5.78,3.89-8.09,11.16-9.75,17.92c-5.7,23.14-8.44,47.01-8.13,70.83
			c0.17,13.03,1.25,26.11-0.04,39.08c-1.29,12.97-5.18,26.11-13.72,35.95c7.9-8.65,13.52-19.38,16.06-30.82
			c6.57-29.6-7.29-62.12,4.3-90.14c4.44-10.73,12.57-20.88,11.3-32.42c-9.36,13.38-10.35,30.69-11.02,47
			c-0.5,12.19-1,24.39-1.5,36.58c-0.78,19.08-1.7,38.74-9.75,56.07c-6.87,14.79-18.81,27.59-21.43,43.68
			c11.26-11.57,23.56-22.13,34.23-34.25c10.67-12.12,19.79-26.13,23.19-41.92c1.1-5.14,1.59-10.4,1.82-15.65
			c0.93-20.52-1.86-41.21-8.21-60.76c-1.12-3.46-2.36-6.9-3-10.49c-1.24-6.93-0.21-14.04,0.82-21c3.28-22.1,14.69-65.19,9.59-67.79
			c-4.97-2.74-8.1,9.6-9.27,15.42c-1.34,6.71-0.68,14.95-6.27,18.88c-1.6-17.04-3.19-34.08-4.79-51.12
			c-1.31-13.98-3-28.92-12.08-39.64c-5.84-6.89-14.08-11.2-22.1-15.34c-4.33-9.34-9.41-20.15-17.16-26.92
			c-11.41-9.97-27.6-11.96-42.74-12.52c-12.16-0.45-24.35-0.27-36.5,0.55c-11.02,0.74-21.81,4.75-32.64,6.94
			c-10.61,2.15-21.29,4.31-31.34,8.33c-8.47,3.38-16.36,8.03-24.22,12.65c-3.88,2.28-7.8,4.6-10.93,7.83
			c-5.93,6.12-8.36,14.81-13.35,21.72c-1.07-6.07,3.72-11.46,8.21-15.68c8.18-7.68,16.64-15.06,25.36-22.12
			c6.64-5.38,13.48-10.6,21.12-14.44c12.33-6.2,26.19-8.52,39.81-10.76c17.38-2.86,34.88-5.74,52.5-5.46
			c4.17,0.07,8.7,0.45,11.8,3.25c-5.62,1.57-11.53,1.62-17.36,1.63c-18.54,0.01-37.14-0.37-55.53,1.99
			c-18.38,2.36-36.72,7.63-52.06,18.03c-0.59,2.57,3.07,3.86,5.7,3.65c8.97-0.71,17.14-5.12,25.4-8.69
			c40.5-17.49,86.76-15.39,130.23-7.91c-10.08-11.27-24.92-17.47-39.89-19.58c-14.97-2.11-30.22-0.48-45.16,1.83
			c-9.64,1.49-19.24,3.26-28.78,5.3c-10.52,2.25-21.67,5.25-28.78,13.33c5.48,3.44,12.56,3.3,18.78,1.54
			c6.23-1.76,11.93-4.97,17.92-7.42c10.1-4.14,20.95-6.13,31.76-7.65c10.58-1.49,21.3-2.55,31.94-1.6
			c30.95,2.77,59.52,24.01,71.1,52.85c-1.71,1.35-4.31,0.99-6.1-0.25c-1.79-1.25-2.95-3.18-4.03-5.08
			c-9.14-16-17.66-34.25-34.35-42.06c1.6-2.6,5.21-3.33,8.14-2.5c2.93,0.83,5.34,2.88,7.64,4.89c12.25,10.74,24.02,22.02,35.26,33.8
			c7.04,7.38,11.27,17.71,16.11,26.68c3.12,5.78,6,11.75,7.69,18.1c4.64,17.37,0.1,35.71-4.44,53.11c0.1-15.81,0.2-31.62,0.3-47.43
			c0.03-5,0.05-10.08-1.31-14.89c-1.51-5.31-4.63-10-7.83-14.5c-8.13-11.4-17.78-22.68-30.97-27.38c2.75,11.6,16.7,16,24.96,24.6
			c6.28,6.54,9.17,15.53,11.86,24.19c3.67,11.81,5.68,28.43,11.01,35.42c1.58,1.89,5.36,4.44,7.35,2.15
			c4.59-4-13.95-47.52-25.64-69.46c-4.17-7.82-8.43-15.77-14.69-22.04c-1.49-1.49-3.11-2.92-4.08-4.79
			c-0.89-1.72-1.16-3.71-2.11-5.4c-1.31-2.34-3.74-3.82-6.17-4.97c-4.43-2.1-9.21-3.47-14.08-4.04c-4.19,7.51-2.06,17.27,2.94,24.27
			s12.38,11.85,19.55,16.6c7.17,4.75,14.5,9.73,19.28,16.88c6.98,10.44,7.48,23.76,7.74,36.31c0.39,18.42,0.78,36.83,1.17,55.25
			c3.74-12.07,4.91-24.76,6.06-37.34c0.38-4.21,0.77-8.46,0.34-12.67c-0.41-4.08-1.58-8.03-2.73-11.96
			c-4.59-15.56-9.22-31.25-16.81-45.59c-5.63-10.64-12.86-20.44-21.37-28.96c-4.03-4.04-8.44-7.85-13.68-10.12
			c-5.48-2.37-11.56-2.91-17.52-3.35c-17.08-1.26-34.2-1.97-51.33-2.12c-13.84-0.12-27.79,0.14-41.31,3.08
			c-11.43,2.49-22.36,6.85-32.98,11.75c-9.93,4.58-19.78,9.75-27.77,17.23s-14.01,17.59-14.58,28.51
			c-0.78,15.03,1.06,33.15-4.1,47.29c-2.29,6.27-5.3,12.27-7.16,18.68c-3.22,11.07-2.87,22.84-2.15,34.34
			c0.31,4.91,0.62,10.12-1.68,14.47c-12.63-37.12-8.13-79.69,11.99-113.34c1.08-1.8,2.23-3.69,2.3-5.79
			c0.06-2.1-1.45-4.41-3.55-4.38c-0.69,0.01-1.35,0.27-1.98,0.55c-8.89,4.05-13.22,14.16-15.47,23.66
			c-1.7,7.2-2.68,14.69-1.47,21.99c0.65,3.93,3.35,8.66,7.24,7.79c2.21-0.49,3.58-2.66,4.6-4.68c5.31-10.53,7.81-22.46,7.16-34.23
			c-4.15,11.17-5.4,23.17-6.62,35.03c-2.12,20.61-4.24,41.22-6.35,61.84c-0.49,4.8-0.7,10.38,2.9,13.59
			c2.55,0.76,4.54-2.06,6.47-3.9c3.31-3.15,8.21-3.85,12.77-4.05c12.23-0.51,24.57,1.54,35.97,5.99c1.89,0.74,3.83,1.59,5.14,3.14
			s1.81,3.98,0.6,5.61c-5.1,0-9.5-3.31-14.07-5.59c-15.22-7.57-35.54-2.69-45.67,10.96c-2.13-4.82-3.14-10.94,0.22-15
			c2.92-3.52,7.98-4.17,12.54-4.56c9.73-0.84,19.45-1.67,29.18-2.51c5.2-0.45,10.94-0.75,15.09,2.43c4.15,3.17,4.32,11.2-0.7,12.61
			c-3.95,1.1-7.49-2.39-10.84-4.76c-5.98-4.23-13.62-5.28-20.95-5.54c-4.75-0.17-9.64-0.02-14.01,1.82
			c-4.38,1.84-8.17,5.71-8.69,10.43c12.9-2,25.28-8.32,38.29-7.24c12.42,1.03,23.56,8.73,35.98,9.65
			c15.18,1.12,29.03-7.94,41.54-16.6c10.63-7.36,25.48-8.13,38.35-9.33c12.87-1.2,26.43,0.92,37.12,8.19
			c2.35,1.6,4.79,4.25,3.79,6.91c-3.34,2.03-7.75,1.11-11.15-0.81s-6.24-4.73-9.62-6.7c-6.46-3.78-14.29-4.2-21.77-4.36
			c-8.99-0.19-18.31-0.07-26.48,3.68c-3.12,1.43-6.43,4.78-4.8,7.8c21.73-4.12,44.41-8.21,65.68-2.14c3.62,1.03,8,2.2,10.77-0.35
			c-1.8-4.76-5.93-8.25-10.26-10.94c-21-13.05-50.48-10.51-68.93,5.96c12.74,2.96,25.99,0.02,38.99-1.43
			c13-1.46,27.36-1.02,37.48,7.28c-7.09-8.4-17.7-13.2-28.49-15.3c-10.79-2.1-21.88-1.73-32.87-1.36c8.73-1.68,17.47-3.36,26.2-5.04
			c5.21-1,10.53-2.04,15.12-4.7c4.59-2.65,8.41-7.26,8.66-12.56c0.67-14.19-22.14-20.72-21.75-34.92c0.14-5.16,3.49-9.59,5.79-14.21
			c2.31-4.62,4.68-10.57-0.32-14.46c-6.66-5.33-0.59-15.63-4-22.35c-2.55-5.02-6.23-10.1-5.39-15.66
			c1.24-8.21,12.04-11.73,19.85-8.93c7.82,2.8,13.38,9.56,19.22,15.46c11.45,11.57,26.18,22.33,28.53,38.43
			c3.09,3.15,9.01-0.17,9.7-4.53c0.69-4.36-1.92-8.51-4.6-12.02c-9.23-12.08-21.01-22.53-35.09-28.26c-4.57-1.86-9.9-3.18-14.32-1
			c-5.35,2.64-7.28,9.37-7.28,15.34c-0.01,10.83,4.58,21.58,12.4,29.07c5.84,5.59,13.2,9.28,20.22,13.29s14.02,8.63,18.44,15.41
			c4.41,6.78,5.64,16.22,0.97,22.82c-3.49,4.93-9.85,7.49-15.85,6.86s-11.52-4.24-14.95-9.21c-2.51-3.64-3.95-7.88-5.8-11.9
			c-4.68-10.2-12.23-19.71-12.47-30.93c-0.26-11.89,16.45-27.28,16.45-27.28c4.04-4.49-5.57-11.47-9.23-8.46
			c-1.5,1.23-1.92,3.44-1.19,5.24c0.72,1.8,2.23,3.15,3.71,4.4c8.26,6.96,17.46,12.74,25.56,19.89c8.1,7.14,15.23,16.02,17.61,26.55
			c1.24,5.46,1.14,11.15,0.43,16.71c-0.9,7.09-2.79,14.05-5.6,20.62c-1.02,2.4-2.25,4.85-4.38,6.35c-4.14,2.92-9.99,1.14-14.14-1.76
			c-4.09-2.86-7.48-6.72-9.78-11.14c-3.9-7.5-4.73-16.52-9.77-23.31c-6.77,3.54-8.55,13.13-5.35,20.07
			c3.21,6.94,10.06,11.5,17.12,14.43c3.19,1.32,6.58,2.44,9.16,4.74s4.13,6.22,2.54,9.28c-2.07,3.98-8.01,4.08-11.86,1.77
			c-3.84-2.31-6.44-6.19-9.82-9.14c-3.38-2.94-8.49-4.9-12.28-2.51c9.46,3.48,18.76,7.38,27.88,11.68c3.58,1.69,7.24,3.53,9.82,6.53
			c2.58,3,3.85,7.49,2.04,11.01c2.27-0.02,4.37-1.19,6.24-2.49c10.29-7.13,16.85-18.82,19.55-31.05
			c2.71-12.22,1.85-24.99-0.41-37.31c-1.17-6.36-2.74-12.74-5.86-18.4c-3.13-5.66-7.69-10.39-12.3-14.92
			c-7.45-7.3-15.2-14.3-23.22-20.97c-6.85-5.68-14.11-11.39-18.09-19.35c-2.21-4.42-4.06-10.07-8.87-11.21
			c-5.87-1.39-10.52,5.49-10.94,11.51c-0.54,7.61,2.43,15.03,5.93,21.81c7.56,14.63,17.93,27.79,30.38,38.57
			c4.68,4.05,9.83,8,12.27,13.68c3.19,7.41-6.28,21.74-1.15,23.67c10.46,2.69,19.05-24.63,18.44-39.8
			c-0.13-3.36-0.65-6.79-2.32-9.71c-1.77-3.1-4.68-5.36-7.51-7.53c-6.28-4.81-12.83-9.72-20.53-11.54s-16.91,0.27-21.1,6.99
			c-2.54,4.09-2.87,9.13-2.96,13.95c-0.14,7.71,0.17,15.62,3.1,22.74c7.01,17.05,26.82,25.28,36.55,40.95
			c1.37,2.2,2.81,4.76,5.33,5.35c3.35,0.79,6.23-2.33,8.23-5.13c5.99-8.4,11.62-17.04,16.9-25.9c0.52,11.44-2.46,23.01-8.42,32.78
			c4.18-8.2,8.48-17.03,7.32-26.16c-0.82-6.45-4.28-12.21-6.52-18.32c-2.59-7.03-3.55-14.54-4.5-21.97
			c3.82,15.45,4.49,31.48,5.15,47.38c0.25,6.15,0.5,12.4-1.1,18.35c-1.02,3.83-2.78,7.41-4.09,11.15c-1.93,5.53-2.87,11.4-5.2,16.78
			s-6.52,10.43-12.23,11.7c-2.7-19.85,12.31-53.35,4.41-59.49c-5.38-3.81-14.92,5.04-18.1,11.97c-0.65,1.43-1.15,3.02-0.81,4.55
			c0.42,1.92,2.02,3.31,3.46,4.64c10.74,9.93,17.21,24.34,17.47,38.96c-2.19,2.99-6.23,4.13-9.89,4.72
			c-3.66,0.59-7.42,0.04-10.97-1.03c-2.32-0.7-4.59-1.62-6.99-1.93c-2.4-0.31-5.03,0.07-6.83,1.69c0.65-2.36,2.77-4.08,5.07-4.89
			c2.3-0.82,4.79-0.87,7.24-0.92c2.06-0.04,4.57,0.17,5.49,2.02c0.66,1.32,0.23,3.1,1.22,4.2c0.24,0.27,0.57,0.53,0.54,0.89
			c-0.02,0.23-0.2,0.42-0.38,0.58c-3.01,2.64-8.24,2.1-10.63-1.11c-0.58-0.78-1.01-1.67-1.72-2.34c-0.71-0.66-1.84-1.03-2.65-0.5
			c-0.75,0.49-0.93,1.52-0.85,2.42c0.08,0.89,0.34,1.8,0.17,2.68c3.05-1.28,5.3-3.91,7.82-6.05c2.53-2.14,5.87-3.92,9.05-3
			c-0.32,3.57-3.16,6.77-6.67,7.52c-0.32,0.07-0.69,0.11-0.96-0.08c-0.33-0.23-0.37-0.69-0.45-1.09c-0.33-1.7-1.86-3.03-3.56-3.32
			c-1.7-0.29-3.49,0.37-4.75,1.55c-1.11,1.04-2.12,2.58-3.65,2.5c-8.79-0.47-17.48-2.12-26.19-3.34c-3.14-0.44-6.29-0.88-9.46-0.76
			c-9.54,0.36-18.18,5.73-25.43,11.94c6.16,1.6,12.48,2.56,18.84,2.86c3.29,0.16,6.6,0.14,9.87-0.18c4.09-0.4,8.11-1.26,12.12-2.12
			c7.26-1.56,15.12-3.48,19.7-9.32c1.06-1.35,1.91-3.18,1.18-4.72c-0.35-0.73-1-1.27-1.65-1.75c-7.43-5.52-16.86-7.62-26.08-8.51
			c-3.51-0.34-7.06-0.52-10.56-0.08c-9.68,1.24-18.06,7.11-25.99,12.8c-1.49,1.07-3,2.16-4.2,3.56c3.48,1.67,7.36-1.03,10.46-3.33
			c11.8-8.71,26.53-13.38,41.19-13.07c3.07,0.07,6.21,0.36,9.02,1.6c2.69,1.18,4.97,3.18,6.78,5.5c0.76,0.97,1.46,2.03,1.68,3.24
			c0.67,3.68-3.1,6.53-6.47,8.15c-16.97,8.13-36.86,9.99-55.03,5.13c10.86-7.73,24.01-12.2,37.33-12.68
			c2.24-0.08,4.55-0.04,6.6,0.86c2.05,0.9,3.79,2.84,3.81,5.08c0.04,3.86-4.47,5.95-8.26,6.71c-3.75,0.75-7.9,1.11-11.18-0.86
			c-1.18-0.71-2.25-1.79-2.47-3.15c-0.42-2.57,2.21-4.6,4.69-5.39c3.22-1.03,6.75-1.08,10-0.14c2.54,0.73,5.28,2.84,4.7,5.41
			c-0.6,2.66-4.06,3.29-6.78,3.27c-1.7-0.02-3.51-0.1-4.92-1.05c-2.37-1.59-2.6-5.48-0.53-7.46s5.78-1.69,7.65,0.48
			c1.87,2.16,1.71,5.73-0.22,7.84c-1.93,2.11-5.31,2.64-7.88,1.38c-1.87-0.91-3.32-2.74-3.54-4.81c-0.22-2.07,0.94-4.27,2.87-5.05
			c1.92-0.78,4.44,0.13,5.23,2.05c0.79,1.92-0.56,4.47-2.62,4.7c-2.06,0.24-3.98-2.2-3.1-4.08c0.46-0.98,1.45-1.61,2.46-1.98
			c1.96-0.73,4.35-0.63,5.93,0.74c1.58,1.37,1.89,4.15,0.31,5.51c-1.58,1.36-4.67,0.11-4.49-1.97c0.7-1.18,2.19-1.85,3.53-1.54
			c1.34,0.31,2.4,1.59,2.41,2.96c0.01,1.54-1.21,2.9-2.66,3.43c-2.37,0.86-5.4-0.49-6.05-2.93s1.63-5.25,4.12-4.86
			c0.61,0.1,1.2,0.37,1.59,0.84c0.98,1.18,0.25,3.1-1.05,3.9c-1.3,0.8-2.93,0.8-4.45,0.77c-0.7-2.76-0.86-6.6,1.84-7.52
			c2.24-0.76,4.6,1.88,4.04,4.17c-0.56,2.3-3.21,3.65-5.54,3.32c-1.26-0.18-2.58-0.88-2.94-2.11c-0.64-2.18,2.2-3.92,4.45-3.58
			c1.03,0.16,2.07,0.61,2.66,1.46s0.57,2.18-0.25,2.83c-0.37,0.3-0.84,0.42-1.3,0.55c-1.19,0.31-2.42,0.63-3.62,0.42
			c-1.21-0.21-2.39-1.1-2.53-2.31c-0.16-1.4,1.03-2.56,2.18-3.38c1.22-0.88,2.58-1.7,4.08-1.84c1.5-0.14,3.18,0.56,3.74,1.97
			c0.73,1.83-0.8,3.93-2.67,4.56c-1.87,0.62-3.91,0.2-5.83-0.23c-0.5-2.59,1.76-5.35,4.4-5.38c0.78-0.01,1.6,0.21,2.17,0.75
			c0.96,0.91,0.94,2.52,0.27,3.65c-0.68,1.13-1.86,1.86-3.07,2.4c-2.07,0.92-5,1.13-6.13-0.83c-0.78-1.35-0.21-3.18,0.97-4.22
			c1.17-1.03,2.79-1.4,4.35-1.51c1.9-0.13,4.21,0.36,4.87,2.15c0.47,1.28-0.17,2.78-1.23,3.63c-1.06,0.86-2.46,1.19-3.81,1.34
			c-1.43,0.16-2.97,0.11-4.18-0.67c-1.21-0.78-1.9-2.5-1.14-3.72c0.56-0.91,1.68-1.26,2.71-1.54c2.54-0.69,6.17-0.73,6.78,1.82
			c0.46,1.89-1.52,3.66-3.46,3.76c-1.94,0.1-3.75-0.91-5.43-1.9c-1.09-0.64-2.29-1.43-2.52-2.67c-0.39-2.09,2.13-3.48,4.23-3.78
			c2.58-0.37,5.39-0.1,7.48,1.46c2.09,1.56,3.13,4.67,1.8,6.91c-1.34,2.24-5.25,2.47-6.4,0.13c-0.96-1.96,0.47-4.45,2.5-5.25
			s4.34-0.29,6.33,0.6c0.68,0.31,1.38,0.68,1.78,1.32c0.64,1.02,0.28,2.44-0.57,3.29c-0.84,0.86-2.05,1.25-3.23,1.46
			c-2.14,0.37-4.36,0.23-6.44-0.41c-0.86-2.64,0.8-5.78,3.42-6.67c2.62-0.89,5.78,0.51,6.99,3c0.29,0.6,0.5,1.27,0.98,1.73
			c0.42,0.4,1.01,0.59,1.59,0.66c2.37,0.28,4.54-1.2,6.61-2.38c2.07-1.18,4.74-2.11,6.75-0.82c0.28,0.92-0.2,1.89-0.72,2.7
			c-3.23,4.95-8.88,7.9-14.65,9.13c-5.78,1.23-11.75,0.93-17.65,0.63c-0.54,1.07,0.42,2.41,1.59,2.72c1.16,0.3,2.38-0.1,3.51-0.5
			c5.01-1.76,10.01-3.52,15.02-5.27c2.77-0.97,5.56-1.95,8.11-3.4c4.25-2.41,8.69-6.24,13.34-4.76c1.58,1.61,0,4.25-1.59,5.85
			c-4.62,4.68-9.7,9.21-15.92,11.35c-3.34,1.15-6.89,1.56-10.4,1.96c-6.93,0.79-13.93,1.59-20.87,0.79
			c-6.93-0.79-13.89-3.33-18.75-8.33c-4.27-4.39-6.63-10.3-10.59-14.98c-1.56,1.23-1.42,3.79-0.23,5.39c1.19,1.6,3.08,2.47,4.9,3.28
			c0.85-3.17-0.86-6.84-3.84-8.22c-0.38,4.97,2.15,10.06,6.35,12.75c0.83-4.21-2.84-7.84-6.17-10.55
			c-0.26,4.76,2.36,9.33,5.96,12.46c3.6,3.13,8.09,5.02,12.57,6.65c13.28,4.82,28.5,7.59,41.21,1.42c7.4-3.6,13.38-9.99,21.23-12.46
			c2.89-0.91,6.82-0.8,8.05,1.97c2.68,1.25,5.57,4.93,5.81,7.88s-0.64,5.87-1.78,8.59c-0.66,1.58,0.24,3.43,1.06,4.93
			c1.07,1.94,2.85,3.44,3.79,5.45c1.17,2.51,0.85,5.5-0.17,8.07c-0.84,2.11-2.13,4.03-3.76,5.6c0.34,1.64,3.18,1.81,4.83,2.13
			c1.42-2.86,1.83-6.09,2.23-9.26c0.59-4.74,1.19-9.48,1.78-14.21c0.08-0.6,0.13-1.29-0.28-1.74c-0.33-0.36-0.85-0.46-1.32-0.57
			c-1.58-0.36-3.12-1.09-4.19-2.3c-1.07-1.21-1.61-2.96-1.15-4.51c1.03-3.45-0.09-7.28,1.16-10.65c1.52,1.23,3.04,2.45,4.55,3.68
			c0.23-4.76,0.45-9.51,0.68-14.27c0.12-2.56,0.26-5.2,1.4-7.5c2.14-4.33,7.96-6.38,12.34-4.35c0.62-7.35,3.56-14.48,8.29-20.13
			c-10.83,11.56-15.85,27.3-19.58,42.7c-0.83,3.43-1.62,6.91-1.49,10.43c0.13,3.58,1.2,7.04,1.96,10.54
			c1.21,5.6,1.63,11.38,1.23,17.1c-0.09,1.24-0.24,2.55-0.96,3.57c-0.55,0.77-1.38,1.29-2.21,1.73c-2.2,1.16-4.62,1.9-6.62,3.38
			s-3.53,3.99-2.86,6.38c-8.76,9.75-20.84,16.03-32.84,21.29c-1.18,0.52-2.46,1.13-2.98,2.31c-0.84,1.92,0.81,3.92,2.1,5.58
			c5.98,7.67,5.76,18.48,3.69,27.98c-0.33,1.52-0.74,3.1-1.8,4.24c-1.06,1.13-2.98,1.62-4.18,0.63c-1.09-0.9-1.14-2.54-1.07-3.95
			c0.31-5.84,1.13-11.81-0.34-17.47c-1.85-7.11-7.09-12.8-12.44-17.84c-2.92-2.75-5.94-5.41-8.41-8.56
			c-4.79-6.09-7.27-13.62-10.53-20.65s-7.78-14.04-14.85-17.23c-0.89-0.4-2.33-0.45-2.44,0.51c4.77,3.32,9.13,6.38,11.14,11.83
			c2.01,5.45,1.65,11.94-1.75,16.65s-10.05,7.11-15.4,4.85c1.85-1.25,4.14-1.59,6.25-2.3s4.29-2.06,4.8-4.23
			c-4.03-2.99-9.29-4.27-14.24-3.45c-4.9,0.81-9.27,3.52-13.36,6.33c-3.93,2.7-8.15,6.29-8.1,11.06c5.26,0.11,9.85-3.41,13.69-7
			c3.84-3.6,7.71-7.61,12.8-8.92c-3.5-1.3-7.52-0.37-10.72,1.55c-3.2,1.93-5.75,4.75-8.24,7.53c2.5,0.6,5.16-0.47,7.09-2.17
			c1.93-1.7,3.27-3.95,4.57-6.17c-6.82,0.25-13.36,4.42-16.46,10.5c1.89,1.01,4.31,0.23,5.95-1.15c1.64-1.38,2.77-3.26,4.18-4.88
			c2.95-3.39,7.21-5.6,11.67-6.06c-4.27,0.44-8.36,2.41-11.35,5.49c4.57,0.26,8.43-3.13,11.72-6.31c-6.51,1.67-12.62,4.86-17.7,9.24
			c4.87,1.09,9.31-2.83,12.77-6.43c-2.56-0.49-5.17,0.73-7.14,2.42c-1.97,1.7-3.48,3.86-5.25,5.77c-3.95,4.25-9.27,7.2-14.97,8.29
			c-0.6,0.11-1.21,0.21-1.82,0.11c-0.87-0.14-1.62-0.67-2.35-1.17c-7.27-5.05-15.24-9.07-23.61-11.92c-1.2,0.28-2.21,0.95-2.66,2.09
			c2.99,1.6,6.38,2.42,9.77,2.38c-1.7-2.24-4.23-3.83-6.99-4.39c0.46,1.21,1.67,2.09,2.96,2.15c-1.14-0.75-2.19-0.81-3.56-0.73
			c1.28,1.46,2.95,2.57,4.78,3.2c0.83-0.75,2.39,0.92,1.88,1.91c-0.51,0.99-1.8,1.26-2.92,1.26c-8.2,0.06-15.08-8.08-14.86-16.27
			c0.22-8.19,6.5-15.49,14.22-18.26c0.81,0.43,0.72,1.71,0.09,2.37c-0.63,0.66-1.57,0.9-2.43,1.22c-5.19,1.94-8.14,7.28-10.64,12.22
			c-1.28,2.53-2.6,5.21-2.41,8.04c0.33,4.87,4.9,8.28,9.3,10.38c1.98,0.95,4.12,1.79,6.3,1.58s4.38-1.8,4.57-3.99
			c0.04-0.43,0-0.87,0.12-1.28c0.3-1.01,1.49-1.53,2.54-1.41c1.05,0.11,1.97,0.7,2.85,1.28c3.61,2.37,7.18,4.87,11.15,6.56
			c3.97,1.69,8.46,2.54,12.64,1.45c4.31-1.12,8.02-4.36,9.72-8.47c2.64-6.4,12.02-8.44,18.92-8.9c2.15-0.14,4.5,0.21,6.04,1.72
			c1.55,1.5,1.8,4.4,0.07,5.69c6.79-5.54,8.84-16.1,4.62-23.78c-0.16-0.29-0.35-0.6-0.66-0.71c-0.76-0.27-1.29,0.76-1.4,1.56
			c-1.08,7.5,1.61,15.79-2.18,22.35c4.14-1.7,5.01-7.07,5.27-11.54c0.25-4.26,0.49-8.52,0.74-12.77c3.71,3.26,7.5,6.62,9.74,11.02
			c3.18,6.24,3.33,14.56,9.09,18.53c6.05,4.18,10.78,10.96,13.82,17.65c4.35,9.58,3.52,20.87,7.77,30.5
			c2.81,1.03,6.07-0.67,7.63-3.23c1.56-2.56,1.73-5.72,1.47-8.7c-0.26-2.98-0.92-5.94-0.88-8.93c0.08-5.46,2.54-10.69,5.96-14.95
			c3.42-4.26,7.78-7.66,12.2-10.88c4.21-3.07,8.75-6.31,10.59-11.19c1.42-3.77,1.56-8.82,5.26-10.41c-4.14,0.76-7.35,4.04-9.72,7.52
			c-2.37,3.48-4.22,7.35-7.15,10.37c-4.44,4.59-10.98,6.87-14.96,11.86c-4.46,5.61-4.76,13.45-3.84,20.56
			c0.92,7.11,2.85,14.21,2.08,21.34c0.44-10.42,0-20.89-1.31-31.24c-0.11-0.86-0.24-1.76-0.78-2.44c-0.48-0.6-1.21-0.93-1.77-1.46
			c-1.72-1.61-1.29-4.6,0.25-6.38c1.54-1.78,3.83-2.68,5.99-3.61c9.17-3.92,17.59-9.4,25.95-14.84c-2.92,3.07-5.85,6.15-8.77,9.22
			c-6.77,7.11-13.78,14.66-16.28,24.15c-2.56,9.73,0.02,20.04-0.76,30.07c-0.33,4.28-1.28,8.5-2.8,12.51
			c-0.73,1.91-2.49,4.15-4.33,3.27c0.2-2.49,1.93-4.54,3.36-6.59c2.91-4.18,4.78-8.99,6.62-13.74c1.2-3.09,2.4-6.21,2.96-9.47
			c0.62-3.61,0.43-7.29,0.46-10.95c0.07-9.98,1.97-20.51,8.52-28.03c-4.16,6.19-7.49,12.95-9.86,20.02
			c-3.45,10.27-4.86,21.1-6.25,31.85c-1.04,7.99-2.07,15.97-3.11,23.96c-0.93,7.2,1.81,11.64-3.05,17.02
			c-2.18,2.41-5.08,4.02-7.73,5.9c-3.21,2.27-6.11,4.99-8.59,8.04c2.53-0.31,4.64-2.02,6.54-3.71
			c12.64-11.22,23.36-24.41,33.84-37.67c3.65-4.62,7.29-9.27,10.23-14.37c5.07-8.77,8-18.77,8.46-28.89
			c0.44-9.67,0.54-19.31,0.6-28.99c0.01-1-0.04-2.13-0.77-2.81c-0.93-0.86-2.53-0.49-3.37,0.45c-0.84,0.94-1.11,2.25-1.29,3.51
			c-0.73,5.05-0.59,10.17-0.77,15.26c-0.82,22.98-8.4,45.67-21.54,64.54c-1.28,1.84-2.92,3.82-5.16,3.95
			c-2.12,0.12-4-1.59-4.76-3.57s-0.64-4.18-0.46-6.29c2.29-26.07,13.35-51.14,30.26-71.11c2.73-3.22,5.66-6.41,7.23-10.33
			c-2.21-0.01-4.19,1.33-5.87,2.76c-4.36,3.71-7.8,8.35-11.19,12.95c-3.3,4.46-6.69,9.16-7.58,14.63
			c-1.69,10.46,6.14,20.28,6.28,30.87c0.12,9.82-6.28,18.36-12.37,26.06c0.03-1.78-0.78-3.55-2.14-4.7
			c-3.98,4.41-5.36,10.49-7.86,15.88c-4.08,8.78-11.48,15.97-20.37,19.79c-0.8,0.34-1.82,0.63-2.45,0.04
			c-0.41-0.38-0.49-0.98-0.53-1.54c-0.14-1.92-0.1-3.86,0.13-5.78c1.03-8.72,5.8-16.53,10.89-23.69s10.69-14.13,13.84-22.33
			c0.69-1.8,1.26-3.69,1.19-5.62c-3.72-0.2-6.71,3.03-8.56,6.27c-6.56,11.5-6.2,26.28-14.08,36.93c-5.4,7.3-14,11.66-19.65,18.76
			c-8.32,2.65-15.39,10.01-23.41,13.46c-3.39,1.45-7.04,2.18-10.67,2.81c-4.4,0.76-8.91,1.4-13.3,0.62
			c-4.39-0.78-8.71-3.22-10.71-7.21c7.74-3.42,16.7-1.47,25.09-2.57c5.23-0.68,10.23-2.56,14.95-4.9
			c13.87-6.88,25.38-17.66,36.08-28.84c2.68-2.8,5.35-5.67,7.18-9.08c3.42-6.37,3.57-13.93,3.65-21.16
			c0.04-4.25,0.01-8.6-1.71-12.48c-2.08-0.05-4.17-0.11-6.25-0.16c0.53-2.35,1.06-4.8,0.45-7.13c-0.62-2.33-2.78-4.43-5.16-4.12
			c-0.95,0.13-1.88,0.68-2.27,1.55c-0.53,1.2,0.08,2.61,0.94,3.61c1.51,1.75,3.84,2.77,6.15,2.7c0.74-0.02,1.49-0.16,2.12-0.56
			c2.37-1.49,1.31-5.28-0.68-7.25c-2.75-2.72-6.79-4.07-10.63-3.55c-3.56,0.48-6.79,2.43-10.35,2.87
			c-6.44,0.78-12.58-3.5-19.07-3.31c4.37,1.76,9.24,1.59,13.94,1.88c9.51,0.58,18.89,3.14,27.38,7.46c0.44-1.52-0.9-2.94-2.17-3.88
			c-7.97-5.89-18.69-7.87-28.23-5.21c-3.73,1.04-7.49,2.76-11.3,2.12c-3.43-0.58-6.24-2.96-9.39-4.43
			c-4.67-2.17-10.26-2.24-14.98-0.21c18-4.38,36.7,1.73,55.21,2.56c1.84,0.08,3.73,0.12,5.46,0.77c1.73,0.65,3.29,2.07,3.55,3.9
			c-10.6-7.58-24.6-10.18-37.21-6.93c-4.96,1.28-9.75,3.42-14.86,3.78c-2.34,0.17-4.83-0.09-6.76-1.42
			c-1.44-0.99-2.46-2.5-3.13-4.11c-1.7-4.1-1.13-9.12,1.66-12.57c-3.2-0.25-6.01,3.4-4.96,6.43c1.05,3.03,5.52,4.15,7.88,1.98
			c2.36-2.17,1.61-6.72-1.32-8.01c-0.61-0.27-1.36-0.4-1.91-0.02c-0.3,0.21-0.49,0.53-0.67,0.85c-0.69,1.21-1.37,2.42-2.06,3.63
			c-0.29,0.51-0.59,1.06-0.57,1.65c0.03,0.88,0.77,1.57,1.5,2.07c3.05,2.12,6.94,2.99,10.6,2.38c0.97-0.16,1.95-0.43,2.93-0.31
			c0.95,0.12,1.82,0.59,2.69,1c3.23,1.53,6.82,2.3,10.39,2.23c-5.87-2.22-12.32-2.88-18.51-1.88c-2.88,0.46-6.13-0.53-8.61-2.07
			c-2.48-1.54-3.81-5.27-1.88-7.46c-0.08,2.1-0.76,4.14-0.95,6.24s0.22,4.45,1.86,5.77c1.38,1.12,3.28,1.25,5.05,1.34
			c4.67,0.23,9.33,0.45,14,0.68c2.17,0.11,4.9-0.14,5.65-2.18c-3.13-2.83-7.98-1.77-12.13-0.99c-4.14,0.79-9.52,0.49-11.16-3.4
			c-0.69,1.98,0.92,4.15,2.89,4.89c1.96,0.74,4.14,0.45,6.23,0.25c6.46-0.62,13.02-0.31,19.39,0.91
			c-5.42-2.13-11.35-2.97-17.15-2.44c-2.33,0.21-4.92,0.58-6.8-0.8c-2.65-1.94-2.24-5.95-1.55-9.16c-1.26-0.54-2.24,1.63-1.34,2.67
			c0.9,1.04,2.49,1.05,3.86,0.91c0.22-2.98-2.41-5.87-5.4-5.91c-0.35,1.24-0.41,2.57-0.16,3.83c1.06-1.27,1.11-3.27,0.12-4.59
			c-2.07,2.2-2.57,5.74-1.2,8.43c0.62,1.21,1.5,2.87,0.42,3.7c-0.3,0.23-0.69,0.31-1.07,0.37c-2.64,0.38-5.4-0.08-7.77-1.3
			c-1.78-0.92-3.38-2.26-5.33-2.68c-3.69-0.79-7.15,1.92-9.81,4.59c-2.66,2.67-5.6,5.71-9.38,5.79c-1.81-4.02,0.79-8.66,3.88-11.8
			c1.46-1.48,3.15-2.88,5.2-3.22c2.04-0.35,4.46,0.75,4.91,2.77c0.49,2.2-1.37,4.18-3.15,5.55c-4.01,3.1-8.5,5.6-13.25,7.38
			c-1.22-1.9-0.06-4.44,1.44-6.12c3.1-3.48,7.74-5.55,12.41-5.51c-1.49,3.53-4.27,6.5-7.7,8.21c0.24-1.69,1.24-3.26,2.68-4.18
			c-5.25,5.72-10.84,11.13-16.71,16.2c5.75-5.48,12.26-11.3,20.21-11.57c-4.72,1.67-9.47,3.36-13.75,5.97
			c-4.28,2.6-8.09,6.22-10.07,10.82c-1.02,2.38-1.41,5.43,0.37,7.31c-2.32-5.3-4.62-11.54-1.84-16.61c1.93-3.52,5.85-5.44,9.64-6.77
			c3.79-1.32,7.83-2.33,10.96-4.85c-4.75,3.67-9.5,7.34-14.25,11.01c-2.78,2.15-5.86,5.01-5.32,8.47c0.8-10,9.26-18.85,19.21-20.09
			c-6.96,3.38-13.42,7.8-19.08,13.08c-1.44,1.34-2.88,2.82-3.46,4.7c-0.64,2.07-0.14,4.33,0.62,6.36c1.35,3.65,3.48,7,6.23,9.76
			c-1.88-5.78-3.66-12.47-0.42-17.61c4.42-7.02,15.46-6.81,20.54-13.37c-9.74,5.63-17.6,14.46-22.06,24.79
			c0.27-6.26,4.25-11.65,8.07-16.62c2.04-2.65,4.29-5.45,7.51-6.36c2.65-0.75,5.92-0.24,7.74-2.3c0.73-0.82,1.06-1.91,1.59-2.87
			c1.27-2.3,3.81-3.83,6.44-3.89c-7.45,5.09-14.91,10.19-22.36,15.28c-1.76,1.2-3.57,2.45-4.74,4.23c-1.17,1.78-1.57,4.25-0.4,6.03
			c3.91-3.71,8.78-6.39,14-7.72c2.67-0.68,5.5-1,8.18-0.38c2.83,0.66,5.38,2.34,8.26,2.75c6.48,0.93,12.3-4.68,18.84-4.71
			c5.35-0.02,10.38,2.79,15.73,3.08c2.77,0.15,5.58-0.03,8.31,0.46c2.87,0.52,5.55,1.77,8.37,2.49c4.46,1.14,9.13,0.94,13.72,0.72
			c-6.55,3.65-14.41,4.03-21.89,3.58s-14.99-1.65-22.45-0.83c-10.79,1.18-21.57,2.43-32.33,3.79c-5.77,0.73-12.2,1.29-16.84-2.22
			c-2.22,2.14-1.16,5.85,0.15,8.64c1.99,4.23,4.24,8.35,6.72,12.31c3.18,5.08,6.94,10.09,12.25,12.85c4.7,2.44,10.18,2.9,15.47,2.72
			c11.34-0.38,22.58-3.48,32.51-8.97c6.19-3.42,11.74-9.33,15.84-15.09c3.8-5.33,6.78-11.56,12.21-15.22
			c-12,3.16-24.04,6.34-35.45,11.21c-3.68,1.57-7.29,3.32-11.07,4.62c-3.74,1.28-7.64,2.1-11.57,2.45
			c-7.44,0.66-15.47-0.62-21.05-5.58c-2-1.78-3.62-3.97-5.67-5.7s-4.77-2.99-7.38-2.39c-1.66,2.85-0.38,6.45,0.93,9.48
			c1.23,2.85,2.45,5.69,3.68,8.54c0.91,2.1,1.93,4.34,3.88,5.53c-0.02-6.19-0.98-12.38-2.83-18.28c-0.43-1.36-1.32-2.99-2.74-2.81
			c-1.8,4.15,0.05,8.89,1.88,13.02c2.57,5.81,5.45,11.97,10.88,15.26c3.71,2.24,8.17,2.85,12.5,3c9.09,0.31,18.67-1.39,25.74-7.12
			c2.64-2.14,4.83-4.76,7.06-7.32c4.42-5.09,9.01-10.02,13.78-14.78c3.23-3.23,7.54-6.63,11.88-5.22c1.02,1.42-0.13,3.35-1.25,4.69
			c-8.06,9.73-16.72,19.89-28.65,24.06c-3.98,1.39-8.17,2.05-12.33,2.7c-2.71,0.43-5.43,0.85-8.14,1.28
			c-1.08,0.17-2.24,0.33-3.24-0.11c-1.8-0.8-2.28-3.1-2.37-5.07c-0.18-3.86,0.22-7.75,1.2-11.5c0.88,5.64-5.3,11.35-2.74,16.45
			c1.93,3.84,7.47,4.02,11.46,2.43c5.89-2.35,10.45-7.15,14.35-12.15s7.39-10.4,12.09-14.66c4.7-4.27,10.96-7.35,17.25-6.5
			c0.03,1.24-0.88,2.29-1.73,3.19c-4.68,4.96-9.36,9.91-14.04,14.87c5.88-6.25,11.59-12.66,17.13-19.21
			c-11.17-2.98-23.81,0.39-32.01,8.54c8.92-4.84,20.86-3.84,28.04-11.01c-10.78-1.92-21.67-3.18-32.6-3.78
			c9.42,3.6,19.92,4.29,29.73,1.97c-2.96-3-7.3-4.57-11.49-4.17c5.07,0.92,10,2.6,14.58,4.97c-4.55,1.64-9.55,0.17-14.29-0.77
			c-17.73-3.5-35.95,0.81-53.59,4.75c-2.05,0.46-4.18,0.91-6.23,0.47c-2.05-0.45-4.01-2.06-4.14-4.16
			c-0.13-2.11,1.65-3.98,3.67-4.61s4.21-0.29,6.28,0.17c-0.85,2.55-3.36,4.27-5.97,4.92c-2.61,0.65-5.35,0.4-8.03,0.16
			c-0.31,1.36,1.15,2.4,2.39,3.02c1.91,0.95,3.81,1.91,5.72,2.86c3.63,1.82,7.36,3.66,11.4,4.05c0.97,0.09,2.03,0.08,2.83-0.49
			c2.28-1.62,0.28-5.36,1.28-7.97c-0.69,2.14-1.37,4.56-0.36,6.57c1.31,2.61,4.77,3.22,7.68,2.99c2.58-0.2,5.27-0.88,7.08-2.72
			c1.81-1.84,2.34-5.11,0.56-6.98c-1.33,2.53,0.43,5.84,3.02,7.05s5.63,0.84,8.4,0.12c2.21-0.57,4.55-1.5,5.69-3.48
			s0.17-5.17-2.1-5.35c-1.15,2.03,0.51,4.72,2.71,5.52c2.19,0.79,4.62,0.26,6.89-0.27c1.15-0.27,2.35-0.57,3.26-1.32
			s1.44-2.11,0.89-3.15c2.22-0.16,4.47,0.15,6.57,0.91c0.42,0.15,0.86,0.34,1.1,0.72c0.3,0.48,0.18,1.1-0.02,1.63
			c-1.54,4-6.55,5.15-10.8,5.72c-3.69,0.5-7.38,1-11.06,1.5c-1.11,0.15-2.26,0.3-3.32-0.06c-0.93-0.31-1.7-0.97-2.61-1.33
			c-2.76-1.08-6.18,1.7-5.68,4.62c-0.85-2.14-3.2-3.57-5.49-3.35c-0.75,1.46-1.16,3.08-1.21,4.71c0.59-2.27-1.34-4.52-3.53-5.35
			c-1.57-0.6-3.41-0.69-4.89,0.09s-2.49,2.56-2.08,4.19c1.35-1.41-0.31-3.86-2.22-4.26c-1.91-0.41-3.89,0.28-5.83,0.14
			c-3.51-0.26-6.19-3.08-9.24-4.84c-2.58-1.49-5.57-2.25-8.54-2.18c-1.57,0.04-3.43,0.19-4.41-1.04c-0.5-0.63-0.63-1.47-0.72-2.27
			c-0.21-1.8-0.35-3.6-0.43-5.41c-0.1-2.48-0.04-5.11,1.31-7.19c2.04-3.14,6.18-3.92,9.58-5.46c4.58-2.07,8.3-5.97,10.15-10.65
			c-0.1-2.55-1.6-4.99-3.83-6.23c0.65-1.33,2.81-1.29,3.72-0.13c0.92,1.16,0.75,2.9-0.01,4.18s-1.98,2.19-3.16,3.08
			c-5.33,4-10.52,8.17-15.58,12.51c-3.78,3.24-7.78,7.18-7.83,12.16c-0.03,3.44,1.88,6.59,4.11,9.2c2.23,2.61,4.86,4.9,6.73,7.78
			c5.36,8.24,3.43,19.07,5.52,28.67c1.6,7.33,5.64,14.77,3.37,21.92c-7-8.96-11.17-20.09-11.79-31.45
			c1.39,5.45,2.78,10.91,4.17,16.36c0.34,1.33,1.08,2.97,2.45,2.86c1.49-0.12,1.85-2.11,1.8-3.6c-0.15-4.36-0.31-8.72-0.46-13.08
			c-0.11-3.03-0.24-6.17-1.61-8.87c-1.18-2.33-3.16-4.13-4.93-6.06c-10.98-11.97-13.73-29.11-16.01-45.2
			c-4.56,6.16-3.35,14.77-1.19,22.12c2.67,9.07,6.49,17.79,11.34,25.91c1.84,3.08,4.56,6.45,8.13,6.08
			c-9.88-12.27-15.64-27.8-16.16-43.54c-3,7.24-1.52,15.7,1.96,22.73s8.78,12.96,13.78,19c1.16,1.4,2.38,3.09,1.96,4.86
			c-0.37,1.58-2.03,2.61-3.65,2.71c-1.62,0.1-3.2-0.54-4.63-1.3c-5.85-3.12-10.31-8.41-13.54-14.19s-5.36-12.11-7.57-18.36
			c-1.71-4.84-2.54-8.41-3.93-13.35c-1.03-3.64-2.26-7.41-4.97-10.04c-2.44-2.37-5.78-3.51-8.72-5.21
			c-3.91-2.25-7.22-5.55-9.47-9.46c2.63,5.14,5.62,10.63,10.86,13.06c2.53,1.17,5.44,1.54,7.74,3.12c3.64,2.51,4.79,7.38,4.8,11.8
			s-0.8,8.91,0.14,13.23c2.4,11.11,15.22,17.3,18.53,28.17c-3.88-2.76-7.77-5.52-11.65-8.28c-2.05-1.46-4.13-2.94-5.67-4.93
			c-1.62-2.09-2.55-4.62-3.46-7.11c-1.95-5.35-3.93-10.82-3.98-16.51c-0.02-3.2,0.56-6.48-0.26-9.57
			c-1.57-5.96-7.64-9.35-11.98-13.73c-4.8-4.85-7.67-11.34-9.22-17.98c-1.55-6.64-1.87-13.5-2.19-20.32
			c-0.2-4.4-1.99-10.24-2.89-14.55s-1.4-8.86-0.12-13.07c1.28-4.21,4.72-8.02,9.09-8.57c5.36-0.68,10.12,3.43,15.45,4.3
			c6.42,1.05,12.51-2.66,18.6-4.96c5.82-2.19,12.1-3.15,18.3-2.77c1.13,0.07,2.28-0.52,3.4-0.68c-3.97-4.02-9.47-6.26-15.03-7.25
			s-11.26-0.83-16.91-0.67c-5.66,0.16-11.83,0.52-16.07,4.27c-1.31,1.16-2.4,2.71-2.46,4.46c-0.1,2.98,2.76,5.22,5.58,6.19
			c6.66,2.3,14,0.41,20.63-1.98c6.63-2.39,13.32-5.34,20.37-5.14c1.39,0.04,3.36-0.34,3.23-1.72c-0.06-0.63-0.59-1.09-1.1-1.47
			c-7.77-5.85-17.84-8.53-27.49-7.33c-3.84,0.48-8.1,1.97-9.54,5.56c-1.21,3.04,0.19,6.69,2.74,8.74c2.55,2.04,6,2.68,9.26,2.48
			c3.52-0.22,7.7-2.29,7.56-5.82c-0.06-1.55-0.99-2.92-2.03-4.07c-1.86-2.06-4.29-3.72-7.04-4.12c-2.75-0.4-5.8,0.69-7.23,3.07
			c-1.35,2.24-1.01,5.27,0.52,7.39c1.54,2.12,4.11,3.35,6.71,3.6c3.03,0.3,6.66-1.22,7.12-4.23c0.34-2.23-1.27-4.4-3.29-5.42
			c-2.02-1.02-4.35-1.14-6.61-1.2c-2.27-0.06-5.04,0.22-5.99,2.28c-1.2,2.6,1.61,5.19,4.06,6.66c1.86,1.12,4.15,2.24,6.1,1.29
			c1.45-0.7,2.19-2.34,2.59-3.9c0.6-2.31,0.6-5.05-1.09-6.73c-1.65-1.64-4.55-1.61-6.39-0.18c-1.84,1.42-2.62,3.95-2.29,6.25
			c0.16,1.09,0.56,2.18,1.33,2.97c0.85,0.87,2.06,1.3,3.26,1.5c4.3,0.73,8.95-1.29,11.35-4.94c0.95-1.44,1.42-3.68,0-4.68
			c-0.51-0.36-1.15-0.46-1.77-0.5c-2.31-0.16-4.65,0.32-6.7,1.39c-0.65,0.34-1.3,0.77-1.6,1.44c-0.53,1.17,0.31,2.6,1.46,3.18
			c1.15,0.57,2.51,0.52,3.79,0.46c0.45-0.02,0.94-0.05,1.31-0.31c1.08-0.75,0.34-2.45-0.56-3.4c-1.69-1.77-3.74-3.18-6-4.12
			c-2.29-0.96-5.5-1.13-6.71,1.03c-1.3,2.31,0.95,5.16,3.44,6.09c3.69,1.39,8.92-0.5,9.14-4.44c0.16-2.82-2.66-5.32-5.48-5.13
			c-2.82,0.19-5.2,2.7-5.58,5.5c-0.2,1.5,0.18,3.21,1.42,4.08c0.6,0.42,1.34,0.61,2.07,0.61c2.52,0.01,4.79-2.39,4.64-4.91
			s-2.69-4.63-5.2-4.31c-1.18,0.15-2.4,0.93-2.55,2.11c-0.14,1.12,0.7,2.1,1.55,2.85c2.3,2.01,5.27,3.46,8.31,3.25
			c3.05-0.22,6.04-2.45,6.46-5.47c0.05-0.35,0.06-0.74-0.14-1.04c-0.37-0.57-1.21-0.52-1.87-0.38c-4.2,0.84-8.29,2.28-12.09,4.26
			c-0.54,0.28-1.08,0.58-1.44,1.07c-1.11,1.5,0.12,3.56,1.32,4.99c0.75,0.9,1.81,1.9,2.93,1.54c1.22-0.4,1.39-2.09,1.03-3.32
			c-1.2-4.05-6.01-6.62-10.04-5.36c-0.05,3.21,3.72,4.99,6.89,5.47c1.84,0.28,4.48-0.33,4.27-2.18c-0.08-0.68-0.56-1.22-1.04-1.71
			c-1.18-1.19-2.55-2.34-4.21-2.58c-1.66-0.24-3.6,0.83-3.71,2.5c1.5,0.58,3.11,1.16,4.68,0.83c1.57-0.33,2.97-2,2.39-3.51
			c-0.31-0.81-1.1-1.35-1.9-1.68c-1.14-0.46-2.48-0.58-3.59-0.03c-1.1,0.55-1.86,1.87-1.51,3.05c0.27,0.9,1.07,1.53,1.82,2.09
			c1.34,1,2.78,2.04,4.44,2.2c1.67,0.16,3.58-0.95,3.63-2.63c0.08-2.45-3.22-3.28-5.67-3.3c-1.36,2.22-0.12,5.56,2.36,6.35
			s5.43-1.23,5.6-3.82c0.17-2.6-2.5-4.97-5.06-4.51c-1.26,0.23-2.44,1.13-2.73,2.37c-0.45,1.98,1.68,3.84,3.7,3.69
			c1.39-0.1,2.82-1.17,2.77-2.56c-0.06-1.69-2.1-2.58-3.79-2.54c-1.53,0.04-3.11,0.53-4.18,1.64c-1.07,1.1-1.5,2.87-0.79,4.24
			c1.19,2.29,5.18,1.87,6.18-0.52s-0.96-5.34-3.51-5.76s-5.14,1.36-6.12,3.76c-0.2,0.5-0.35,1.04-0.24,1.57
			c0.17,0.76,0.83,1.29,1.49,1.7c2.73,1.67,6.59,1.96,8.93-0.22c2.34-2.18,1.66-6.99-1.46-7.67c-1.02-0.22-2.12,0.02-2.96,0.63
			c-2.01,1.49-1.9,4.81-0.21,6.66c1.69,1.85,4.42,2.4,6.91,2.14c2.49-0.26,4.85-1.2,7.25-1.92c4.37-1.31,8.97-1.89,13.53-1.7
			c0-0.57,0-1.14,0-1.7c-1.29-0.5-2.59-1.01-3.88-1.51c-0.52-0.2-1.11-0.47-1.28-1.01c-0.23-0.77,0.55-1.45,1.26-1.81
			c1.43-0.73,3-1.18,4.6-1.3c-8.6-4.75-18.34-7.68-28.15-7.41c-9.82,0.27-19.68,3.91-26.65,10.82c0.82-3.16,3.36-5.64,6.25-7.16
			c2.89-1.51,6.13-2.19,9.33-2.86c4.4-0.91,8.81-1.83,13.21-2.74c4.65-0.97,9.67-1.89,13.99,0.06c5.55,2.51,9.02,9.4,15.1,9.77
			c0.3-5.3-3.59-10-8.07-12.85c-4.77-3.04-10.45-4.64-16.11-4.53c6.18,1.74,12.36,3.48,18.54,5.21c2.01,0.57,4.08,1.16,5.72,2.46
			c1.46,1.16,2.46,2.79,3.33,4.43c1.91,3.63,3.36,7.72,2.76,11.77c-0.72,4.84-4.25,8.83-8.27,11.63s-8.6,4.66-12.8,7.16
			c-9.06,5.39-16.28,13.81-20.24,23.58c-0.31,0.76-0.76,1.65-1.57,1.71c-1.47,0.1-1.47-2.21-0.8-3.52
			c5.71-11.18,16.39-18.83,26.68-26.03c-8.15,2.21-15.43,6.93-23.5,9.43c-8.07,2.5-18.02,2.2-23.58-4.16
			c-0.28-0.32-0.56-0.72-0.47-1.13c0.11-0.5,0.68-0.73,1.18-0.84c3.5-0.78,7.09,0.34,10.64,0.85c13.48,1.94,26.48-5.02,38.32-11.73
			c-12.13,9.83-28.06,14.85-43.64,13.73c-2.44-0.17-5.01-0.55-6.88-2.12c6.8-2.53,14.33-1.31,21.59-1.2s15.44-1.48,19.44-7.53
			c-6.18,0.59-11.54,4.43-17.5,6.14c-4.78,1.37-9.96,1.32-14.7-0.15c-2.28-0.7-4.54-1.79-6.01-3.67c-1.47-1.88-1.95-4.68-0.63-6.66
			c1.33-1.98,4.66-2.43,6.1-0.52c0.38-1.62-0.74-3.26-2.1-4.22c-1.36-0.97-2.98-1.51-4.36-2.45c-4.09-2.78-5.15-8.24-5.87-13.12
			c-0.38-2.6-1.12-4.17-1.86-6.69c-1.14,3.3-1.86,6.74-2.12,10.22c-0.12,1.56-0.11,3.26,0.85,4.49c0.96,1.23,3.2,1.48,3.94,0.11
			c0.71-1.31-0.67-3.04-2.16-3.01c-1.49,0.03-2.72,1.32-3.16,2.75c-0.44,1.43-0.27,2.96-0.09,4.44c0.16,1.32,0.33,2.64,0.51,3.97
			c0.13,0.99,0.72,2.29,1.67,1.99c0.21-1.19,0.42-2.38,0.62-3.58c-0.12,2.83-0.24,5.66-0.36,8.49c2.75-1.96,3.82-5.95,2.42-9.03
			c2.73,0.48,5.37,1.51,7.7,3.01c-2.73,0.12-5.74,0.14-7.81-1.64c-2.58-2.22-2.52-6.15-2.52-9.55c-0.01-8.84-1.92-17.66-5.56-25.71
			c-0.7,9.38,2.93,18.55,3.42,27.94c0.27,5.3-0.46,10.6-0.57,15.91c-0.13,6.28,0.62,12.54,1.38,18.78
			c1.18,9.62,2.52,19.55,7.57,27.82c-1.35-16.51-6.37-31.58-8.71-47.98c-0.7-4.94-1.14-9.91-1.58-14.88
			c-1.79-20.46-3.51-41.11-0.93-61.49c0.41-3.27,0.94-6.54,1.99-9.66c4-11.88,15.74-20.38,28.2-21.73
			c13.26-1.44,26.25,4.32,39.58,4.97c23.89,1.16,47.2-15.77,70.83-12.01c7.05,1.12,21.36,4.79,20.1,7.14
			c-1.11,1.99-16.92-2.38-25.38-3.56c-9.71-1.36-19.67-2.72-29.23-0.56c-9.39,2.12-18,7.55-27.61,8.16
			c-5.93,0.38-11.79-1.13-17.66-2.06c-9.21-1.46-18.58-1.52-27.91-1.57c-4.6-0.03-9.32-0.04-13.65,1.51
			c-5.49,1.96-9.81,6.21-13.73,10.53c-0.91,1.01-1.86,2.14-1.93,3.49c-0.14,2.93,3.58,4.31,6.51,4.45
			c3.54,0.17,7.09-0.13,10.63-0.08c12.63,0.19,24.69,4.88,36.7,8.81c12.01,3.94,24.83,7.2,37.17,4.48c6.77-1.49,13-4.71,19.36-7.45
			c14.52-6.25,30.07-10.13,45.83-11.43c-2.06,4-7.33,4.74-11.79,5.34c-12.9,1.71-25.26,6.13-37.84,9.45s-25.86,5.53-38.56,2.74
			c-9.78-2.15-30.68-7.09-29.28-3.3c0.82,1.86,26.26,3.74,39.49,4.67c5.27,0.37,10.57,0.63,15.84,0.21
			c8.38-0.68,16.51-3.09,24.51-5.68c9.41-3.05,18.77-6.38,27.61-10.82c4.86-2.44,9.95-5.68,11.52-10.89
			c0.79-2.64,0.56-5.48,1.14-8.17c0.58-2.69,2.4-5.5,5.15-5.74c2.37-0.21,4.43,1.54,6.09,3.24c5.54,5.69,10.21,12.24,13.77,19.35
			c0.76,1.51,1.48,3.29,0.82,4.85c-0.87,2.04-3.7,2.5-5.76,1.69c-2.06-0.81-3.64-2.48-5.42-3.79c-5.44-3.98-13.28-4.36-19.07-0.91
			c7.76,1.84,15.52,3.69,23.28,5.53c1.12,0.27,2.47,0.47,3.28-0.34c0.75-0.75,0.64-1.98,0.4-3.01c-1.23-5.34-4.54-10.16-9.08-13.23
			c-1.5-1.02-3.14-1.86-4.44-3.13c-2.72-2.65-3.49-6.68-3.91-10.45c-1.04-9.53-0.67-19.21,1.11-28.63
			c1.69-8.93-13.14-11.97-16.64-20.35c-3.24-7.77,2.34-17.76-2.43-24.7c-1.44-2.09-3.62-3.52-5.74-4.9c-3.57-2.32-7.19-4.66-11.23-6
			c-4.6-1.52-9.52-1.66-14.36-1.79c-15.2-0.4-30.49-0.8-45.56,1.3c-4.14,0.58-8.33,1.37-12,3.37c-3.6,1.95-6.77,5.08-10.83,5.53
			c-0.14-3.2,1.95-6.06,4.26-8.28c7.09-6.82,16.85-10.11,26.47-12.19c26.5-5.71,55.05-3.44,79.31,8.66
			c5.19,2.59,10.83,6.72,10.66,12.53c-0.12,4.01-3.2,7.45-6.82,9.17c-3.62,1.73-7.72,2.07-11.72,2.37
			c3.06,7.31,5.63,21.47,12.85,19.85c5.02-0.9-1.79-11.39-4.81-16.3s-6.75-9.4-9.36-14.54c-2.96-5.83-4.61-12.63-9.46-17.01
			c-6.52-5.89-16.6-5.36-25.04-2.93s-16.66,6.43-25.45,6.37c3.23-3.07,7.86-4.12,12.28-4.75c9.82-1.4,19.78-1.37,29.7-1.3
			c15.29,0.1,30.68,0.29,45.69,3.21c3.74,0.73,7.55,1.67,10.67,3.86c3.12,2.19,5.44,5.88,5,9.67c-0.62,5.26-5.86,8.46-10.14,11.57
			c-3.34,2.43-6.4,5.26-8.86,8.58c-1.86,2.51-3.4,5.33-5.82,7.31c-3.64,2.97-8.63,3.54-13.32,3.84c-7.3,0.46-14.63,0.56-21.95,0.65
			c-9.69,0.12-19.66,0.2-28.69-3.3c-8.18-3.17-15.36-9.19-24.05-10.4c-5.23-0.73-10.62,0.37-15.8-0.68
			c-4.48-0.91-8.57-3.38-13.11-3.87c-5.16-0.57-10.22,1.48-15,3.5c-2.56,1.08-5.17,2.2-7.22,4.07c-2.05,1.87-3.47,4.68-2.95,7.41
			c0.33,1.71-1.24,3.88-2.73,2.97c-1.49-0.9-1.82-2.93-1.6-4.66c0.66-5.33,4.92-9.56,9.6-12.18c7.91-4.42,17.24-5.34,26.27-6.07
			c9.65-0.78,19.37-1.45,28.99-0.35c7.6,0.87,15.03,2.83,22.43,4.78c4.44,1.17,8.88,2.34,13.32,3.51c3.91,1.03,8.75,1.8,11.39-1.26
			c2.15-2.49,1.55-6.51-0.52-9.05s-5.23-3.93-8.33-5.01c-14.69-5.13-30.54-5.58-46.1-5.99c-5.53-0.14-11.14-0.28-16.51,1.08
			c5.9,9.65,17.38,14.39,28.47,16.62c11.09,2.24,22.63,2.63,33.26,6.5c2.55,0.93,5.11,2.07,7.82,2.12c2.71,0.05,5.69-1.33,6.49-3.92
			c1.02-3.31-1.84-6.51-4.68-8.49c-7.96-5.56-17.66-8.11-27.31-9.22c-9.64-1.11-19.39-0.87-29.08-1.41
			c-9.27-0.52-18.57-1.74-27.82-0.83s-18.68,4.28-24.68,11.37c-6.75,7.98-8.06,19.2-7.68,29.64c0.1,2.91,0.34,5.89,1.61,8.5
			c1.8,3.68,5.47,6.15,9.34,7.5c3.87,1.35,8,1.72,12.06,2.29c8.79,1.22,30.63,0.57,25.8,6.36c-4.87,3.7-16.74-2.2-25.12-3.3
			c-6.07-0.8-12.22-1.6-18.29-0.81c-2.69,0.35-6.46,0.3-6.92-2.38c10.98-0.63,37.81-1.19,32.75,2.86
			c-6.54,4.69-18.04-5.34-25.74-1.19c-3.59,1.94-5.78,5.78-6.99,9.68c-1.21,3.9-1.65,8-2.8,11.92c-1.77,6.03-5.17,11.43-7.89,17.09
			c-2.72,5.66-4.81,11.99-3.67,18.17c0.6,3.29,2.37,6.64,5.47,7.89c3.91,1.16-3.63,3.63-1.66,5.94c7.03-2,14.17-2.27,21.26-0.86
			c7.09,1.42,16.82,3.97,21.44,1.43c2.59-1.89-6.27-3.55-9.92-3.87c-6.99-0.62-13.99-1.24-20.98-1.86c-2.81-0.25-5.7-0.49-8.38,0.38
			c-5.88,1.91-8.91,8.61-9.25,14.79c-0.18,3.31,0.46,7.09,3.2,8.96c1.61,1.09,3.64,1.3,5.57,1.4c7.87,0.41,15.81-0.53,23.38-2.76"/>
		<path class="st0" d="M223.11,242.11c-1.37-5.09,1.36-10.55,5.33-14.01c3.98-3.46,9.03-5.36,13.89-7.38
			c6.1-2.54,12.18-5.41,18.73-6.27c10.13-1.33,20.19,2.28,29.77,5.84c-4.6-2.54-10.01-3.05-15.24-3.5
			c-7.34-0.64-14.72-1.27-22.07-0.74c-7.35,0.53-14.74,2.29-21.02,6.14c-6.37,3.9-11.76,9.96-19.09,11.41
			c-5.47,1.09-11.05-0.62-16.48-1.91c-5.43-1.29-11.43-2.11-16.35,0.53c6.87-0.05,13.73-0.09,20.6-0.14
			c2.49-0.02,5.05-0.02,7.29,1.29c0.97,0.57,1.8,1.39,2.25,2.42c1.38,3.14-1.03,6.01-2.83,8.62c-3.55,5.16-5.16,11.31-6.37,17.51
			c-0.37,1.92,0.47,3.87,2.14,4.88c0.73,0.45,1.38,1.04,1.9,1.73c0.96,1.27,2.78,1.36,3.85,0.18c3.99-4.41,10.49-6.59,16.27-5.02
			c0.39-1.67-0.78-3.36-2.22-4.3s-3.15-1.36-4.69-2.13c-4.48-2.23-7.13-7.28-7.35-12.28c-0.22-5,1.68-9.9,4.42-14.09
			c-4.12,2.67-4.21,8.49-4.8,13.37c-0.62,5.12-2.31,10.1-4.92,14.55c-0.91,1.55-1.98,3.19-1.43,5.07c0.34,1.15,1.53,1.94,2.67,1.56
			c1.41-0.47,1.58-2.29,2.26-3.57c0.86-1.61,2.73-2.47,4.55-2.61s3.62,0.33,5.39,0.79c-2.81-0.33-5.59-0.85-8.33-1.56
			c-1.09-4.09-1.48-8.37-1.17-12.59c0.32-4.3,1.18-9.28-3.57-11.75c-1.14-0.59-2.42-0.87-3.7-1c-6.32-0.61-12.83,0.89-18.26,4.19
			c-0.9,0.55-1.83,1.21-2.17,2.21c-0.3,0.89-0.07,1.88,0.25,2.77c1.92,5.23,7.1,9.64,6.27,15.14c-0.75,5.02-6.03,7.78-9.5,11.48
			c-4.69,5-6.14,12.74-3.76,19.14c0.44,1.18,0.51,2.46,0.18,3.67c-1.2,4.44-3.13,8.96-6.06,12.38c-0.53,0.62-1.38,1.27-2.07,0.84
			c-0.33-0.2-0.48-0.59-0.6-0.96c-0.62-1.89-0.8-4.01,0-5.83c0.43-0.99,1.21-1.86,2.15-2.39c1.32-0.75,2.89,0.48,2.48,1.94
			c-0.01,0.04-0.02,0.07-0.03,0.11c-0.43,1.44-2.63,0.91-2.29-0.56c0.62-2.7,2.02-5.35,2.91-8.02c0.49-1.47,2.64-1.12,2.63,0.43
			c-0.01,2.17-0.56,4.38-1.5,6.33c-0.34,0.7-0.75,1.4-1.25,2.02c-1.16,1.47-3.52,0.45-3.22-1.4c0.58-3.54,2.33-7.04,2.09-10.65
			c-0.07-1.01-0.29-1.99-0.46-2.99c-0.62-3.55-0.65-7.21-0.09-10.78c-0.96-2.39,0.41-5.25,1.58-7.55c1.17-2.3,2.83-4.32,4.02-6.61
			c4.23-8.12,1.9-18.4-3.33-25.92c1.39,0.34,2.33,1.61,3.14,2.8c2.19,3.21,4.4,6.45,5.78,10.08c1.38,3.63,1.87,7.74,0.56,11.39
			c-0.85,2.36-2.38,4.39-3.73,6.5c-3.2,5-5.45,10.6-6.6,16.43c-0.68-7.19,1.14-14.59,5.08-20.63c1.5-2.29,3.29-4.4,4.56-6.83
			c1.26-2.43,1.97-5.32,1.09-7.92c2.17,5.09,1.92,11.15-0.67,16.04c2.3-3.02,2.79-7.07,2.45-10.85c-0.34-3.78-1.41-7.46-1.9-11.22
			c-0.1-0.79-0.18-1.62,0.06-2.38c0.3-0.92,1.03-1.64,1.84-2.18c3.52-2.35,8.16-1.72,12.34-1c2.67,0.46,5.33,0.93,8,1.39
			c2.02,0.35,4.14,0.74,5.74,2.03c2.45,1.97,3,5.45,3.08,8.59c0.08,3.14-0.08,6.48,1.5,9.2c1.71,2.95,5.04,4.47,7.85,6.41
			c4.61,3.19,8.12,7.94,9.81,13.29c0.23,0.73,0.41,1.6-0.05,2.22c-0.38,0.51-1.07,0.67-1.71,0.75c-4.58,0.55-9.41-1.22-13.73,0.38
			c-5.53,2.06-7.95,8.96-7.53,14.7c0.08,1.1,0.91,2.08,2.01,2.15c1.31,0.09,1.92-1.15,2.27-2.24c1.2-3.65,1.91-7.93,5.11-10.07
			c2-1.34,4.53-1.5,6.9-1.93c2.37-0.43,4.93-1.37,6-3.52c-5.33-1.35-11.22-0.27-15.72,2.88c-4.5,3.15-7.54,8.31-8.1,13.77
			c-0.03,0.29-0.05,0.61,0.09,0.87c0.42,0.81,1.69,0.34,2.26-0.36c1.41-1.73,1.61-4.11,2.3-6.23c1.53-4.7,5.75-8.27,10.49-9.67
			c4.74-1.4,9.93-0.82,14.55,0.95"/>
		<path class="st0" d="M363.21,326.3c-14.65,50.93-26.35,97.56-34.63,149.91c-1.76,11.1-3.44,22.46-8.7,32.39
			c-1.93,3.65-6.19,7.41-10.31,7.33c-2.03-0.04-3.88-1.15-5.5-2.37c-10.14-7.63-15.15-20.54-16.28-33.18
			c-1.17-13.11,1.29-26.24,3.07-39.27c0.14-1.04-0.54-2.09-1.59-2.22c-1.02-0.12-1.49,0.72-1.84,1.49
			c-1.42,3.15-2.36,6.52-2.78,9.96c-0.33,2.65-4.12,2.75-4.56,0.12c-0.68-4.01-0.21-8.33,1.18-12.08
			c2.62-7.12,7.86-12.91,12.97-18.51c13.91-15.22,27.82-30.45,41.73-45.67c1.29-1.41,2.61-2.84,4.01-4.19
			c2.31-2.22,5.91,0.57,4.29,3.33c-6.62,11.3-13.03,22.72-19.25,34.24c-10.62,19.71-20.83,40.37-22.74,62.68
			c0,0.05-0.01,0.11-0.01,0.16c-0.47,5.29-8.32,4.86-8.28-0.45c0.09-12.33,3.41-24.69,8.46-36.02
			c4.77-10.69,11.01-20.61,17.68-30.26c0.51-0.74,1.62-0.05,1.2,0.74c-11.62,21.6-19.99,44.95-24.73,69.02
			c-0.85,4.29-7.31,3.48-6.95-0.88c0-0.04,0.01-0.09,0.01-0.13c0.66-7.21,5.85-13.44,4.74-21.12c-0.39-2.7-1.89-5.18-4.28-6.51
			c-3.88-2.16-7.4-0.08-10.41,2.06c-9.42,6.68-17.7,14.97-24.36,24.41c-3.06,4.33-6.07,9.15-10.94,11.27
			c-2.34,1.02-4.94,1.31-7.36,2.12c-5.8,1.93-10.31,6.71-13.22,12.09c-1.4,2.6-2.48,5.35-3.38,8.17c-1.19,3.72-5.77,4.98-8.79,2.49
			c-7.23-5.96-16.59-9.58-25.3-13.48c-1.68-0.75-3.45-1.61-4.43-3.17c-0.88-1.4-0.98-3.14-1.05-4.8c-0.74-17.3-1.47-34.6-2.21-51.91
			c-0.66-15.58-14.09-26.49-23.91-38.6c-11.92,16-21.06,34.07-26.89,53.16c-2.84,9.31-4.76,19.93,0.12,28.36
			c4.68,8.08,14.18,11.76,21.47,17.59c9.8,7.84,15.51,20.37,15.56,32.88c0.01,3.4,4.73,4.37,6.13,1.27
			c3.06-6.8,2.92-15.14-1.16-21.44c-5.94-9.18-17.58-12.68-25.79-19.9c-5.12-4.5-8.8-10.37-12.41-16.15
			c-1.18-1.89-2.4-3.89-1.44-6.43c1.14-3.01,4.36-4.65,7.56-4.31c4.33,0.45,7.67,3.81,10.19,7.3c2.44,3.37,4.5,7.13,7.78,9.69
			c4.96,3.88,12.12,4.58,16.3,9.29c1.14,1.28,2,2.82,3.26,3.98c1.46,1.35,3.35,2.11,5.18,2.87c14.53,6.03,28.36,13.76,41.1,22.99
			c-9.39-4.75-18.65-10.02-26.35-17.2s-13.79-16.47-15.53-26.85c-1.06-6.33-0.49-12.79-0.62-19.21
			c-0.41-19.5-7.77-38.73-20.23-53.71c-4.12-4.96-11.84-4.42-15.45,0.92c-7.96,11.76-17.74,22.28-28.91,31.05
			c-7.34,5.76-15.24,10.77-22.68,16.4c-7.72,5.85-14.92,12.36-22.1,18.86c-10.53,9.53-21.08,19.08-30.65,29.57
			c-3.04,3.34-6,6.78-9.52,9.62c-1.69,1.36-3.5,2.58-5.35,3.76c-2.07,1.33-0.35,4.48,1.89,3.45c7.6-3.5,14.93-7.51,21.41-12.76
			c6.55-5.31,12.06-11.76,17.66-18.07c18.78-21.18,38.88-41.19,60.15-59.87c8.34-7.33,17.04-14.67,22.46-24.36
			c1.12-2,2.56-4.38,4.85-4.33c1.14,0.02,2.16,0.69,3.06,1.39c11,8.61,13.3,24.46,22.42,35.04c6.87,7.96,17.22,12.33,27.65,13.66
			c10.43,1.33,21.02-0.11,31.33-2.17c14.43-2.88,29.23-7.32,39.93-17.42c27.66-26.11,55.81-50.18,76.67-81.99
			c7.43-11.33,14.29-23.55,16.1-36.95c0.18-1.31-0.94-2.51-2.25-2.35c-1.54,0.19-1.93,1.92-1.37,3.11c0.46,0.97,1.38,1.63,2.31,2.14
			c4.53,2.5,10,2.54,14.9,4.22c8,2.75,14.16,10.24,15.32,18.62c0.4,2.88,0.3,6.01,1.94,8.41c0.59,0.87,1.38,1.59,2.17,2.3l4.4,3.98
			c2.45,2.22,4.36,5.09,4.92,8.35c0.05,0.29,0.13,0.56,0.24,0.79c-1.61,2.06-1.89,2.85-4.5,3.11c2.23-4.68,8.25-5.86,13.41-6.31
			c23.05-2,46.79-0.94,68.44,7.19c6.89,2.58,13.49,5.86,20.08,9.12l32.5,16.1c2.19,1.08,0.69,4.41-1.56,3.46
			c-4.43-1.88-8.73-4.43-13.01-6.58c-9.71-4.89-20.23-7.93-30.68-10.94c-17.67-5.09-35.34-10.19-53.12-14.88
			c-3.96-1.05-9.47-1.16-14.68-0.3c-7.01,1.16-11.78,7.76-10.69,14.79l3.41,21.91l0.03,0.2c0.68,4.37-5.64,5.88-6.97,1.67
			c-2.59-8.17-4.22-16.64-4.84-25.19c-0.27-3.72-5.39-4.41-6.68-0.91c-2.96,8.04-4.05,17.22-6.67,25.34
			c-2.17,6.74-11.36,7.59-14.69,1.34c-1.47-2.76-2.93-5.54-3.93-8.47c-6.02-17.65,5.27-36.24,8.3-54.64
			c0.56-3.38-4.34-4.52-5.29-1.23c-2.92,10.13-4.82,20.55-5.67,31.06c-0.45,5.6-0.73,11.61-4.11,16.09
			c-2.04-5.63-4.2-11.22-6.48-16.76c-0.95-2.31-4.44-1.04-3.69,1.34c1.19,3.8,3.34,7.51,5.44,10.89c4.79,7.7,9.58,15.41,14.38,23.11
			c7.64,12.28,15.33,24.63,24.45,35.82c2.74,3.36,2.38,8.28-0.8,11.23c-10.17,9.42-23.23,15.66-34.7,23.7
			c-7.53,5.28-14.46,11.42-20.6,18.26c-2.44,2.71-4.96,5.65-7.73,8.11c-2.17,1.93-5.12-1.3-3.04-3.32
			c13.43-13.05,27.35-25.6,41.72-37.61c2.42-2.02,4.91-4.05,7.54-5.82c2.01-1.34,4.19,1.47,2.4,3.1L333.63,501
			c-3.5,3.21-7.07,6.46-11.34,8.55c-2.82,1.38-5.88,2.22-8.81,3.37c-12.63,4.95-22.68,16.05-26.36,29.1
			c-0.06,0.23-0.12,0.46-0.18,0.7c-0.56,2.47,3.16,3.39,3.85,0.96c1.56-5.48,4-10.7,7.2-15.41"/>
		<path class="st0" d="M231.88,389.38c-2.68,1.61-9.33,5.85-8.48,8.5c0.34,1.06,1.1,2.24,0.5,3.18c-0.52,0.82-1.76,0.81-2.62,0.36
			c-0.86-0.45-1.53-1.2-2.39-1.66c-0.85-0.46-2.09-0.52-2.65,0.27c-1.01,1.43,1.25,3.11,1.27,4.86c0.01,0.4-0.22,0.88-0.62,0.87
			c-0.28-0.01-0.49-0.26-0.65-0.49c-0.75-1.07-1.5-2.13-2.25-3.2c-0.69-0.98-1.37-2.39-0.55-3.26c0.48-0.52,1.28-0.56,1.98-0.57
			c1.77-0.02,3.54-0.04,5.31-0.06c0.26,0,0.52-0.01,0.74-0.14c0.6-0.36,0.32-1.39-0.31-1.68c-0.64-0.29-1.38-0.1-2.05,0.11
			c-4.71,1.42-9.42,2.83-14.14,4.25c-0.23,0.07-0.46,0.14-0.63,0.32c-0.17,0.18-0.23,0.45-0.26,0.7c-0.22,1.87,0.57,3.83,2.04,5.01
			c0.87-1.81,0.1-4.11-1.42-5.43c-1.52-1.32-3.61-1.8-5.62-1.81c-2.01-0.02-4,0.38-5.99,0.6c3.9,1.53,7.14,4.64,8.84,8.47
			c0.76-1.37,0.7-3.16-0.17-4.47c-0.86-1.31-2.49-2.07-4.04-1.91c-0.81,0.09-1.63,0.4-2.43,0.22c-0.67-0.15-1.22-0.64-1.81-1
			c-1.58-0.95-3.58-1.04-5.45-1.32c-1.33-0.2-1.11-2.21,0.23-2.07c1.97,0.2,3.95,0.7,5.9,1.08c4.4,0.86,8.92,1.1,13.39,0.71
			c0.91-0.08,1.86-0.18,2.71,0.17c0.58,0.24,1.07,0.67,1.64,0.93c1.02,0.46,2.2,0.3,3.31,0.13c2.32-0.35,4.64-0.7,6.95-1.04
			c0.68-0.1,1.38-0.21,1.99-0.52c0.8-0.41,1.39-1.13,2.02-1.77c2.42-2.41,5.74-3.65,8.94-4.85c2.2-0.83,4.45-1.7,6.23-3.24
			c1.91-1.65,3.12-3.94,4.29-6.17"/>
	</g>
</g>
</svg>
