<?xml version="1.0" encoding="utf-8"?>
<!-- Generator: Adobe Illustrator 26.0.3, SVG Export Plug-In . SVG Version: 6.00 Build 0)  -->
<svg version="1.1" xmlns="http://www.w3.org/2000/svg" xmlns:xlink="http://www.w3.org/1999/xlink" x="0px" y="0px"
	 viewBox="0 0 566.93 566.93" style="enable-background:new 0 0 566.93 566.93;" xml:space="preserve">

<g id="Layer_1">
</g>
<g id="Layer_2">
	<g>
		<path class="st0" d="M268.16,21.08c-8.01-1.63-16.6,3.04-24.08,6.33c-4.57,2.01-9.4,3.36-14.06,5.18
			c-15.78,6.16-29.19,17.62-39.15,31.32c-9.96,13.7-16.63,29.59-21.13,45.92c-7.86,28.53-9.27,58.81-4.08,87.95
			c1.07,6.02,0.92,10.87,2.65,16.73c4.94,16.74,7.02,34.31,6.15,51.74c-0.26,5.28-0.84,10.69-3.3,15.37
			c-0.7,1.33-1.74,2.72-3.24,2.9c-1.16,0.14-2.27-0.49-3.23-1.17c-7.57-5.33-11.74-14.25-14.6-23.05
			c-5.37-16.49-7.34-33.88-8.85-51.16c-0.46-5.25-0.45-11.5,3.83-14.58c1.56-1.12,3.49-1.62,5.4-1.83
			c4.74-0.51,9.73,0.75,13.38,3.81c3.65,3.06,5.79,7.98,5.12,12.69c-2.98,1.16-5.67-2-8-4.18c-1.74-1.63-3.92-2.9-6.3-3.11
			c-2.38-0.22-4.94,0.77-6.19,2.8c-0.83,1.35-1.03,2.99-1.17,4.57c-1.47,16.68,1.1,33.7,7.43,49.2c1.35,3.31,3.73,7.04,7.01,7.51
			c0.87,0.12,1.39-0.93,0.79-1.56c-0.53-0.56-1.28-1.03-1.91-1.48c-3.12-2.25-4.49-6.17-5.55-9.87
			c-3.65-12.74-5.78-25.91-6.33-39.15c-0.14-3.52,0-7.52,3.36-9.48c2.04-1.19,4.57-1.11,6.69-0.08c4.29,2.09,6.19,6.47,7.78,10.68
			c1.35,3.57,2.62,7.39,1.95,11.15c-0.64,3.58-2.98,6.65-3.92,10.17c-1.07,4-0.19,8.48,2.32,11.78c1.23,1.61,2.82,2.94,3.95,4.63
			c1.13,1.69,1.75,3.95,0.79,5.74c-0.91,0.79-2.19-0.4-2.79-1.45c-2-3.48-4-6.97-6-10.45c-2.87-5.01-5.79-11.19-3.01-16.25
			c1.97-3.59,6.33-5.46,8.03-9.18c1.16-2.53,0.87-5.49,0.17-8.19c-1.35-5.23-4.36-10.33-9.67-12.24c-2.5-0.9-5.29-0.86-7.67,0.33
			c-4.66,2.34-5.35,7.45-5.5,12.07c-0.47,14.59,2.37,29.28,8.24,42.65c1.57,3.57,3.66,7.34,7.31,8.71c1.2-0.94,0.46-2.84-0.28-4.17
			c-5.96-10.59-6.99-23.16-7.88-35.28c-0.41-5.54-0.77-11.36,2.07-16.28c0.76-1.31,2.07-2.27,3.58-2.3
			c2.52-0.06,3.08,2.32,4.62,3.57c1.87,1.52,5.11,0.71,6.05-1.5c0.49-1.14,0.28-2.47-0.36-3.52c-0.79-1.3-2.83-0.69-2.82,0.83
			c0.1,14.18,7.92,27.66,8.4,41.95c0.23,6.83-1.23,13.59-1.64,20.41c-1.04,17.6,4.94,34.76,10.83,51.37
			c4.34,12.22,11.91,20.96,19.32,31.6c9.18,13.19,20,26.62,35.32,31.47c0.31,0.1,0.67,0.25,0.72,0.57c0.05,0.32-0.57,0.49-0.55,0.16
			c11.67,4.98,24.39,7.09,37.07,7.51c10.95,0.37,21.87-1.86,31.64-6.81c11.73-5.94,25.27-8.44,36.15-15.81
			c10.35-7.01,19.15-17.17,22.31-29.16c0.27-1.02-0.99-1.75-1.74-1.02c-8.9,8.72-21.11,13.52-32.59,18.67
			c-14.55,6.52-28.74,14.13-44.14,18.27c-15.4,4.14-32.57,4.49-46.57-3.15c-8.38-4.57-15.61-11.93-25.24-12.99
			c-1.11-0.12-2.24,0.51-2.54,1.58c-0.53,1.89,1.91,2.84,3.75,3.13c8.51,1.38,16.67,4.82,23.6,9.94c2.7,2,5.21,4.24,8.01,6.09
			c11.19,7.39,25.76,7.64,38.86,4.79c9.35-2.04,18.36-5.52,26.89-9.87c10.84-5.53,20.91-12.46,31.13-19.04
			c6.22-4.01,12.24-8.35,17.89-13.13c4.82-4.07,9.59-8.72,11.65-14.75c2.04-5.96,4.56-11.77,7.73-17.22
			c3.83-6.59,2.58-16.7,3.53-24.36c2.95-23.86,1.52-49.94,4.58-73.78c0.59-4.62,1.24-9.4,3.71-13.34c1.96-3.14,5.02-5.58,8.54-6.75
			c1.35-0.45,2.79-0.68,4.19-0.43c5.41,0.95,6.67,7.2,7.1,12.29c0.82,9.87,1.59,20.15-2.05,29.35c-1.52,3.84-3.76,7.37-5.16,11.25
			c-2.06,5.73-2.19,11.97-3.61,17.9c-1.81,7.56-5.77,14.59-11.31,20.04c-1.18,1.16-2.85,1.77-4.45,1.39
			c-3.02-0.71-3.29-3.98-3.2-6.65c0.38-12.05,1.47-24.07,3.28-35.98c2.19-14.41,6.12-29.84,17.56-38.87
			c1.02-0.81,2.35-1.59,3.56-1.1c1.11,0.46,1.56,1.77,1.82,2.95c3.72,16.53-2.27,33.52-8.18,49.4c2.29-14.69,4.59-29.38,6.88-44.07
			c0.48-3.05,0.78-6.64-1.48-8.75c-4.31,6.14-0.41,14.37,1.16,21.71c1.87,8.73,0,18.19-5.05,25.55c-3.43-6.12-0.46-13.63,1.24-20.44
			c1.64-6.56,2-13.43,1.08-20.12c-0.1-0.72-0.45-1.41-1.04-1.83c-2.11-1.48-4.05,1.73-4.14,4.15c-0.2,5.89,1.77,11.63,2.45,17.48
			c1.41,12.06-3.01,24.67-11.64,33.21c0.19-6.65,5.45-11.89,8.37-17.87c3.56-7.28,3.61-15.71,3.6-23.81
			c-0.01-2.94-0.06-6.08-2.24-8.33c-1.08-1.12-2.66-1.7-4.17-1.31c-2.4,0.63-2.9,3.04-3.95,4.93c-0.87,1.57-2.9,2.94-4.36,1.89
			c1.26-12.59,3.02-25.12,5.28-37.57c4.61-25.47-1.84-48.94-7.27-74.24c-2.31-10.76-5.66-22.03-13.95-29.28
			c-4.17-3.65-9.51-6.19-12.44-10.9c-1.31-2.11-2.06-4.55-3.57-6.52s-4.23-3.38-6.47-2.33c-6.82-8.76-14.04-18-22.93-24.65
			c-3.31-2.47-6.78-4.81-10.64-6.27c-4.55-1.73-9.48-2.19-14.33-2.63l-27.37-2.5c-1.94-0.18-3.17,2.07-1.95,3.58
			c3.13,3.87,7.83,6.57,12.34,8.94c19.6,10.33,39.95,19.51,57.89,32.49c18.36,13.28,34.37,31.23,40.03,53.23
			c0.25,0.97,0.29,2,0,2.96c-1.07,3.6-4.77,2.99-6.58,1.04c-1.32-1.43-1.89-3.37-2.5-5.21c-4.24-12.86-12.18-24.48-22.63-33.1
			c-2.6-2.14-5.66-4.22-9.33-2.74c-2.28,0.92-3.91,2.97-4.54,5.34c-1.29,4.85,1.1,9.51,4.14,13.2c5.56,6.74,13.33,11.18,20.34,16.38
			c13.19,9.78,24.07,22.66,31.52,37.31c4.15,8.15-1.25,19.04-7.08,26.09c-1.09,1.31-2.3,2.57-2.95,4.14
			c-0.86,2.1-0.59,4.46-0.37,6.71c0.97,10.21,0.46,20.56-1.51,30.62c-0.86-10.89-1.71-21.79-2.57-32.68
			c-0.9-11.41-1.93-23.27-7.76-33.12c-10.37-17.52-33.26-23.88-53.42-22.75c-1.4,0.08-2.77,0.53-3.87,1.4
			c-4.21,3.33-0.56,8.57,3.57,9.45c3.47,0.74,7.01-0.47,10.5-1.1c11.85-2.16,24.34,2.59,33.05,10.91
			c8.71,8.32,13.9,19.83,16.21,31.65c1.76-14.87-5.82-30.03-17.77-39.06c-11.94-9.03-27.66-12.27-42.55-10.63
			c10.14,0.75,20.5,1.55,29.84,5.59c12.79,5.53,22.39,16.62,29.55,28.57c-10.66-22.08-37.53-34.97-61.43-29.46
			c4.38,2.57,9.77,2.35,14.83,2.76c26.09,2.07,48.94,24.93,51,51.02c-2.47,1.39-5.72,0.13-7.61-1.99c-1.88-2.12-2.79-4.9-3.92-7.5
			c-5.35-12.31-16.94-21.72-30.09-24.41c-11.46-2.35-23.82,0.45-33.27,7.3c-0.53,0.39-0.05,1.2,0.54,0.92
			c12.42-5.98,26.61-8.28,40.28-6.44c2.48,0.33,5.02,0.83,7.11,2.2c1.89,1.24,3.26,3.11,4.59,4.94l4.23,5.8
			c1.75,2.41,1.55,5.72-0.49,7.89l0,0c-0.92,0.98-2.41,1.15-3.53,0.4c-3.67-2.44-6.87-4.98-10.56-7.57
			c-4.17-2.93-8.85-5.41-13.92-5.87c-6.14-0.55-12.11,1.89-17.79,4.28c-2.28,0.96-4.61,1.95-6.41,3.65
			c-0.55,0.51-0.18,1.5,0.48,1.86c0.66,0.36,1.45,0.3,2.2,0.35c2.58,0.16,4.87,1.59,7.11,2.88c5.97,3.41,12.49,6.05,19.33,6.77
			c6.12,0.65,12.53-0.34,17.87-3.36c0.94-0.53,1.09-1.85,0.3-2.58c-3.97-3.69-8.29-7.01-12.88-9.9c-3.69-2.33-7.99-3.49-12.34-3.37
			c-0.61,0.02-1.22,0.09-1.74,0.39c-1.47,0.85-1.58,3.1-1.84,4.48c-0.19,1.04-0.28,2.1-0.14,3.14c0.84,5.9,5.48,6.13,9.39,5.75
			c2.13-0.21,4.42-0.6,5.93-2.13c1.62-1.64,1.92-4.18,1.76-6.48c-0.05-0.77-0.16-1.57-0.58-2.22c-0.84-1.32-2.62-1.61-4.18-1.69
			c-1.9-0.11-3.84-0.1-5.65,0.45c-2.74,0.84-5.21,3.1-4.73,6.5c0.18,1.27,0.77,2.46,1.66,3.38c2.92,2.99,7.66,2.36,10.54-0.21
			c0.84-0.75,1.56-1.69,1.76-2.79c0.31-1.73-0.75-3.45-2.12-4.54c-1.61-1.28-3.77-1.94-5.78-1.49s-3.76,2.12-4.05,4.16
			c-0.08,0.54-0.05,1.12,0.21,1.6c0.51,0.97,1.71,1.29,2.78,1.49c1.15,0.22,2.33,0.4,3.47,0.17c1.14-0.23,2.25-0.95,2.63-2.05
			c0.52-1.53-0.47-3.13-1.42-4.44c-0.72-1-1.47-2.02-2.53-2.64c-2.01-1.17-4.82-0.45-6.22,1.4c-1.4,1.86-1.39,4.57-0.19,6.56
			c1.79,2.96,5.91,4.27,9.1,3.04c1.07-0.42,2-1.2,2.51-2.24c1.24-2.49-0.31-4.69-2.16-6.05c-2.12-1.56-4.92-2.34-7.45-1.62
			c-2.53,0.72-4.61,3.16-4.47,5.78c0.14,2.65,2.53,4.87,5.16,5.19s5.3-1.06,6.91-3.17c0.6-0.78,1.08-1.73,0.99-2.71
			c-0.1-1.06-0.84-1.94-1.58-2.72c-1.22-1.28-2.66-2.55-4.51-2.43c-1.1,0.07-2.13,0.81-2.34,1.9c-0.21,1.08,0.48,1.84,1.18,2.47
			c1.32,1.17,3.61,2.02,4.63,0.58c0.19-0.26,0.3-0.58,0.32-0.9c0.08-1.22-1.33-2.21-2.5-1.87s-1.83,1.77-1.49,2.94
			s1.51,1.99,2.73,2.09c0.44,0.03,0.9-0.02,1.28-0.24c0.86-0.5,1.04-1.73,0.69-2.66c-0.48-1.29-1.82-2.2-3.19-2.19
			c-1.37,0.02-2.69,0.97-3.13,2.28c-0.66,1.94,0.79,4.23,2.78,4.72c2,0.49,4.18-0.67,5.17-2.47c0.52-0.94,0.74-2.1,0.39-3.11
			c-0.43-1.21-1.58-2.02-2.77-2.52c-3.34-1.42-7.7-0.82-9.79,2.25c-1.16,1.69-1.31,3.94-0.44,5.8c1.08,2.32,3.22,2.9,5.26,2.84
			c3.83-0.11,7.66-2.84,8.31-6.62c0.12-0.67,0.13-1.37-0.08-2.01c-0.42-1.27-1.65-2.15-2.55-2.95c-1.47-1.3-3.41-2.02-5.36-1.73
			c-4.35,0.64-5.06,4.84-4.6,8.29c0.16,1.2,0.47,2.47,1.36,3.28c0.62,0.56,1.46,0.84,2.29,0.94c2.75,0.32,5.67-1.42,6.49-4.06
			s-0.73-5.86-3.38-6.67c-0.63-0.19-1.31-0.26-1.93-0.07c-0.58,0.17-1.09,0.54-1.5,0.99c-1.04,1.13-1.49,2.86-0.87,4.27
			c0.62,1.41,2.41,2.26,3.82,1.64c1.08-0.48,1.7-1.62,2.09-2.74c0.6-1.69,0.73-3.91-1.01-4.81c-0.8-0.42-1.8-0.34-2.58,0.11
			c-1.63,0.92-2.18,2.78-2.23,4.53c-0.01,0.32,0,0.65,0.18,0.91c0.23,0.34,0.67,0.46,1.07,0.55c1.26,0.29,2.57,0.57,3.82,0.26
			s2.41-1.41,2.33-2.69c-0.05-0.82-0.58-1.53-1.17-2.1c-1.45-1.4-3.74-2.24-5.49-1.23c-1.97,1.14-2.18,3.68-0.66,5.37
			c1.96,2.18,5.7,0.97,6.67-1.57c0.13-0.33,0.21-0.69,0.13-1.03c-0.08-0.33-0.31-0.59-0.55-0.82c-1.72-1.64-4.65-1.9-6.54-0.47
			c-1.9,1.43-2.4,4.46-0.95,6.35c1.45,1.89,4.65,2.11,6.25,0.35c0.53-0.59,0.88-1.36,0.9-2.15c0.03-1.41-0.99-2.68-2.25-3.33
			c-1.56-0.81-3.42-0.82-5.14-0.87c-0.83-0.02-1.67,0.28-2.19,0.93c-1.36,1.69,0.64,3.67,2.5,4.25c0.5,0.15,1.03,0.27,1.53,0.1
			c0.59-0.2,0.97-0.76,1.26-1.31c0.72-1.4,1.06-3.12,0.37-4.54s-2.66-2.22-3.94-1.31c-1.39,0.65-1.55,2.73-0.67,3.99
			s2.42,1.86,3.9,2.29c2.1,0.62,4.45,1.03,6.38-0.21c0.86-0.55,1.46-1.47,1.58-2.48c0.36-3.04-3.18-3.74-4.78-2.17
			c-1.21,1.19-1.27,3.27-0.34,4.69c1.77,2.7,6.88,2.71,7.55-1.51c0.15-0.96-0.01-1.99-0.56-2.79c-1.12-1.66-3.19-2.01-5.03-1.74
			c-2.95,0.42-5.77,2.56-6.3,5.49c-0.12,0.65-0.11,1.38,0.29,1.91c0.26,0.35,0.66,0.58,1.06,0.75c3.18,1.33,7.3-0.79,8.07-4.15
			c0.13-0.56,0.17-1.15-0.02-1.69c-0.24-0.68-0.81-1.18-1.35-1.66c-1.59-1.37-3.31-2.81-5.39-3.12c-2.91-0.44-5.62,1.39-8.46,2.13
			c-3.37,0.88-7.04,0.23-10.19,2.36c-0.99,0.66-1.67,1.67-1.97,2.82c-0.05,0.18-0.08,0.37-0.06,0.56c0.06,0.4,0.37,0.71,0.67,0.99
			c9.18,8.33,22.29,12.12,34.49,9.97c0.74-0.13,1.68-0.56,1.54-1.29c-0.09-0.46-0.58-0.71-0.99-0.94c-2.09-1.14-3.45-3.41-3.69-5.76
			c-0.15-1.43,1.55-2.31,2.7-1.45l4.98,3.71c0.55,0.41,1.12,0.85,1.36,1.48s0,1.51-0.65,1.69c-2.93-0.78-3.64-5.58-6.66-5.74
			c0.85,2.95,3.75,5.17,6.82,5.23c0.9,0.02,1.85-0.12,2.64,0.29c0.5,0.26,0.88,0.7,1.24,1.14l7.8,9.34c2.3,2.76,3.62,6.2,3.82,9.78
			c0.15,2.61,0.49,5.5-0.74,7.88c-1.21,2.35-3.78,3.76-6.39,4.16c-2.61,0.4-5.27-0.08-7.84-0.69c-10.64-2.55-20.7-7.54-29.16-14.47
			c-6.59-5.4-12.54-12.14-20.66-14.74c0.7,1.95,3.28,2.21,5.15,3.09c1.63,0.77,2.86,2.17,4.04,3.54
			c6.55,7.58,13.1,15.16,19.65,22.74c1.88,2.17,2.19,6.45,3.12,9.17c0.54,1.57,1.17,3.25,2.55,4.17c2.16,1.43,5.02,0.35,7.4-0.66
			c4.68-2,9.51-3.67,14.43-4.99c1.94-0.52,3.13,2.17,1.4,3.2c-0.88,0.52-1.84,0.95-2.75,1.3c-7.06,2.77-14.13,6.16-19.24,11.77
			c-3.32,3.65-5.69,8.13-6.99,12.89c-1.18,4.3-1.49,8.79-2.65,13.1c-0.23,0.86-0.84,1.6-1.67,1.9c-1.43,0.52-2.29-0.49-2.96-1.44
			c-7.71-10.9-8.48-25.1-9.02-38.43c-0.18-4.36-1.49-8.57-3.53-12.43c-1.33-2.51-1.88-5.46-3.56-7.78c-0.4-0.55-0.88-1.05-1.42-1.48
			c-1.23-0.97-2.81,0.57-1.89,1.84c4.66,6.42,6.8,14.67,5.69,22.54c-0.35,2.46-1.03,4.96-2.56,6.92c-2.73,3.5-7.47,4.59-11.83,5.45
			c-3.28,0.65-6.48-0.91-9.07-3.03c-1.84-1.51-3.43-3.68-5.79-3.96c-0.97-0.12-2.05,0.1-2.78-0.76c-0.61-0.73-0.56-1.82-0.01-2.6
			c0.94-1.33,2.61-1.59,4.15-1.62c4.01-0.08,8.04,0.98,12.01,0.41c1.47-0.21,2.98-0.67,3.5-2.62c0.29-1.07,0.11-2.25-0.47-3.2
			c-1.29-2.08-3.8-2.83-6.16-2.93c-5.22-0.21-10.47,2.47-13.35,6.83c-0.46,0.7-0.82,1.75-0.16,2.27c0.26,0.2,0.6,0.25,0.92,0.28
			c6.35,0.75,13.4,1.32,18.51-2.51c0.67-0.5,1.33-1.15,1.39-1.99c0.08-1.17-1.04-2.04-2.09-2.54c-3.92-1.87-8.76-1.68-12.52,0.49
			c-0.78,0.45-1.54,1.01-1.94,1.82c-0.4,0.81-0.32,1.91,0.39,2.46c0.33,0.26,0.74,0.37,1.15,0.46c2.13,0.46,4.45,0.38,6.38-0.64
			c0.72-0.38,1.43-0.97,1.56-1.78c0.16-0.98-0.64-1.92-1.58-2.2c-0.95-0.28-1.98-0.03-2.88,0.38c-1.13,0.51-2.14,1.28-2.95,2.22
			c-0.47,0.56-0.89,1.33-0.58,1.98c0.33,0.69,1.24,0.82,2,0.8c3.99-0.1,7.91-2.01,10.44-5.1c-1.24-1.15-3.17-1.31-4.77-0.75
			c-1.6,0.56-2.9,1.73-4.04,2.98c-0.35,0.38-0.71,0.85-0.65,1.36c0.04,0.32,0.24,0.6,0.47,0.84c1.27,1.38,3.37,1.95,5.16,1.4
			s3.21-2.2,3.48-4.06c-4.92-1.09-10.13-0.8-14.89,0.81c-1.49,0.5-3.19,1.5-3.12,3.07c3.79,0.8,7.61,1.61,11.48,1.51
			c3.87-0.1,7.84-1.18,10.74-3.75c0.3-0.27,0.62-0.6,0.61-1.01c-0.01-0.4-0.31-0.72-0.6-0.99c-1.67-1.61-3.38-3.25-5.49-4.19
			c-3.83-1.71-8.7-0.69-11.52,2.42c-0.68,0.75-1.27,1.7-1.14,2.7c0.18,1.42,1.68,2.27,3.07,2.59c3.38,0.8,7.14-0.25,9.61-2.69
			c0.3-0.29,0.59-0.63,0.65-1.04c0.15-0.94-0.9-1.61-1.82-1.86c-2.01-0.55-4.2-0.45-6.14,0.3c-1.07,0.41-2.18,1.12-2.21,2.4
			c-0.03,1.06,0.76,1.98,1.76,2.32c1.96,0.67,3.96-0.6,5.37-1.85c0.54-0.48,0.94-1.13,1.03-1.85c0.2-1.52-0.82-2.11-1.82-2.45
			c-2.93-0.98-6.39-0.1-8.5,2.16c-0.66,0.71-1.18,1.87-0.53,2.58c0.32,0.35,0.83,0.46,1.3,0.49c2.22,0.16,4.48-0.97,5.7-2.83
			c-3.52-1.63-8.12-0.45-10.41,2.68c-0.28,0.38-0.53,0.83-0.44,1.29c0.12,0.59,0.75,0.92,1.33,1.07c3.34,0.84,6.62-1.75,8.45-4.66
			c-1.37-0.31-2.83-0.59-4.17-0.16s-2.49,1.82-2.14,3.18c0.29,1.15,1.54,1.87,2.73,1.89c1.19,0.01,2.31-0.54,3.32-1.18
			c0.63-0.41,1.29-1.29,0.73-1.8c-0.19-0.17-0.46-0.22-0.71-0.25c-2.02-0.25-4.09-0.14-6.08,0.33c-0.87,0.21-1.93,0.82-1.7,1.68
			c1.78,0.86,4.1,0.37,5.39-1.12c-1.96-1.21-4.85-0.51-6.04,1.46c2.14,1.13,4.73-0.16,6.71-1.55c1.82-1.28,3.55-2.67,5.19-4.17
			c-0.72-0.4-1.63-0.42-2.37-0.07c-0.59,1.31,1.04,2.59,2.47,2.7c1.75,0.14,3.55-0.59,4.72-1.9c-0.69-0.78-2.22-0.22-2.35,0.82
			c-0.14,1.03,0.96,1.98,2,1.82c1.03-0.15,1.8-1.19,1.81-2.24c-0.76-0.17-1.71-0.28-2.16,0.36c-0.45,0.64,0.06,1.6,0.78,1.89
			c0.73,0.29,1.55,0.13,2.32-0.04c0.13-1.16-1.37-1.84-2.52-1.68c-2.03,0.27-3.76,2.02-4,4.05c1.34,0.25,2.78-0.12,3.84-0.98
			c0.24-0.2,0.48-0.48,0.4-0.78c-0.05-0.2-0.23-0.34-0.4-0.45c-1.78-1.16-4.26-1.13-6.01,0.08c-0.52,0.36-1,1.05-0.63,1.55
			c0.16,0.22,0.45,0.32,0.72,0.38c1.48,0.3,3.11-0.34,3.99-1.57c0.16-0.22,0.29-0.47,0.27-0.74c-0.04-0.44-0.5-0.71-0.92-0.84
			c-1.71-0.53-3.73,0.12-4.8,1.56c1,1.7,3.74,1.96,5.05,0.49c0.28-0.32,0.5-0.7,0.52-1.12c0.07-1.24-1.45-1.9-2.69-1.99
			c-0.86-0.07-1.77-0.02-2.5,0.44c-0.73,0.45-1.2,1.42-0.84,2.21c0.39,0.88,1.52,1.11,2.48,1.12c1.09,0.02,2.3-0.15,3.02-0.97
			c0.89-1.03,0.56-2.77-0.51-3.61c-1.07-0.84-2.63-0.86-3.87-0.3c-0.51,0.23-1.02,0.62-1.08,1.17c-0.08,0.8,0.84,1.33,1.64,1.37
			c1.06,0.05,2.17-0.46,2.67-1.39c0.51-0.93,0.27-2.25-0.62-2.82c-0.89-0.57-2.3-0.14-2.59,0.88c1.23,1,3.42,0.23,3.75-1.32
			c-1.61-1.04-3.76-1.19-5.5-0.38c-0.66,0.3-1.33,0.89-1.24,1.61c0.09,0.69,0.9,1.1,1.58,0.99c0.69-0.11,1.25-0.6,1.72-1.11
			c-1.33-0.34-2.73-0.35-4.06-0.03c-0.68,0.16-1.4,0.46-1.54,1.24c-0.13,0.75,0.41,1.47,1.14,1.67c1.42,0.38,2.57-0.55,3.58-1.43
			c-2.61-0.69-5.61,1.18-6.14,3.83c1.22,0.84,3.16,0.24,3.69-1.14c-2.03-0.73-4.49-0.05-5.85,1.63c0.8,0.61,2.1,0.42,2.69-0.4
			c-0.82-0.2-1.67-0.4-2.48-0.18s-1.53,1.02-1.34,1.84c2.13-5.53,8.22-9.25,14.11-8.61c1.57,0.17,3.15,0.64,4.35,1.67
			s1.95,2.67,1.6,4.21c-0.35,1.53-1.69,2.67-3.15,3.21s-3.06,0.58-4.63,0.62c-2.47,0.06-4.95,0.11-7.37-0.34
			c-2.14-0.4-4.35-1.2-6.44-0.58c-1.83,0.53-3.17,2.03-4.63,3.25c-1.46,1.22-3.42,2.24-5.21,1.59c-1.84-0.67-2.63-2.76-3.56-4.48
			c-1.03-1.89-2.46-3.55-4.17-4.85c-1.24-0.94-2.62-1.69-4-2.43c-2.75-1.48-5.49-2.96-8.24-4.44c-2.49-1.34-6.07,0.43-8.19,2.29
			s-2.99,5.26-1.48,7.66c1.68,2.66,5.27,3.16,8.41,3.36c2.62,0.17,5.35,0.3,7.78-0.69c2.47-1,4.62-3.12,7.29-3.06
			c-4.08-5.1-10.44-8.31-16.97-8.56c-1.87-0.07-3.9,0.13-4.97,2.14c-0.73,1.36-0.62,3.05,0.17,4.38c1.63,2.78,4.97,3.55,8.02,3.45
			c1.32-0.05,2.84-0.34,3.12-1.94c0.13-0.76-0.13-1.53-0.59-2.15c-0.97-1.3-2.32-2.57-3.97-2.87c-1.86-0.34-4.1,0.81-3.75,3.21
			c0.14,0.96,0.71,1.83,1.5,2.4c1.78,1.28,4.03,1.16,6.14,1.02c0.91-0.06,1.89-0.16,2.54-0.79c0.8-0.77,0.79-2.11,0.25-3.08
			s-1.48-1.64-2.43-2.21c-2.13-1.28-4.62-2.27-7.1-1.38c-1.3,0.47-2.35,1.55-2.61,2.91c-0.55,2.96,2.59,4.85,5.35,5.46
			c2.18,0.49,4.44,0.64,6.66,0.43c1.34-0.12,2.6-0.87,3.19-2.09c1.09-2.26-0.79-4.08-2.62-5.14c-2.49-1.44-5.31-2.32-8.17-2.55
			c-0.9-0.07-1.87-0.06-2.62,0.44c-0.96,0.65-1.28,1.95-1.14,3.1c0.25,2.1,1.79,3.93,3.72,4.79c1.93,0.86,4.19,0.83,6.2,0.19
			c1.56-0.5,3.2-1.55,2.71-3.65c-0.21-0.88-0.8-1.61-1.52-2.15c-1.62-1.21-3.44-2.15-5.36-2.77c-2.15-0.69-4.87-0.83-6.09,1.35
			c-0.49,0.87-0.54,1.94-0.24,2.89c0.94,2.92,4.2,4.1,6.82,4.49c1.41,0.21,2.88-0.11,3.95-1.05c2.56-2.27,1-5.58-1.17-7.4
			c-2.32-1.94-5.41-2.95-8.43-2.74c-0.53,0.04-1.08,0.12-1.53,0.42c-0.5,0.34-0.8,0.91-1,1.48c-0.93,2.62-0.2,5.74,1.78,7.68
			c1.99,1.94,5.13,2.6,7.72,1.61c0.83-0.32,1.65-0.83,2.04-1.63c0.55-1.12,0.11-2.53-0.74-3.45c-0.85-0.92-2.03-1.45-3.19-1.93
			c-1.32-0.55-2.69-1.08-4.11-1.05c-1.42,0.03-2.93,0.75-3.47,2.07c-0.51,1.25-0.04,2.73,0.88,3.72c0.91,0.99,2.19,1.55,3.48,1.96
			c2.22,0.7,4.57,1.01,6.89,0.89c1.24-0.06,2.44-0.64,3.11-1.68c1.67-2.57-0.92-5.06-3.34-6.17c-2.03-0.93-4.19-1.55-6.41-1.83
			c-2.18-0.27-4.68-0.13-5.81,2.26c-0.3,0.65-0.42,1.38-0.35,2.09c0.25,2.63,2.29,4.41,4.53,5.41c3.64,1.62,8.07,1.39,11.5-0.66
			c0.7-0.42,1.3-1.04,1.5-1.84c0.48-1.9-1.37-3.05-3.01-3.61c-0.73-0.25-1.51-0.46-2.26-0.27c-0.75,0.19-1.4,0.92-1.24,1.68
			c0.14,0.65,0.8,1.05,1.4,1.33c0.8,0.37,1.63,0.66,2.48,0.85c0.93,0.21,1.95,0.32,2.83-0.06c0.84-0.36,1.49-1.27,1.29-2.16
			c-0.2-0.89-1.48-1.4-2.1-0.73c-0.64,0.68-0.07,1.91,0.81,2.23c0.88,0.33,1.85,0.05,2.75-0.22c0.03-0.31,0.05-0.62,0.08-0.94
			c-0.47-0.28-1.08-0.33-1.59-0.11c-0.73,0.34-0.46,1.57,0.28,1.91c0.73,0.34,1.59,0.08,2.35-0.18c-0.19-0.95-1.45-1.48-2.27-0.96
			c-0.41,1.04,0.92,2.26,1.92,1.76c-0.05-1.09-1.48-1.68-2.48-1.27c-1.01,0.41-1.6,1.46-1.94,2.5c0.64,0.58,1.69-0.46,1.43-1.29
			c-0.26-0.83-1.14-1.26-1.95-1.59c-0.85-0.35-1.73-0.7-2.65-0.65s-1.87,0.6-2.08,1.49s0.7,1.93,1.56,1.62
			c0.23-2.7-2.88-5.08-5.43-4.16c-0.82,1.17,0.83,2.97,2.11,2.33s0.97-2.92-0.41-3.3c-0.41-0.11-0.9-0.05-1.17,0.28
			c-0.13,0.16-0.19,0.37-0.25,0.58c-0.17,0.67-0.29,1.39-0.08,2.05c0.27,0.82,1.22,1.5,2.07,0.91c0.73-0.51,0.74-1.56,0.15-2.22
			c-0.98-1.12-2.52-0.95-3.88-0.74c-1.2,1.34,1.55,4.03,2.92,1.53c0.44-0.8,0.46-1.77-0.03-2.54c-0.75-1.18-2.28-1.67-3.68-1.59
			c-0.19,1.95-0.33,4.09,1.05,5.61c0.91,1.01,2.45,1.34,3.51,0.49c1.26-1,0.8-2.83-0.26-3.79c-0.9-0.82-2.13-1.17-3.3-1.5
			c-0.56-0.16-1.2-0.3-1.69,0.01c-0.6,0.38-0.66,1.21-0.58,1.91c0.16,1.46,0.79,3.06,2.3,3.47c0.89,0.24,1.88-0.18,2.19-1.05
			c0.28-0.81-0.16-1.39-0.6-1.91c-0.8-0.93-1.73-1.85-3.01-1.97c-0.74-0.07-1.53,0.22-1.93,0.85c-0.87,1.34,0.53,2.94,1.99,3.26
			c1.53,0.34,3.58-0.87,3.06-2.35c-0.22-0.64-0.85-1.05-1.49-1.26c-1.21-0.4-2.63-0.23-3.62,0.58c-0.99,0.8-1.44,2.26-0.95,3.43
			c0.65,1.57,2.57,2.14,4.26,2.28c0.9,0.07,1.85,0.06,2.67-0.32c2.29-1.08,2.37-4.51,0.95-6.61c-1.8-2.67-5.64-4.08-8.48-1.79
			c-0.62,0.5-1.1,1.17-1.37,1.92c-0.99,2.77,0.83,4.91,2.99,5.89c1.44,0.65,3.03,0.87,4.6,1.08c0.96,0.13,1.92,0.25,2.87,0.38
			c1.14,0.15,2.43,0.26,3.3-0.49c0.8-0.69,0.95-1.92,0.62-2.92s-1.05-1.83-1.79-2.58c-1.85-1.9-4.12-3.69-6.84-3.62
			c-1.71,0.04-3.34,0.95-4,2.53c-0.97,2.35,0.8,4.41,2.84,5.16c1.59,0.59,3.33,0.54,5.03,0.52c0.55-0.01,1.15,0,1.59,0.34
			c0.84,0.66,0.52,2.01-0.03,2.92c-1.65,2.75-4.67,4.64-7.86,4.92s-6.5-1.04-8.61-3.46c-1.98-2.27-2.86-5.29-3.24-8.28
			c-0.45-3.58-0.22-7.36,1.42-10.57s4.9-5.75,8.51-5.83c2.49-0.06,5.39,0.88,7.2-0.83c0.83-0.78,1.17-1.94,1.39-3.05
			c0.37-1.84,0.52-3.73,0.44-5.61c-0.04-0.91-1.22-1.27-1.75-0.53c-1.19,1.67-1.55,4.19-2.87,5.9c-1.77,2.28-4.97,2.75-7.56,4.02
			c-4.01,1.96-6.72,6.1-7.52,10.5c-0.8,4.39,0.16,8.99,2.1,13.01c0.87,1.8,2.01,3.59,3.77,4.54c1.96,1.05,4.35,0.87,6.51,0.38
			c3.44-0.79,6.88-2.46,8.79-5.44c0.43-0.67,0.42-1.97-0.37-1.86c-0.28,1.17-0.87,2.26-1.7,3.13c-2.57,2.71-6.77,2.87-10.51,2.79
			c-2.02-0.05-4.24-0.2-5.67-1.62c-1.15-1.15-1.48-2.87-1.67-4.49c-0.25-2.2-0.33-4.42-0.24-6.63c0.25-5.88,2.22-12.34,7.38-15.18
			c1.96-1.07,4.2-1.52,6.22-2.48c1.39-0.66,2.72-1.69,3.45-3c0.24-0.43,0.89-0.28,0.91,0.21c0.05,1.46-0.29,2.87-1.47,3.64
			c-1.37,0.89-3.17,0.42-4.8,0.6c-1.76,0.19-3.32,1.17-4.8,2.14c-2.77,1.81-5.63,3.78-7.17,6.71c-0.87,1.64-1.27,3.48-1.63,5.3
			c-1.67,8.29-2.85,16.68-5.01,24.85s-5.34,16.21-10.59,22.84c2.61-9.02,5.21-18.05,7.82-27.07c0.73-2.54,1.47-5.09,2.4-7.57
			c0.89-2.37,1.95-4.68,2.84-7.05c2.03-5.44,3.11-11.19,4.18-16.9c-1.55,7.48-3.09,14.95-4.64,22.43
			c-1.04,5.04-2.09,10.09-3.73,14.97c-1.12,3.33-2.51,6.56-3.9,9.79l-4.85,11.26c-2.11,4.89-2.39,10.58,0.04,15.33
			c0.32,0.63,0.85,1.18,1.71,1.59c1.03,0.49,2.23,0.54,3.3,0.19c2.51-0.82,3.97-3.18,4.88-5.57c0.82-2.17,1.3-4.47,2.41-6.51
			c0.34-0.63,0.89-1.14,1.57-1.33c1.22-0.34,1.31,0.54,1.85,0.92c0.94,0.66,2.03-0.57,2.56-1.58c3.57-6.83,9.21-12.55,15.98-16.23
			c3.08-1.67,4.83-6.19,7.8-8.05c1.25-0.78,2.84-1.46,4.15-0.78c1.27,0.66,1.66,2.3,2.69,3.3c1.88,1.84,4.97,0.97,7.49,0.22
			c5.32-1.56,11.46-1.88,16.03,1.26c1.53-0.24,3.9,0.98,5.13,1.92c4.03,3.08,8.06,6.16,12.09,9.23c3.42,2.62,6.9,5.28,9.45,8.76
			c1.17,1.6,2.13,3.35,3.18,5.04c2.59,4.14,5.76,7.92,9.39,11.19c0.77,0.7,1.08,1.72,1.29,2.81c0.2,0.99-0.94,1.69-1.75,1.08
			c-10.79-8.11-20.22-18.05-31.69-25.18c-2.45-1.52-5.17-2.95-8.04-2.76c-5.44-1.77-11.5-2.03-17-0.45
			c-2.25,0.65-4.43,1.57-6.73,2.04c-4.1,0.84-8.44,0.2-12.46,1.36c-5.02,1.44-8.96,5.5-13.1,8.26c-4.57,3.04-8.21,7.22-10.57,12.17
			c-1.42,2.98-4.62,2.15-7.83,2.74c-0.69,0.13-1.42,0.22-2.1,0.05c-1.2-0.31-2.07-1.4-2.44-2.58s-0.34-2.44-0.3-3.68
			c0.36,3.54,4.55,5.77,8.03,5.01c3.48-0.77,6.11-3.72,7.66-6.92c0.61-1.25,1.1-2.65,0.78-4c-0.06-0.25-0.16-0.5-0.29-0.73
			c-0.77-1.36-2.83-1.02-3.19,0.5c-0.41,1.74-0.91,3.47-1.65,5.05c-0.35,0.74,0.56,1.44,1.18,0.91c3.55-3.05,6.68-6.64,9.96-10.01
			c4.48-4.6,9.59-8.98,15.81-10.59c-4.69-0.89-9.25,2-13.04,4.91c-3.27,2.51-6.39,5.22-9.34,8.11c-0.4,0.39,0,1.05,0.54,0.91
			c3.33-0.92,6.22-3.21,8.75-5.63c2.98-2.85,5.76-6.02,9.41-7.94c2.68-1.41,5.7-2.05,8.7-2.42c4.3-0.53,8.78-0.49,12.82,1.07
			c-3.98-0.71-8.02-1.43-12.03-0.98c-5.6,0.63-10.68,3.46-15.58,6.24c-2.4,1.36-4.81,2.72-7.21,4.08
			c1.93-4.86,5.84-8.76,10.32-11.46c4.48-2.7,9.53-4.31,14.61-5.59c-0.91-0.07-1.83-0.14-2.74-0.21c0.73-1.76,1.85-3.35,3.25-4.64
			c-1.91,0.15-3.5,1.48-4.95,2.74c-6.72,5.85-13.44,11.69-20.16,17.54c5.7-4.68,11.42-9.38,17.68-13.27
			c3.74-2.32,8.3-4.41,12.39-2.81c-4.66,1.15-9.3,2.52-13.56,4.74c-4.26,2.22-8.14,5.33-10.66,9.41c4.1-1.97,7.84-4.63,11.97-6.54
			s8.87-3.05,13.23-1.75c-8.5,4.56-19.26,4.85-26.42,11.31c7.79-5.31,17.38-7.92,26.79-7.29c-6.1-1.23-12.46-2.45-18.49-0.91
			c7.14-5.68,17.42-7.11,25.83-3.58c-3.69-0.44-7.07-2.2-10.65-3.21s-7.8-1.12-10.6,1.31c5.02-3.52,12.55-2.81,16.83,1.57
			c-0.43-3.53-4.34-6.2-7.78-5.34c7.34,0.09,14.64,0.18,21.98,0.27c0.91,0.01,1.9,0.05,2.6,0.65c-4.68-3.17-11.2-3.38-16.06-0.5
			c4.36,0.29,8.79,0.19,13.05,1.21c6.25,1.5,11.87,5.45,15.39,10.83c-3.36-3.15-6.9-6.2-11.01-8.29c-4.11-2.09-8.88-3.16-13.38-2.16
			c7.36,0.1,14.28,3.29,20.94,6.42c1.86,0.88,3.74,1.76,5.4,2.98c1.23,0.9,2.32,1.97,3.59,2.81c1.58,1.05,3.4,1.71,5,2.73
			c1.6,1.02,3.05,2.56,3.24,4.45c-1.21-3.7-4.32-6.39-7.18-9.03c-3.33-3.07-6.55-6.35-10.48-8.6c-6.83-3.91-15.58-4.26-22.7-0.9
			c10.93,1.58,19.55,10.21,30.13,13.38c1.62,0.48,3.32,0.86,4.69,1.84c1.37,0.98,2.33,2.8,1.73,4.38
			c6.51,2.9,11.23,8.55,15.62,14.16c-7.79-7.99-13.73-18.17-23.44-23.67c-3.49-1.97-7.32-3.25-10.93-4.99
			c-3.6-1.75-7.1-4.1-9.12-7.56c3.38-0.01,6.5,1.86,8.97,4.15c2.48,2.29,4.51,5.03,6.96,7.35c5.52,5.2,12.97,8.02,18.46,13.26
			c3.84,3.67,6.63,8.44,10.98,11.48c-4.56-2.76-6.73-8.11-9.94-12.36c-2.34-3.1-5.29-5.67-8.21-8.22
			c-3.31-2.88-6.68-5.81-10.68-7.62c-3.81-1.73-8.01-2.37-12.17-2.91c-4.33-0.56-8.71-1.02-13.05-0.52
			c-1.03,0.12-2.21,0.42-2.62,1.37c2.49,0.76,5.15,0.44,7.75,0.31c9.17-0.43,18.46,1.84,26.4,6.46c-4.78-5-10.53-9.06-16.83-11.91
			c-4.61-2.08-9.78-3.52-14.69-2.07c-0.93,0.28-1.72,1.01-1.87,1.97c-0.29,1.85,1.9,2.75,3.65,3.04c5.84,0.97,11.88,1.17,17.42,3.26
			c5.95,2.24,10.88,6.49,15.68,10.65c2.27,1.97,4.56,3.95,6.41,6.32c1.57,2,3.16,5.72,3.64,8.21c0.65,3.33,1.41,6.63,2,9.97
			c0.23,1.33,0.46,2.73,0.04,4.01c-0.43,1.28-1.75,2.38-3.06,2.06c0.42,1.44-0.62,2.86-1.65,3.95c-3.92,4.13-8.78,7.43-14.21,9.13
			c-5.96,1.87-12.36,1.76-18.56,1.95c-5.14,0.16-10.19-0.87-15.13-2.27c-3.73-1.06-8.04,1.23-11.99,0.95
			c-4.28-0.3-8.3-2.04-12.24-3.75c-1.82-0.79-3.67-1.6-5.15-2.92c-1.36-1.2-2.35-2.76-3.31-4.3l-1.94-3.1
			c-1.57-2.51-1.49-6.56,0.13-9.03c3.34-5.1,7.09-9.94,11.19-14.45c2.29-2.52,4.82-5.03,8.05-6.12c2.83-0.96,5.96-0.75,8.84-1.1
			c3.48-0.18,6.94-0.36,10.42-0.54c3.74-0.07,7.04-2.81,10.76-3.02c6.8-0.37,13.09,3.37,18.73,7.2c2.6,1.77,5.18,3.6,7.43,5.81
			c2.33,2.3,4.25,4.96,6.17,7.62c2.57,3.57,5.27,7.63,4.63,11.98c-7.53,1.14-15.19-0.6-22.44-2.92c-7.25-2.31-14.36-5.22-21.87-6.5
			c-13.25-2.27-26.79,0.65-39.91,3.56c-0.69,0.15-1.43,0.33-1.89,0.86c-0.54,0.61-0.57,1.52-0.47,2.34c0.62,5.14,4.68,9.1,8.67,12.4
			c2.33,1.93,4.94,3.87,7.96,4c2.66,0.11,5.14-1.2,7.67-2.02c4.49-1.46,9.38-1.4,14.02-0.47c4.62,0.92,9.42,2.68,13.89,1.19
			c3.18-1.06,5.6-3.6,8.28-5.61c5.5-4.14,12.52-6.21,19.38-5.71c1.02,0.07,2.18,0.27,2.49,1.48c0.25,0.97-0.21,2-1.03,2.59
			c-4.41,3.19-8.95,6.21-13.59,9.04c-1.67,1.02-3.39,2.02-5.29,2.44c-3.94,0.87-7.94-0.88-11.6-2.59
			c7.54-1.94,14.82-4.88,21.58-8.72c2.74-1.56,5.47-3.29,8.55-3.97c0.71,0.77,0.61,2.04,0.04,2.93s-1.5,1.46-2.42,1.97
			c-6.38,3.55-13.58,5.31-20.68,7.04c-3.63,0.88-7.35,1.77-11.07,1.41c-2.86-0.28-5.6-1.29-8.23-2.43c-0.54-0.23-1.1-0.5-1.4-0.99
			c-0.31-0.52-0.27-1.16-0.23-1.77c0.32-3.96,0.65-7.92,0.97-11.89c-0.69,3.27-0.83,6.65-0.4,9.96c0.24,1.91,0.57,4.16-0.83,5.49
			c-0.8,0.76-1.96,0.99-3.06,1.04c-0.45,0.02-0.9,0.02-1.34,0c-1.65-0.08-3.12-1.11-3.74-2.64c-2.7-6.71-9.09-11.88-16.27-12.93
			c-3.46-0.51-7.62-0.43-9.35-3.73c-0.89-1.71-0.7-3.76,0.2-5.46c1.64-3.07,4.79-4.58,7.86-5.89c0.38-0.16,0.79-0.33,1.2-0.3
			c1.51,0.1,1.72,2.21,2.61,3.43c0.95,1.31,2.84,1.57,4.4,1.15s2.9-1.38,4.32-2.15c4.49-2.42,9.98-2.89,14.82-1.27
			c3.31,1.11,6.72,3.18,10.04,2.1c1.29-0.42,2.39-1.28,3.59-1.92c2.85-1.53,6.37-1.76,9.4-0.63c1.77-2.43,0.03-5.85-2.07-8
			c-1.18-1.21-2.47-2.31-3.86-3.27c-1.09-0.75-0.13-2.4,1.06-1.83c1.08,0.51,2.11,1.2,3.05,1.88c8.52,6.17,17.09,12.68,22.74,21.59
			c0.5,0.79,0.62,1.82,0.19,2.65c-0.75,1.44-2.38,1.09-3.23,0.18c-0.63-0.67-0.94-1.56-1.24-2.43c-3.19-9.15-7.96-18.47-16.42-23.19
			c-3.58-2-7.63-3.04-11.71-3.51c1.69,1.89,4.34,2.51,6.73,3.36c6.93,2.46,12.66,7.4,18.14,12.31c4.33,3.87,8.84,8.16,10.12,13.82
			c0.13,0.58,0.22,1.21-0.06,1.73c-0.42,0.78-1.54,0.95-2.36,0.6s-1.41-1.07-1.96-1.77c-6.48-8.12-12.96-16.24-19.45-24.36
			c4.11,5.87,8.23,11.75,12.34,17.62c1.4,1.99,2.85,4.16,2.86,6.59c-3.62-0.01-6.35-3.07-9.23-5.26c-2.89-2.21-6.34-3.68-9.93-4.25
			c1.47,3.17,4.7,5.14,7.9,6.55c6.9,3.05,14.54,4.45,22.08,4.02c-3.18-4.28-8-7.12-13.05-8.81c-3.85-1.29-7.85-1.97-11.88-2.5
			c-1.33-0.18-2.14,1.46-1.17,2.38c4.7,4.46,10.83,7.42,17.26,8.26c-5.64-3.23-11.35-6.39-17.43-8.69
			c-11.44-4.33-24.05-5.51-36.1-3.37c5.46,1.66,10.91,3.31,16.37,4.97c7.39,2.24,15.05,4.51,22.7,3.53
			c-0.27-1.53-1.59-2.71-3.05-3.26c-1.45-0.55-3.04-0.61-4.6-0.7c-6.6-0.4-13.16-1.67-19.44-3.75c-1.92-0.64-3.86-1.36-5.88-1.43
			c-2.14-0.07-4.22,0.6-6.27,1.22c-5.38,1.62-10.86,2.94-16.39,3.93c-0.55-0.59-0.15-1.64,0.55-2.03c0.7-0.39,1.56-0.33,2.37-0.27
			c9.81,0.84,19.85,1.33,29.36-1.21c1.48-0.4,3.24-1.25,3.22-2.78c-0.22,1.71,0.86,3.39,2.29,4.34s3.18,1.32,4.88,1.6
			c5.05,0.83,10.2,1.08,15.31,0.75c2.63-0.17,5.32-0.49,7.84,0.27c2.87,0.86,5.18,3.02,7.06,5.36c1.55,1.93,2.92,4.11,3.33,6.55
			c0.41,2.44-0.3,5.19-2.27,6.69c-2.23,1.69-5.43,1.45-7.79,2.96c-1.31,0.84-2.24,2.16-3.43,3.17c-2.49,2.13-5.93,2.78-9.2,2.82
			c-3.27,0.04-6.55-0.44-9.82-0.21c-4.38,0.3-8.81,1.85-13.06,0.75c-2.11-0.55-4.01-1.72-6.11-2.3c-4.27-1.19-8.72,0.15-12.9,1.8
			c-0.72,0.28-0.76,1.31-0.05,1.63c3.52,1.57,7.47,2.19,11.3,1.75c2.48-0.29,4.99-1,7.42-0.48c2.45,0.53,4.45,2.23,6.71,3.31
			c3.99,1.89,8.89,1.63,12.72-0.54c0.7-0.4,0.46-1.46-0.34-1.54c-10.69-1.02-21.34-2.5-31.9-4.42c-0.74-0.14-1.25,0.77-0.71,1.3
			c2.88,2.8,7.62,3.44,11.81,3.66c6.95,0.37,13.94,0.47,20.83-0.46c-10.55-1.09-21.07-2.43-31.55-4.03
			c-1.35-0.21-2.78-0.4-4.14-0.29c-1.21,0.1-1.56,1.76-0.5,2.36c4.34,2.47,9.81,2.74,14.91,2.88c5.28,0.15,10.63,0.29,15.77-0.94
			c4.4-1.05,8.71-3.09,13.12-3.45c0.93-0.08,1.32,1.18,0.5,1.64c-2.88,1.6-5.88,2.96-8.97,4.09c-0.94,0.34-0.61,1.73,0.38,1.63
			c3.17-0.31,6.33-1.44,9.35-2.55c2.19-0.8,4.37-1.61,6.56-2.41c1.68-0.62,3.57-1.24,5.15,0.06c1.06,0.87,1.5,2.31,1.31,3.67
			c-0.37,2.67-2.41,4.46-4.35,6.12c-4.36,3.73-8.72,7.46-13.09,11.19c-2.4,2.05-5.3,4.22-8.28,4.47c-3.53,0.3-6.89,1.85-8.88,4.78
			c-2.34,3.45-3.27,7.96-2.81,12.42c0.09,0.89,0.26,1.81,0.02,2.68c-0.27,0.99-1.03,1.76-1.84,2.39c-3.69,2.88-8.7,3.51-13.35,3.02
			c-2.28-0.24-4.85-0.65-6.65,0.77c1.28,1.7,3.74,1.88,5.87,1.82c12.69-0.36,25.08-3.75,37.32-7.13
			c15.73-4.34,31.69-8.77,45.64-17.24c10.61-6.44,16.18-18.35,23.53-28.34c5.64-7.66,9.88-16.35,12.46-25.5
			c0.78,8.04-1.81,16.18-6.27,22.92s-10.68,12.15-17.43,16.58c-7.82,5.13-16.93,9.13-26.26,8.32c-1.33-3.46,0.54-7.44,3.31-9.9
			c2.77-2.46,6.3-3.84,9.54-5.64c8.65-4.8,15.21-12.55,21.57-20.14c3.98-4.75,8.02-9.61,10.35-15.35
			c2.09-5.18,2.69-10.82,3.26-16.38c1.5-14.6,5.92-29.69,5.2-44.34c-0.04-0.81-0.2-1.61-0.57-2.33c-1.46-2.9-4.58-2.26-6.84-1.07
			c-8.67,4.55-12.39,14.83-14.93,24.28c-2.61,9.7-5.25,20.31-13.43,26.29c-0.82,0.6-1.81,0.98-2.82,0.9
			c-1.55-0.11-2.03-1.08-2.29-2.08c-1.14-4.41-0.39-9.09,1.83-13.06c2.84-5.1,5.27-10.42,7.27-15.9c1.04-2.87-2.99-4.75-4.56-2.14
			c-1.28,2.13-2.17,4.49-2.58,6.94c-0.76,4.49,0.02,9.08-0.07,13.63c-0.09,4.55-1.32,9.49-4.99,12.19c-0.43,0.31-0.96,0.6-1.46,0.44
			c-0.55-0.18-0.79-0.81-0.94-1.37c-1.92-7.4,0.98-15.13,4.1-22.11c3.03-6.79,6.32-13.46,9.86-20c-2.88,5.43-5.52,10.98-7.92,16.64
			c-3.94,9.3-7.27,19.3-6.05,29.32c0.33,2.73,1,5.43,0.94,8.18c-0.06,3.08-1.21,6.37-4.05,7.83c-0.78,0.4-1.67,0.49-2.54,0.5
			c-1.88,0.01-3.32,1.7-3.27,3.59c0.29,10.38-3.35,20.86-10.16,28.72c-6.22,7.18-11.86,15.18-20.69,18.68
			c-3.55,1.41-7.37,2.33-10.48,4.54c-3.11,2.21-5.38,6.27-4.05,9.85c2.73,1.08,5.87,0.18,8.44-1.26c2.57-1.43,4.85-3.38,7.53-4.58
			c4.91-2.2,10.86-1.77,15.32-4.78c4.52-3.06,6.25-8.74,8.52-13.7c8.83-19.33,28.71-31.15,40.73-48.68
			c9.75-14.23,10.61-32.68,19.83-47.38c1.32-2.1,2.22-4.49,2.35-6.97c0.02-0.38-0.03-0.76-0.25-1.06c-0.38-0.5-1.1-0.57-1.71-0.57
			c-2.69,0.04-5.32,1.05-7.13,3.04c-5.07,5.59-4.7,12.8-3.91,19.51c0.42,3.57,1,7.12,1.74,10.63c0.45,2.14,0.96,4.29,1.97,6.23
			c0.9,1.74,2.17,3.27,2.97,5.05c0.89,2,1.15,4.23,1.21,6.42c0.19,7.15-1.66,14.34-5.27,20.52c-2.08,3.55-4.72,6.75-6.88,10.25
			c-4.98,8.06-7.7,18.02-15.33,23.63c-2.93,2.15-6.37,3.47-9.7,4.92c-7.09,3.09-13.86,6.88-20.2,11.3
			c-4.48,3.13-9.79,6.76-14.95,4.96c-5.45,3.84-11.45,7.61-16.9,11.45c-4.16,2.93-8.7,5.98-13.78,5.89
			c-3.68-0.07-7.12-1.81-10.76-2.31c-5.34-0.75-10.76,1.18-16.12,0.58c-5.98-0.67-11.13-4.35-15.98-7.9
			c1.95,2.86,5.41,4.22,8.68,5.35c15.28,5.3,31.1,9.04,47.13,11.15c2.7,0.36,5.44,0.66,8.14,0.25c5.45-0.84,10-4.54,13.84-8.49
			c8.86-9.12,15.47-20.41,19.1-32.59c1.28-4.29,2.22-8.77,4.5-12.62c3.66-6.21,10.25-10,16.54-13.52c16.11-9,19.5-31.93,20.69-50.35
			c0.1-1.53,0.11-3.25-1.67-4.1c-1.34-0.64-2.93-0.3-4.06,0.65c-4.8,4.02-5.74,10.43-7.88,16.08c-1.81,4.79-4.59,9.21-8.13,12.91
			c-2.8,2.93-6.05,5.41-8.73,8.44c-3.41,3.85-5.8,8.48-8.14,13.06c-5.68,11.1-11.32,22.29-18.53,32.47
			c-1.28,1.81-2.66,3.63-4.55,4.77c-1.9,1.14-4.45,1.46-6.28,0.22c0.63-4.64,3.6-8.57,6.39-12.33
			c12.09-16.23,22.91-33.41,32.31-51.33c2.61-4.98,5.18-10.1,9.14-14.09c2.32-2.33,5.07-4.22,7.25-6.68
			c4.3-4.84,5.99-11.38,8.57-17.31c1.23-2.84,2.7-5.58,4.38-8.18c2.17-3.34,7.3-2.34,8,1.58l0.85,4.75
			c1.94,10.88,3.79,22.55-0.73,32.63c0.86-12.17,1.72-24.35,2.58-36.52c0.26-3.71,0.51-7.53-0.66-11.06s-4.12-6.74-7.83-7.03
			c-1.82-0.14-3.65,0.42-5.24,1.34c-4.16,2.41-6.55,6.96-8.35,11.42c-3.98,9.83-6.15,20.38-6.38,30.98
			c-0.14,6.63,0.46,13.31-0.63,19.85c-1.47,8.81-5.9,16.8-10.54,24.44c-7.92,13.06-16.46,25.72-25.61,37.94
			c-2.54,3.39-5.28,6.85-9.1,8.66c-5.2,2.47-11.32,1.45-16.92,0.16c-1.55-0.36-3.25-0.82-3.49-2.98c-0.17-1.52,0.58-3,1.82-3.9
			c10.33-7.53,21.28-14.21,32.71-19.94c8.85-4.44,17.99-8.32,26.49-13.4s16.42-11.52,21.6-19.95c-4.5,9.13-9.04,18.31-15.17,26.43
			c-6.13,8.12-14.02,15.21-23.54,18.79c8.49-16.06,27.78-24.03,36.68-39.86c6.2-11.03,6.52-24.57,4.33-36.95
			c-0.28-1.59-1.31-3.02-2.8-3.64c-3.51-1.46-5.89,2.38-7.24,5.49c-6.92,16-16.99,30.63-29.46,42.8
			c5.56-12.5,11.55-24.82,17.96-36.92c2.09-3.94,4.82-7.53,8.19-10.44c0.7-0.6,1.47-1.14,2.37-1.3c1.44-0.26,2.88,0.48,4.06,1.34
			c5.47,3.96,8.3,10.83,8.66,17.57c0.36,6.74-1.47,13.42-3.8,19.75c-3.53,9.57-8.25,18.69-14.03,27.09
			c-3.16,4.59-6.66,9.02-8.86,14.14c2.16-0.99,4.49-1.6,6.86-1.8c0.36,7.09-6.64,12.59-13.59,14.08
			c-6.95,1.49-14.18,0.31-21.25,1.07c-12.07,1.3-23.34,8.65-29.41,19.17c4.64,0.96,8.91-2.4,12.91-4.95
			c9.98-6.36,21.98-8.43,33.31-11.87c7.35-2.23,15.14-5.63,18.55-12.51c-3.74,7.38-10.73,12.62-18.09,16.41
			c-7.36,3.79-15.28,6.39-22.68,10.1c-5.4,2.72-10.61,6.06-16.5,7.4c-10.45,2.37-21.14-1.89-31.02-6.06
			c13.67-3.97,25.74-11.99,37.95-19.31c11.44-6.86,23.31-13.29,33-22.46c8.43-7.98,14.92-17.77,20.74-27.82
			c10.56-18.24,19.18-37.7,24.31-58.15c-0.65,0.12-1.25,0.52-1.62,1.07c-0.08-11.07-1.09-22.13-3.01-33.02
			c-1.41-7.98,2.16-14.79-2.23-21.6c-2.24-3.48-6.59-5.68-7.49-9.72c-0.3-1.33-0.17-2.74-0.48-4.07c-0.31-1.33-1.3-2.68-2.66-2.73
			c0.82,3.97,2.92,7.66,5.92,10.39c2.95,2.68,6.88,4.64,8.44,8.31c2.01-2.39,3.11-5.53,3.04-8.65c-1.88-0.58-3.34,1.69-3.83,3.6
			c-1.54,5.95-1.08,12.3,0.55,18.23c0.96,3.5,2.34,7.09,0.76,10.68c-0.73,1.66-2.26,2.91-4.06,3.06c-3.7,0.29-5.36-3.78-4.72-6.97
			c0.55-2.76,2.28-5.12,3.49-7.67c3.96-8.36,1.4-19.14-5.43-25.24c-1.3-1.16-3.21,0.47-2.28,1.94c0.95,1.51,2.34,2.91,3.54,4.23
			c4.11,4.51,6.82,10.71,5.73,16.72c-1.09,6.01-6.81,11.26-12.87,10.49c-2.93-0.37-5.7-2.03-8.65-1.79
			c-1.85,0.15-3.56,1.04-5.39,1.33c-3.58,0.57-7.21-1.27-9.71-3.9c-2.5-2.63-4.07-5.98-5.61-9.27c0.19,5.7,3.94,11.07,9.1,13.4
			c1.43,0.65,3.07-0.62,2.68-2.14c-0.34-1.31-1.28-2.58-2.44-3.33c-2.05-1.34-4.58-1.7-6.83-2.67c-4.25-1.83-7.1-5.59-9.35-9.75
			c-0.78-1.45,0.92-2.94,2.25-1.96c4.74,3.47,9.27,7.24,13.55,11.28c2.81,2.65,5.58,5.47,9.09,7.08c5.58,2.57,11.92,1.67,17.99,0.09
			c0.97-0.25,0.87-1.65-0.13-1.76c-4.12-0.45-8.27-0.4-11.91,1.43c-2.11,1.06-3.89,2.66-5.87,3.95c-1.99,1.3-4.19,2.29-6.48,2.93
			c-2.25,0.63-4.3-1.61-3.49-3.8c0.45-1.22,1.28-2.33,2.32-3.09c2.31-1.69,5.36-1.99,8.22-1.78c6.58,0.5,13.05,3.42,19.55,2.3
			c6.34-1.09,11.52-5.95,14.61-11.59s4.41-12.05,5.69-18.36c0.19-0.93,0.38-1.88,0.49-2.83c0.18-1.44-1.74-2.09-2.48-0.84
			c-2.57,4.35-3.72,9.55-4.65,14.58c-2.44,13.13-4.07,26.42-4.76,39.76c5.47-9.19,7.32-20.07,8.02-30.74
			c0.69-10.67,0.32-21.42,1.79-32c-3.3,18.85-6.62,37.76-7.38,56.88c-0.46,11.59,0,23.32-2.42,34.66
			c1.66-23.58-4.85-48.27,3.49-70.38"/>
		<path class="st0" d="M263.54,229.81c3.26,1.56,4.84,5.95,8.39,6.62c2.33,0.44,4.64-0.99,6.18-2.8c1.53-1.81,2.54-4,3.97-5.89
			c3.67-4.84,10.46-7.26,16.21-5.32c2.97,1,5.83,3.78,5.17,6.85c-0.39,1.85-2,3.24-3.76,3.91s-3.69,0.73-5.58,0.79
			c-4.67,0.14-9.33,0.28-14,0.43"/>
		<path class="st0" d="M233.33,212.03c0.65-5.78,3.87-10.89,6.84-15.89c2.97-5,5.86-10.41,5.73-16.22
			c-0.02-1.13,0.33-2.48,0.67-3.78c0.38-1.43-0.42-2.9-1.82-3.39c-7.97-2.8-16.3-4.57-24.72-5.26c-2.3-0.19-4.63-0.29-6.89,0.2
			c-3.61,0.78-6.71,2.99-9.71,5.15c-3.76,2.72-7.73,5.71-9.23,10.1c4.07,0.81,8.17,1.41,12.3,1.79c3.83,0.35,7.7,0.52,11.51,0.01
			c4.66-0.62,9.12-2.22,13.54-3.81c3.39-1.22,6.78-2.44,10.17-3.66c0.72-0.26,1.55-0.63,1.72-1.38c0.16-0.68-0.3-1.33-0.78-1.85
			c-5.24-5.7-13.87-6.35-21.62-6.49c-5.34-0.09-11.33,0.13-15.02,4c-0.9,0.94-1.61,2.08-1.9,3.35c-0.85,3.83,2.68,7.55,6.53,8.25
			c3.85,0.71,7.76-0.78,11.27-2.53c1-0.49,2.01-1.03,2.71-1.9c1.77-2.19,0.81-5.62-1.19-7.6c-2.94-2.9-8.15-3.63-11.13-0.14
			c-1.29,1.51-1.83,3.58-1.26,5.48c1.12,3.74,5.56,4.85,8.66,6.15c1.51,0.64,3.31,0.41,4.44-0.78c1.69-1.77,0.51-3.92-0.62-5.61
			c-2.19-3.27-4.89-6.86-8.81-7.24c-0.89-0.08-1.82,0.02-2.58,0.47c-0.86,0.51-1.43,1.41-1.74,2.37c-1.6,5,5.25,10.86,9.88,6.32
			c1.28-1.25,2-3.01,1.94-4.8c-0.11-3.21-2.4-5.13-4.96-5.73c-5.04-1.17-10.42,3.96-9.5,9.05s7.76,8.01,12.07,5.14
			c1.07-0.71,1.99-1.73,2.29-2.98c0.27-1.08,0.06-2.22-0.29-3.28c-1.13-3.47-4.15-6.65-8.01-6.2c-2.63,0.31-4.74,2.62-4.33,5.24
			c0.39,2.5,2.89,3.87,5.25,4.49c3.01,0.8,7.21,0.08,7.69-2.99c0.18-1.15-0.27-2.33-0.96-3.27c-2.18-2.96-7.04-3.52-9.7-0.99
			c-3.29,3.12-1.87,10.1,3.56,10.23c2.83,0.06,5.43-1.9,5.77-4.71c0.51-4.21-4.01-7.42-8.22-8.03c-0.79-0.12-1.64-0.17-2.36,0.18
			c-0.86,0.42-1.37,1.34-1.68,2.25c-1.36,4.07,1.23,9.47,5.7,9.45c1.63-0.01,3.13-0.87,4.18-2.1c4.02-4.72-1.25-10.11-5.64-8.92
			c-0.9,0.24-1.76,0.74-2.29,1.5c-1.18,1.71-0.28,4.23,1.42,5.41c1.7,1.18,3.92,1.31,5.98,1.15c0.79-0.06,1.62-0.18,2.26-0.65
			c0.67-0.5,1.02-1.35,1.12-2.18c0.31-2.63-2.02-5.27-4.66-5.23c-2.64,0.05-4.88,2.88-4.24,5.45c0.64,2.56,4.06,3.99,6.3,2.57
			c2.13-1.35,2.55-5.11-0.32-6.14c-0.92-0.33-1.97-0.21-2.81,0.29c-2.86,1.69-1.78,5.65,0.75,6.71c1.98,0.83,4.46-0.06,5.66-1.85
			c0.18-0.26,0.34-0.57,0.3-0.89c-0.03-0.31-0.24-0.57-0.45-0.8c-1.8-1.93-4.65-2.8-7.22-2.21c-0.45,0.1-0.92,0.27-1.17,0.66
			c-0.29,0.44-0.2,1.04,0.02,1.52c1.18,2.69,5.97,3.34,6.84-0.9c0.15-0.75,0.11-1.53-0.24-2.21c-0.78-1.55-2.57-2.35-4.28-2.64
			c-2-0.35-4.24-0.14-5.47,2.08c-0.56,1.02-0.74,2.23-0.5,3.37c0.6,2.86,3.21,4.67,5.93,5.35c2.45,0.61,5.53,0.21,6.42-2.53
			c0.34-1.06,0.2-2.23-0.32-3.21c-1.32-2.5-4.07-3.4-6.69-3.59c-7.53-0.54-14.4,3.97-20.46,8.48c-0.29,0.22-0.6,0.47-0.67,0.82
			c-0.14,0.72,0.75,1.16,1.45,1.34c13.1,3.3,27.06,3.14,40.07-0.5c3.17-0.89,5.98-2.8,7.83-5.52c0.43-0.63,0.81-1.33,0.81-2.1
			c0.01-0.82-0.43-1.58-0.88-2.26c-4.48-6.73-12.47-10.65-20.52-11.29c-8.06-0.63-16.14,1.74-23.26,5.56
			c-2.57,1.38-5.19,3.18-6.77,5.54c-0.8,1.21,0.63,2.63,1.85,1.84c1.9-1.23,3.64-2.77,5.47-4.14c12.71-9.48,31.32-9.96,44.67-1.53
			c1.62,1.02,3.71-0.26,3.6-2.17c-0.27-4.78-4.02-10.12-2.58-14.96c0.88-2.96,3.51-4.99,5.43-7.41s3.08-6.18,0.96-8.42
			c-10.38-1.39-20.45-2.32-30.92-2.55c-3.29-0.07-6.63-0.14-9.82,0.65c-3.16,0.78-6.05,2.38-8.9,3.95
			c-6.06,3.36-12.23,6.79-17.02,11.79c-0.84,0.88-1.71,1.99-1.15,3.28c0.48,1.13,1.75,1.66,2.97,1.51c4.02-0.48,6.81-3.6,9.75-6.16
			c13.1-11.4,32.18-13.22,49.32-10.43c1.11,0.18,2.35,0.45,2.68,1.76c0.31,1.22-0.57,2.44-1.81,2.71c-2.62,0.58-4.42-1.32-6.42-2.59
			c-3.7-2.34-8.32-2.54-12.69-2.66c-7.03-0.2-14.12-0.4-21.03,0.9c-6.91,1.3-13.72,4.25-18.45,9.46c6.03,0.97,11.46-3.29,16.85-6.15
			c12.53-6.65,27.49-6.16,41.66-5.51c1.82,0.08,4.1,0.52,4.54,2.29c0.18,0.72-0.03,1.49-0.39,2.13c-1.48,2.67-5.16,3.31-8.11,2.54
			c-2.95-0.77-5.51-2.58-8.32-3.77c-3.89-1.64-8.2-2.04-12.43-2c-10.07,0.1-20.12,2.65-29.01,7.37c-1.82,0.97-3.85,2.53-3.54,4.56
			c9.48,1.81,18.67-3.38,27.82-6.47c10.95-3.69,22.89-4.4,34.2-2.04c0.88,0.63-0.64,1.74-1.72,1.64c-3.63-0.34-6.99-2.01-10.49-3.06
			c-8.26-2.49-17.27-1.5-25.46,1.22c-8.19,2.72-15.73,7.07-23.2,11.39c6.76-6.17,15.69-9.53,24.71-11.03s18.23-1.25,27.38-0.99
			c1.93,0.05,3.92,0.12,5.7,0.88c1.78,0.76,3.32,2.4,3.38,4.34c0.1,3.35-4.01,6.58-2.18,9.4c0.49,0.76,1.33,1.23,2.21,1.45
			c4.03,1.01,7.75-2,11.76-2.81c4.16-0.84,8.37,0.73,12.41,2.01c1.94,0.62,3.99,1.19,6.01,0.48c0.94-0.33,1.77-0.98,2.21-1.87
			c1.61-3.25-2.68-6.07-5.98-5.45c-3.12,0.58-5.67,2.83-8.66,3.89c-3.54,1.26-7.43,0.8-11.15,0.3c-1.32-3.1,1.8-6.36,4.96-7.51
			c2.4-0.88,5.11-1.16,7.49-0.26c2.39,0.9,4.34,3.18,4.38,5.73c0.04,2.55-2.24,5.05-4.79,4.82c2.64-1,5.59,0.03,8.13,1.27
			c3,1.47,6.06,3.3,9.51,2.49c2.41-0.56,3.81-2.89,3.61-5.36c-0.14-1.79,1.8-3.52,3.16-4.76c1.9-1.73,3.86-3.5,6.27-4.37
			s5.42-0.63,7.14,1.27c0.71,0.78,1.16,1.85,1.03,2.89c-0.14,1.09-0.88,1.99-1.63,2.79c-2.07,2.22-4.79,4.28-7.81,4.03
			c0.98-2.24,3.72-3.01,6.12-3.43c7.65-1.35,15.44-1.88,23.2-1.58c1.48,0.06,3.38,0.51,3.55,1.99c5.4-1.41,11.54,0.37,15.66,4.14
			c-9.3-1.91-18.79-3.83-28.22-2.73s-18.96,5.77-23.48,14.11c-0.49,0.91-1.02,1.94-2,2.26c-1.91-3.57-3-7.57-3.17-11.61
			c-0.05-1.22,0-2.51,0.61-3.57c0.61-1.04,1.68-1.71,2.71-2.34c3.51-2.14,7.03-4.29,10.54-6.43c-2.35,0.86-3.63,3.39-4.3,5.8
			c-0.67,2.41-0.99,5-2.39,7.07c-1.7,2.53-4.74,3.92-6.84,6.06c-0.77,0.78-2.07,0.78-2.8-0.04c-0.15-0.17-0.31-0.32-0.47-0.47
			c-1.84-1.66-4.76,0.19-4.11,2.58c0.66,2.42,2.03,5.01,1.23,7.33c-0.35,1-1.08,1.83-1.51,2.8c-1.38,3.11,0.58,6.67,2.87,9.18
			c2.29,2.51,5.1,4.88,5.83,8.2c0.6,2.7-0.24,5.87,1.48,8.05c2.6,3.29,8.47,1.27,11.58,4.08c-6.48-4.66-9.07-14.03-5.9-21.36
			c0.49-1.14,1.12-2.27,1.2-3.51c0.18-2.56-1.96-4.8-3.25-6.73c-0.82-1.22-2.07-2.15-3.52-2.39c-3.06-0.5-4.35,2.15-4.64,4.52
			c-0.39,3.19,0.46,6.51,2.34,9.12c1.32,1.83,3.13,3.33,4.01,5.41c0.88,2.07,0.71,4.42,0.98,6.66c0.27,2.24,1.24,4.69,3.35,5.48
			c-4.85-6.56-8.55-15.11-5.69-22.76c0.54-1.45,1.31-2.83,1.6-4.34c0.66-3.37-1.12-6.52-3.74-8.91c-1.91-1.74-5.04-0.56-5.28,2.01
			c-0.32,3.49,0.61,7.17,2.14,10.38c1.46,3.06,3.4,5.84,5.32,8.64c0.36,0.53,1.18,0.1,0.95-0.5c-1.39-3.65-2.54-7.38-2.92-11.25
			c-0.56-5.71,0.79-11.88,4.87-15.91c2.37,3.01,2.9,7.36,1.34,10.86c-0.34,0.77-0.78,1.52-0.88,2.35c-0.18,1.48,0.75,2.87,1.83,3.89
			c2.94,2.79,7.08,3.88,10.5,6.07c2.71,1.74,4.91,4.16,7.41,6.19c9.68,7.89,23.14,9.51,35.56,8.19c0.69-0.07,1.4-0.16,1.98-0.55
			c2.23-1.5,3.6-7.43,1.5-12.47"/>
		<path class="st0" d="M241.78,180.85c-10.45,15.52-27.84,25.73-43.29,27.48c-1.98,0.22-4.08,0.34-5.79-0.87
			c-0.78-0.55-1.36-1.38-1.48-2.33c-0.25-2.03,1.44-3.23,3.05-4.04c6.17-3.1,13.25-3.66,19.96-5.31
			C224.48,193.26,234.06,188.06,241.78,180.85c0.86-0.8,0.23-2.22-0.94-2.17c-6.49,0.29-12.52,4.81-18.87,7.08
			c-8.26,2.94-17.83,1.91-25.27-2.73c-0.78-0.49-1.6-1.03-2.53-1.06c-1.59-0.04-2.79,1.44-3.49,2.88c-1.43,2.92-1.98,6.2-3.23,9.21
			c-0.86,2.06-2.2,4.08-3.99,5.33c-0.89,0.62-2.02-0.37-1.52-1.32c3.13-6,7.45-11.37,12.63-15.72c-1.96,4.93-3.92,9.85-5.89,14.78
			c-1,2.52-2.03,5.16-1.8,7.87c0.14,1.71,0.96,3.45,2.22,4.57c0.78,0.69,0.72,1.93-0.19,2.45c-6.63,3.85-10.03,12.28-11.01,20.13
			c-0.92,7.43-0.39,15.09-1.74,22.4c-0.07,0.37-0.61,0.29-0.59-0.08c0.55-7.92-0.4-15.94-2.78-23.51c-1.1-3.49-2.51-6.93-2.79-10.58
			c-0.65-8.36,5.59-16.72,13.8-18.46c0.82-0.17,1.82-0.22,2.32,0.45c0.27,0.37,0.31,0.86,0.29,1.32c-0.12,3.36-2.23,6.27-3.99,9.14
			c-4.85,7.86-7.63,16.97-8,26.2c0.06-6.68,0.12-13.44,1.77-19.91c1.65-6.47,5.06-12.74,10.58-16.5c1.57,3.81-1.77,7.75-4.92,10.39
			c-2.32,1.95-4.91,4.33-5.75,7.06c-0.32,1.04-1.75,1.22-2.32,0.29c-1.62-2.64-2.47-5.78-2.82-8.89c-0.49-4.28-0.13-8.6-0.16-12.91
			c-0.12-14.76-4.86-29.33-3.76-44.05c-5.1,21.11-5.57,43.44-0.46,64.55c1.12,4.63,3.34,9.99,8.03,10.82
			c1.31-2.53,1.18-5.74-0.32-8.16"/>
		<path class="st0" d="M371.85,154.88c3.2,0.55,7.04,0.91,8.89-2.17c0.59-0.98,0.8-2.16,0.69-3.31c-0.27-2.94-2.09-5.19-3.88-7.35
			c-5.31-6.39-10.76-12.65-16.36-18.79c-2.62-2.87-5.33-5.76-8.75-7.59c-6.47-3.46-14.29-2.61-21.52-3.88
			c-5.93-1.04-11.51-3.55-17.4-4.78c-7.36-1.54-15.12-1.01-22.22,1.45c-1.08,0.38-0.74,1.99,0.4,1.91
			c8.47-0.58,16.97-0.7,25.45-0.37c4.89,0.19,10.08,0.47,14.34-1.92c4.27-2.39,6.76-8.6,3.56-12.31
			c-1.71-11.18-11.41-20.62-22.6-22.23c-7.56-1.09-15.16,1.11-22.48,3.28c13.37,0.52,26.74,1.04,40.12,1.56
			c4.05,0.16,8.12,0.32,12.07,1.25c10.93,2.59,20.11,11.52,23.02,22.37c-2.53,2.96-7.55,1.01-10.04-1.98
			c-2.73-3.29-4.42-7.73-8.61-9.23c-0.95-0.34-2.07-0.2-2.83,0.46c-1.87,1.62-0.01,4.6,0.05,7.07c0.12,4.63-5.88,6.46-10.49,6.85
			c-25.61,2.19-51.36,4.38-76.98,2.38c-7.01-0.55-14.04-1.41-21.05-0.82c-10.1,0.84-19.71,4.64-28.9,8.91
			c3.4-3.53,8.32-5.54,13.22-5.4c-8.9,3.2-17.79,6.41-26.69,9.61c-2.4,0.86-4.84,1.75-6.85,3.33c-3.14,2.48-4.72,6.2-5.66,10.18
			c-0.45,1.9,1.91,3.18,3.28,1.78l1.57-1.61c0.51-0.53,1.37,0.11,1,0.75c-3.6,6.21-6.23,12.98-7.74,19.99
			c-0.98,4.55-2.01,9.84-4.97,13.04c-1.41,1.53-4.03,0.83-4.47-1.2c-2.17-9.92,1.76-20.58,5.66-30.22c3.4-8.4,6.8-16.8,10.2-25.2
			c6.11-15.1,12.31-30.35,21.65-43.7c9.34-13.35,22.26-24.82,37.91-29.35c9.35-2.71,19.31-2.85,28.64-5.64
			c1.67-0.5,3.59-1.41,3.78-3.14c-3.32-3.03-8.29-3.69-12.69-2.8c-4.41,0.89-8.41,3.13-12.33,5.34
			c-12.93,7.28-25.86,14.57-38.79,21.85c-5.78,3.25-11.61,6.55-16.46,11.08c-7.75,7.24-12.46,17.12-16.32,26.99
			c-6.06,15.49-10.53,31.91-9.97,48.54c0.36,10.44,2.69,20.68,5.28,30.82c0.28,1.08,1.85,0.94,1.94-0.18
			c0.96-12.05-1.44-24.28-1.82-36.45c-0.79-24.85,7.13-49.9,22.1-69.76c0.94-1.25,2.11-2.34,3.49-3.08c4.72-2.53,7.8,0.84,11.1,3.04
			c7.42,4.93,17.04,4.27,25.95,4.57c12.51,0.42,24.81,3.11,37.15,5.19c21.53,3.63,43.37,5.43,65.21,5.38
			c3.14-0.01,6.68-0.2,8.42-3.24c1.11-1.94,0.97-4.33-0.06-6.32c-1.83-3.54-5.58-5.22-9.27-6.28c-14.05-4.02-29.13-0.9-43.62-2.81
			c-8.98-1.18-17.58-4.28-26.39-6.37c-21.94-5.21-45.86-3.92-65.94,6.33c-11.85,6.04-22.66,15.93-25.66,28.89
			c-0.23,1.01-0.41,2.11,0.05,3.04c0.42,0.86,1.3,1.39,2.17,1.81c12.74,6.23,27.62-1.56,41.8-1.95c9.54-0.26,19.11,3.11,26.47,9.17
			c0.78,0.64,0.04,1.89-0.9,1.51c-14.94-6.07-31.59-7.89-47.48-5.12c-9.11,1.59-18.25,4.82-24.93,11.21
			c-5.22,4.98-8.64,12.18-8.52,19.28c0.03,1.62,2.3,1.96,2.78,0.42c5.62-18.15,8.83-37.13,16.72-54.41
			c5.71-12.5,13.82-23.9,23.75-33.39c10.21-9.76,22.73-17.64,36.67-19.93c8.82-1.45,17.85-0.62,26.73,0.46
			c19.53,2.37,39.62,6.2,55.72,17.5c6.32,4.44,11.88,9.97,16.37,16.26c0.44,0.62-0.39,1.34-0.95,0.83
			c-10.18-9.47-20.89-18.71-33.48-24.11c-2.58-1.1-4.75,2.11-2.79,4.12c1.63,1.67,3.73,3.07,5.7,4.28
			c15.84,9.75,31.04,20.56,45.45,32.33c4.84,3.95,9.65,8.09,13.06,13.32c2.27,3.49,3.85,7.37,5.36,11.25
			c4.9,12.6,9.2,25.44,12.86,38.45c0.71,2.51,0.22,6.47-2.36,6.07c-6.48-4.66-5.42-14.3-5.43-22.28
			c-0.01-18.79-9.67-36.05-19.05-52.33c-3.54-6.15-7.17-12.41-12.44-17.17s-12.55-7.84-19.5-6.37c-0.67,5.39,2.55,10.42,5.62,14.9
			c8.44,12.31,16.88,24.62,25.32,36.93c6.95,10.13,14.16,21.1,14.14,33.39c-3.12-7.71-6.27-15.48-10.98-22.33
			c-4.7-6.85-11.15-12.81-19.04-15.41c0.23,6.86,6.69,11.55,12.19,15.64c8.16,6.08,15.55,13.19,21.94,21.1
			c5.78,7.16,10.86,15.27,12.23,24.37c1.13,7.5-0.76,15.77-5.76,21.29c-1.94,2.14-5.43,1.21-6.07-1.61c-0.6-2.67-0.3-5.63,0.59-8.25
			c1.72-5.07,5.26-9.31,7.63-14.08c0.4-0.81,0.72-1.67,0.89-2.56c1.29-6.75-4.77-9.98-10.06-13.7c-1.11-0.78-2.58,0.31-2.15,1.6
			c3.38,10.21,6.39,20.64,6.36,31.35c-0.03,10.7-3.04,21.93,1.14,31.79c3.93-12.26,6.78-25.18,5.26-37.97
			c-0.96-8.08-3.64-15.85-6.3-23.54c-1.93-5.58-3.86-11.17-5.79-16.75c-0.8-2.32-1.64-4.7-3.23-6.57c-1.74-2.05-4.22-3.29-6.66-4.43
			c-6.49-3.03-13.23-5.74-18.91-10.09c-5.69-4.35-10.31-10.73-10.61-17.89c4.41,4.3,0.72,12.46,4.15,17.58
			c1.24,1.85,3.27,3.03,5.35,3.84c6.89,2.68,15.08,2.07,21.13,6.33c2.69,1.89,4.69,4.59,6.54,7.3c5.33,7.78,9.9,16.08,13.62,24.74
			c5.02-10.24,3.42-22.78-1.68-32.98s-13.33-18.47-21.75-26.17c-8.42-7.7-17.25-15.1-24.08-24.24c-2.78-3.72-5.28-7.78-9.02-10.52
			c-4.29-3.14-9.75-4.19-15.03-4.79c8.64-0.17,15.97,6.02,22.12,12.1c23.29,23.07,43.44,51.87,45.91,84.55
			c-4.96-24.95-21.85-47.24-44.52-58.77c7.66,0.14,14.87,4.09,20.38,9.41c4.55,4.39,8.11,9.67,11.37,15.11
			c0.48,0.8,1.72,0.37,1.6-0.55c-2.45-18.59-10.52-36.42-22.93-50.49c10.33,14.78,20.72,29.65,28.35,45.99
			c7.15,15.33,11.82,32.16,11.13,49.02c-0.08,1.99-2.1,3.32-3.96,2.61c-3.09-1.17-5.76-3.63-7.71-6.37
			c-2.7-3.81-4.37-8.24-6.75-12.26c-6.32-10.7-17.4-17.95-29.18-21.89c-9.39-3.13-21.36-3.24-30.45-4.28
			c-0.81-0.09-0.75-1.3,0.07-1.31c17.53-0.35,36.22,2.37,54.02,5.1c1.71-2.1,1.49-5.28,0.16-7.64c-1.33-2.36-3.55-4.06-5.75-5.63
			c-15.78-11.25-33.97-19.12-52.97-22.9c7.19,3.1,14.37,6.21,21.56,9.31c5.99,2.59,13.48,5.04,18.36,0.14
			c3.03-3.04,3.66-7.71,1.98-11.66c-3.47-8.18-11.54-11.21-18.9-14.62c-11.29-5.24-21.85-12.07-31.25-20.23
			c-1.78-1.54-0.38-4.5,1.94-4.08c6.62,1.19,12.83,5.58,18.36,9.78c8,6.08,16.05,12.2,22.7,19.72c3.44,3.88,7.16,8.46,11.96,9.66
			c1.24,0.31,2.38-0.83,2.05-2.06c-1.82-6.68-6.43-12.42-11.01-17.69c-5.24-6.03-10.72-11.86-16.44-17.44
			c-3.66-3.58-7.5-7.09-12.1-9.32c-7.34-3.55-15.68-3.45-23.91-2.42c-1.94,0.24-2.21,2.93-0.38,3.6c6.12,2.24,12.02,5.07,17.6,8.44
			c13.64,8.23,25.13,19.51,36.49,30.68c5.2,5.12,10.43,10.27,14.75,16.16c4.59,6.27,8.07,13.26,11.53,20.22
			c5.73,11.54,11.47,23.07,17.2,34.61"/>
		<path class="st0" d="M389.07,225.03c3.14-5.23,6.27-10.47,9.41-15.7c1.37-2.28,2.75-4.59,4.68-6.42c1.28-1.21,3.33-2.19,4.71-1.09
			c0.73,0.59,0.98,1.59,1.06,2.52c0.28,3.17-1.57,6.88-4.74,7.17c-0.4,0.04-0.83,0.01-1.14-0.25c-0.29-0.24-0.41-0.62-0.5-0.98
			c-0.45-1.78-0.39-4.03,1.16-5.01c1.78-1.13,4.27,0.42,4.88,2.43s-0.04,4.17-0.69,6.17c-0.28,0.87-0.64,1.82-1.46,2.21
			c-1.26,0.59-2.76-0.67-2.95-2.05s0.48-2.72,1.13-3.95c0.33-0.63,0.72-1.31,1.39-1.53c0.76-0.26,1.62,0.19,2.06,0.85
			s0.58,1.49,0.65,2.28c0.35,3.86-0.3,7.81-1.87,11.36c-0.95,2.14-2.23,4.15-2.84,6.41c-1.6,5.92,1.58,12.77-1.43,18.11
			c0.51-2.47,1.03-4.94,1.54-7.42c-1.69,4.05-3.89,7.88-6.52,11.4c-1.09,1.46-2.32,2.91-3.96,3.7c-1.65,0.79-3.82,0.75-5.1-0.54
			c-1.35-1.36-1.31-3.63-0.51-5.37s2.19-3.12,3.39-4.61c2.92-3.62,4.79-7.99,6.05-12.47c0.37-1.33,0.7-2.72,0.53-4.1
			c-0.17-1.38-0.92-2.76-2.18-3.32c-1.61-0.72-3.58,0.1-4.69,1.47c-1.11,1.37-1.53,3.16-1.83,4.9c-0.18,1.04-0.32,2.12-0.02,3.12
			c0.25,0.83,0.78,1.55,1.12,2.35c0.96,2.29,0.23,4.94-0.82,7.19s-2.43,4.42-2.81,6.87c4.18-7.46,7.66-15.32,10.35-23.43
			c0.11-0.35,0.23-0.73,0.07-1.06c-0.16-0.34-0.55-0.5-0.92-0.57c-2.44-0.46-4.81,2.39-3.92,4.71c0.32,0.82,0.93,1.49,1.34,2.27
			c1.03,1.91,0.78,4.31-0.12,6.29c-0.9,1.98-2.38,3.62-3.83,5.24c-0.72,0.8-1.95,1.65-2.75,0.92c-0.36-0.33-0.44-0.86-0.48-1.35
			c-0.71-8.14,3.11-15.99,3.72-24.14c0.24-3.28-0.04-6.6,0.5-9.85c0.84-5.06,3.65-9.66,7.35-13.21c1.56-1.5,3.43-2.89,5.59-3.06
			c2.16-0.17,4.56,1.37,4.6,3.54c0.04,2.07-1.97,3.62-3.96,4.18c-1.99,0.55-4.13,0.46-6.09,1.12c-4.46,1.49-6.88,6.45-7.29,11.13
			c2.92-3.83,5.85-7.67,8.77-11.5c0.99-1.3,2.12-2.69,3.72-3.01c2.54-0.5,4.66,1.88,6.03,4.07c-2.26-2.22-4.92-4.6-8.08-4.39
			c-3.8,0.25-6.27,4.11-7.49,7.71c-1.22,3.6-2.01,7.65-4.87,10.16c4.09-6.83,8.73-13.46,14.86-18.55c0.88-0.73,1.87-1.46,3.01-1.53
			c1.14-0.07,2.41,0.84,2.28,1.97c-1.69-1.13-3.53-2.31-5.56-2.23c-2.22,0.09-4.09,1.66-5.62,3.27c-3.21,3.39-5.83,7.35-7.7,11.63
			c5.4-3.31,9.01-9.48,15.06-11.39c1-0.32,2.18-0.48,3.04,0.12c0.56,0.38,0.89,1.02,1.15,1.64c1.9,4.46,1.63,9.56,0.68,14.31
			c-0.95,4.76-2.54,9.38-3.22,14.18c-0.47,3.32-0.49,6.69-1.12,9.98c-0.49,2.56-1.34,5.03-1.96,7.56
			c-1.52,6.12-1.73,12.52-3.42,18.6c-0.35,1.25-1.14,2.76-2.43,2.62c-1.2-0.13-1.72-1.59-1.77-2.79c-0.14-3.8,2-7.59,5.32-9.44
			c0.97,3.91-0.71,8.07-3.25,11.2c-2.54,3.13-5.88,5.49-8.93,8.12c-2.18,1.88-4.41,4.65-3.37,7.33c3.12-0.55,5.48-3.82,5.03-6.95
			c-1.38-0.48-2.98-0.27-4.2,0.54c-0.62,0.41-1.44,0.98-1.99,0.48c-0.22-0.2-0.3-0.51-0.36-0.8c-0.55-2.63-0.81-5.33-0.77-8.02
			c0.55,11.87-0.1,22.15-1.82,33.91c-0.48,3.27-1.29,6.91-4.07,8.7c-1.08-1.52-1.17-3.51-1.15-5.38c0.06-7.46,1.07-14.92,3-22.13
			c1.81,1.62,2.24,4.24,2.57,6.64c0.51,3.69,1.01,7.47,0.24,11.12c-0.52,2.47-1.61,4.78-2.68,7.07c-2.05,4.36-4.57,8.6-5.39,13.35
			c-0.81,4.66-4.39,8.2-5.94,12.63c-3.38,9.67,2.33,20.71-0.85,30.45c-0.84,2.56-2.25,4.88-3.65,7.18
			c-5.19,8.51-12.7,15.22-19.49,22.51c-11.63,12.49-28.15,19.06-41.8,29.29c-5.5,4.12-10.57,8.87-16.51,12.34s-13.07,5.6-19.72,3.87
			c-10.97-12.22-24.93-21.27-37.92-31.32c-12.99-10.05-25.49-21.77-31.63-37.01c-4.88-12.11-5.5-24.16-5.9-37.21"/>
		<path class="st0" d="M352.47,478.17c-1.52,8.18-4.42,16.11-8.52,23.36c-0.73,1.3-2.71,0.54-2.43-0.92
			c0.98-5.18,1.48-10.49,2.53-15.66c1.81-8.96,5.23-17.51,7.41-26.39c2.45-9.93,3.34-20.2,5.74-30.15
			c2.87-11.9,7.83-23.14,11.21-34.89c1.72-5.97,2.98-12.02,3.42-18.23c0.14-2.01,1.89-13.79,1.05-14.6
			c-1.07-1.02-2.62,0.78-2.72,2.26c-0.3,4.57,2.9,8.58,5.88,12.02c3.22,3.71,6.49,7.36,9.85,10.94c3.91,4.17,7.97,8.25,12.69,11.48
			c4.75,3.25,10.07,5.56,15.35,7.86l10.84,4.71c2.78,1.21,5.76,1.86,8.79,2.04c4.94,0.3,10.89,3.14,14.85,5.08
			c15.14,7.4,29.61,16.16,43.18,26.15c4.55,3.35,9.02,6.85,14.01,9.51c3.62,1.93,7.47,3.39,11.31,4.85l9.13,3.47
			c1.32,0.5,0.65,2.5-0.7,2.09c-1.72-0.52-3.41-1.13-5.07-1.84c-5.06-2.16-9.72-5.16-14.65-7.59c-7.26-3.57-15.11-5.9-22.18-9.84
			c-6.08-3.39-11.45-7.91-17.4-11.51c-16.82-10.18-37.86-12.85-53-25.39c-8.61-7.13-14.65-16.95-23.22-24.12
			c-4.69-3.92-10.09-6.99-15.86-9.02c-1.76-0.62-3.7-0.46-5.39,0.33c-2.25,1.06-4.92,1.92-6.67,3.21
			c-14.62,10.82-29.23,21.64-43.85,32.45c-10.98,8.12-22.03,16.32-31.22,26.42c-0.53,0.58-1.07,1.23-1.12,2.01
			c-0.04,0.73,0.37,1.4,0.77,2.01c7.05,10.92,14.1,21.84,21.15,32.75c2.58,3.99,5.16,7.98,7.39,12.17
			c3.46,6.47,6.08,13.36,8.69,20.22c3.88,10.2,7.76,20.41,11.65,30.61c-11.04-29.56-24.44-58.24-40.03-85.68
			c-1.47-2.58-3.85-4.55-6.68-5.45c-5.92-1.88-11.96-3.23-18.15-3.77c-5.8-0.5-11.92-0.94-17.16,1.6c-3.21,1.56-5.81,4.12-8.35,6.64
			c-7.6,7.54-15.2,15.08-22.8,22.62c-6.22,6.17-12.52,12.45-17.13,19.85c-0.4,0.65,0.42,1.35,0.99,0.85l20.59-18.27
			c4.65-4.13,9.31-8.27,13.31-13.03c6.24-7.44,11.44-16.83,20.66-19.89c3.97-1.32,8.25-1.25,12.44-1.18
			c4.7,0.08,9.55,0.2,13.82,2.18c5.64,2.62,9.36,8.05,12.79,13.23c1.16,1.75,2.34,3.56,2.72,5.62c0.68,3.69-1.33,7.29-3.27,10.51
			c-2.88,4.79-5.77,9.59-8.65,14.38c-2.04,3.4-4.09,6.79-6.13,10.19c-2.48,4.12-5.3,8.53-9.83,10.14
			c-7.6,2.71-16.07-3.73-23.81-1.46c1.91-10.99,2.53-22.21,1.85-33.34c-0.4-6.57-1.59-13.76-6.62-18.01c2.34-0.59,4.16,2.03,5,4.3
			c5.44,14.74,2.53,31.09-0.44,46.53c-0.75,3.92-1.52,7.87-3.18,11.5c-3.27,7.16-9.77,12.49-12.46,19.99
			c-0.43,1.19-0.63,2.47-0.48,3.73c0.55,4.47,4.42,5.35,7.83,5.86c11.19,1.69,22.54,2.47,33.83,1.76c1.87-0.12,4-0.42,5.04-1.98
			c0.74-1.12,0.71-2.62,0.67-3.88c-0.09-2.78-0.71-5.5-1.67-8.11c-3.55-9.7-2.86-20.8,1.73-30.03c0.45,0.2-0.33,0.86-0.63,0.47
			c-0.3-0.39-0.04-0.95,0.22-1.37c6-9.54,11.99-19.09,17.99-28.63c2.35-3.74,0.9-9.05-0.42-13.27
			c-2.75-8.76-12.68-12.92-21.69-14.66c-4.56-0.88-9.3-1.43-13.83-0.41s-8.87,3.84-10.69,8.12c-0.71,1.66-0.89,3.85,0.47,5.02
			c0.72,0.62,1.73,0.81,2.68,0.86c4.93,0.29,9.53-2.17,14.28-3.51c5.39-1.52,11.4-1.55,16.36,1.05c4.96,2.59,8.54,8.16,7.78,13.7
			c-0.33,2.44-1.56,4.89-3.96,5.88c-0.68,0.28-1.43,0.39-2.16,0.32c-2.64-0.25-3.44-2.26-4.29-4.08c-1.84-3.98-4.32-7.67-7.32-10.87
			c-1.33-1.42-3.07-2.46-5-2.75c-3.74-0.56-5.36,2-6.78,4.38c-1.39,2.32-2.78,4.64-4.18,6.96c-1.7,2.83-3.45,5.81-3.26,9.2
			c0.11,2.05,1.04,4.02,2.79,5.09c2.68,1.63,5.55,0.21,8.26-0.68c2.32-0.77,5.31-0.97,6.77,0.98c0.63,0.84,0.83,1.91,1.02,2.94
			c0.92,5.13,1.14,11.76-3.53,14.08l-2.3-21.2c-0.08-0.71-0.3-1.41-0.75-1.96c-1.4-1.74-3.56-0.78-5.05,0.36
			c-4.29,3.3-7.24,8.3-8.06,13.65c4.97,0.76,10.26-1.23,13.5-5.07c-0.97,2.56-4.19,3.21-6.81,4c-2.64,0.79-5.58,3.21-4.47,5.75
			c0.53,1.19,1.78,1.88,3.08,1.98c2.76,0.2,5.04-1.55,7.66-1.84c-3.55,0.03-7.1,0.07-10.65,0.1c4.09,0.79,8.29,1.02,12.45,0.69
			c-4.6,0-9.2,0.01-13.8,0.01c-1.5,0-3.57,0.65-3.27,2.12c5.31,3.25,12.27-0.7,18.36,0.6c0.84,0.18,1.71,0.46,2.55,0.26
			c1.27-0.31,2.02-1.6,2.61-2.77c6.01-11.79,12.03-23.58,18.04-35.37c-2.98,6.13-3.58,13.16-6.16,19.47
			c-2.49,6.09-6.71,11.27-10.88,16.36c-0.71-18.03,9.33-34.72,11.75-52.6c0.21-1.52,0.03-3.1-0.62-4.49
			c-2.23-4.73-7.75-3.81-11.94-2.27c-4.81,1.76-9.47,3.95-13.9,6.52c-1.74,1.01-3.51,2.15-4.51,3.88c-2.27,3.9,0.16,8.75,2.53,12.6
			c3.89,6.33,7.73,12.74,10.05,19.83c0.65,1.98,0.38,4.2-0.92,5.82c-2.37,2.97-5.89,1.62-7.83-0.59
			c-3.87-4.43-2.97-11.23-1.06-16.79c2.28-6.62,5.9-13.11,11.9-16.78c0.84-0.51,1.78-0.86,2.76-0.86c2.29,0,2.87,1.56,3.31,3.02
			c1.74,5.84,2.25,12.04,1.49,18.09c-0.34,2.7-1.21,5.75-3.69,6.89c-4.17-8.05,5.15-17.7,2.3-26.44c-1.2-3.68-4.4-6.35-8.15-7.32
			c-7.18-1.85-14.05,3.33-16.08,9.94l-1.14-8.91c-1.16-1.21-3.41,0.13-3.6,1.8s0.87,3.2,1.87,4.54c1.88,2.52,3.8,5.08,6.32,6.97
			c1.06,0.79,2.23,1.48,3.08,2.5c2.92,3.53,0.64,8.75-1.34,12.89c-3.53,7.38-5.8,15.36-6.69,23.49c4.64-0.34,9.32-0.09,13.9,0.74
			c2.7,0.49,5.43,1.19,8.15,0.85c2.72-0.34,5.51-2.02,6.16-4.69c-3.83,4.37-6.01,10.14-6.06,15.95c-0.02,1.88-1.99,3.03-3.64,2.14
			c-6.12-3.32-13.18-4.91-20.13-4.53c-0.23-1.22-1.29-2.23-2.51-2.42c4.19-1.92,8.85,0.94,13.29,2.2c5.64,1.6,12,0.41,16.68-3.13
			c-3.21,12.55-6.27,26.51-0.09,37.89c-2.96,0.71-5.78-1.37-8.27-3.12c-2.48-1.73-5.84-3.26-8.37-1.63
			c-0.05,0.93-0.07,1.31-0.12,2.24c1.9,1.45,4.6-0.33,5.94-2.3c3.75-5.54,3.59-13.44-0.38-18.83c-0.86-1.17-2-2.31-3.94-1.49
			c-0.82,0.35-1.49,0.99-1.97,1.74c-3.62,5.64-3.13,13.53,1.04,18.75c-2.4,2.67-7.3,0.8-8.66-2.53s-0.25-7.11,1.13-10.42
			c2.3-5.5,5.34-10.68,9.03-15.35c4.38,3.12,6.93,8.31,7.97,13.59c1.04,5.28,0.74,10.72,0.43,16.09c2.75,0.58,5.23-1.89,6.43-4.43
			c1.99-4.22,2.08-9.3,0.23-13.58c-2.64-6.1-8.62-10-14.48-13.13c-1.93-1.03-3.99-2.04-6.17-1.98c-1.49,0.04-2.93,0.58-4.23,1.31
			c-3.24,1.81-5.79,4.82-7.03,8.31c-0.83,2.34-1.09,4.83-1.49,7.28c-1.17,7.19-3.6,14.18-7.15,20.55
			c1.03-9.54,3.89-18.87,8.39-27.34c-5.05,4.8-8.6,11.16-10.03,17.98c5.51-9.19,9.98-19,13.29-29.18c0.62-1.9,1.24-3.89,2.67-5.28
			c4.34-4.26,11.82-0.05,17.65-1.78c4.66-1.38,7.27-6.19,9.38-10.57l12.02-24.88c1.02-2.11,1.61-4.44,1.5-6.78
			c-0.38-8.5-8.69-10.31-15.57-10.55"/>
		<path class="st0" d="M250.54,386.37l-4.52-0.52c-1.41-0.16-2.65,0.9-2.72,2.31c-0.15,3.03-0.34,6.06-0.55,9.09
			c-0.09,1.27-1.66,1.83-2.52,0.89c-2.77-3.03-3.81-7.81-6.45-11.18c-2.5-3.19-6.35-4.97-9.5-7.52
			c-8.95-7.23-11.87-20.18-21.12-27.02c-1.99,7.37,1.96,15.1,7.02,20.83c5.06,5.73,11.34,10.4,15.57,16.76
			c2.15,3.23,3.72,6.84,6.08,9.92c1.75,2.29,4.1,4.32,6.79,5.22c2,0.67,3.96-0.9,3.77-3c-0.14-1.55-0.86-3.12-1.89-4.31
			c-1.85-2.14-4.49-3.41-6.91-4.87c-5.96-3.61-10.98-8.75-14.44-14.79c-0.55-0.95-1.08-2.03-0.07-3.22c0.5-0.59,1.22-0.95,1.97-1.12
			c5.57-1.26,11.08,2.07,14.87,6.25c3.65,4.02,6.26,8.9,9.96,12.88c3.7,3.98,9.06,7.09,14.37,5.99c2.74-0.57,5.13-2.17,7.71-3.24
			c2.58-1.07,5.75-1.52,8.03,0.11c1.2,0.86,1.97,2.18,2.61,3.51c1.31,2.74,2.18,5.68,2.56,8.69c0.49,3.88,0.23,8.03,2.59,11.3
			c1.33,1.85,3.54,2.96,5.79,2.59c2.52-0.41,3.25-2.28,3.92-4.06c1.99-5.28,3.99-10.65,7.38-15.16s8.42-8.12,14.05-8.44
			c2.52-0.14,5.03,0.37,7.55,0.32c5.46-0.11,10.59-2.89,14.59-6.61c4-3.72,7.02-8.34,10.01-12.91c5.78-8.85,11.68-18.39,18.47-26.49
			c1.14,5.99,1.89,12.26,0.14,18.1s-6.61,11.12-12.68,11.64c-4.32,0.37-8.45-1.62-12.61-2.84c-7.71-2.25-17.12-1.35-22.23,4.85
			c-4.52,5.48-4.44,13.26-4.9,20.35c-0.17,2.7-0.6,5.68-2.69,7.42c-1.03,0.86-2.36,1.29-3.68,1.56
			c-10.69,2.17-22.12-7.34-21.94-18.24c-1.44,6.74,0.79,13.66,2.99,20.19c0.45,1.32,0.91,2.68,1.77,3.78
			c2.2,2.81,6.48,3.19,9.8,1.88c3.32-1.31,5.93-3.91,8.51-6.38c11.41-10.92,24.22-20.38,38.01-28.08c4.2-2.35,8.62-4.63,11.65-8.36
			c2.07-2.54,3.36-5.62,4.45-8.71c2.61-7.4,4.2-15.17,4.71-23c-0.66,24.11-16.38,46.3-37.23,58.41
			c-6.68,3.88-13.94,6.91-19.87,11.86c-6.25,5.2-11.25,12.61-19.1,14.73c-0.93,0.25-2.04,0.39-2.78-0.23
			c-0.54-0.45-0.74-1.18-0.89-1.87c-1.81-8.32-0.37-17.31,3.95-24.66c1.16-1.97,2.61-3.9,4.69-4.83c1.63-0.73,3.47-0.78,5.24-1.02
			c7.1-0.95,13.33-5.06,19.28-9.06c13.44-9.03,27.07-18.23,37.54-30.58c1.59-1.87,3.19-4.29,2.39-6.61
			c-8.82-0.44-17.49,3.09-24.6,8.32c-7.12,5.23-12.87,12.07-18.3,19.03c-6.15,7.89-13.01,16.68-22.89,18.22
			c-7.22,1.12-14.32-1.97-21.33-4.04s-15.37-2.89-20.9,1.88c7.4,0.41,14.58-2.35,21.95-3.19c7.36-0.84,16.06,1.06,19.41,7.67
			c1.54,3.05,1.67,6.62,1.48,10.03c-0.27,4.94-1.15,9.84-2.6,14.57c6.76-0.58,12.04-5.84,16.68-10.79
			c8.25-8.78,16.61-17.72,22.08-28.46c2.35-4.62,4.13-9.51,6.51-14.11c4.18-8.06,10.23-15.15,17.53-20.55
			c3.88,5.02,3.28,12.38,0.33,18c-2.95,5.61-7.83,9.92-12.45,14.27c-8.03,7.55-15.57,15.61-22.58,24.12
			c17.54-14.1,28.94-34.27,39.91-53.92c-14.94,8.03-28.51,18.61-39.94,31.14c-4.68,5.13-9.15,10.7-15.24,14.02
			c-2.47,1.34-5.6,2.92-5.31,5.85c0.14,1.4,1.11,2.56,2.38,3.17c2.29,1.11,4.77,0.6,7.14,0.09c0.42-5.02-1.17-10.18-4.35-14.09
			c-1.1-1.35-2.4-2.6-3.02-4.23c-1.05-2.81,0.23-5.94,1.82-8.49c10.02-16.04,30.82-21.15,45.28-33.33c2.07,4.46-1.2,9.54-4.72,12.98
			c-9.46,9.23-21.85,15.01-34.61,18.46s-26,4.7-39.16,5.94c-3.59,0.34-7.26,0.67-10.78-0.14c-4.32-1-8.05-3.65-11.86-5.92
			c-6.33-3.77-13.2-6.64-20.34-8.48c-2.57-0.67-4.7,2.18-3.3,4.45c0.38,0.61,0.84,1.18,1.36,1.67c1.89,1.79,4.41,2.74,6.88,3.55
			c12.03,3.94,24.68,5.51,37.25,7.05c4.69,0.58,9.4,1.15,14.13,1.07c14.26-0.26,27.83-6.55,39.38-14.92s21.42-18.78,31.72-28.63
			c1.32-1.26,2.8-2.59,4.62-2.73c2.06-0.16,3.93,1.27,5.16,2.93c6.07,8.14,2.57,22.97,7.37,31.92"/>
		<path class="st0" d="M238.16,289.43c-2.45,1.41-3.76,4.45-6.4,5.49c-3.08,1.22-7.02-0.7-9.71,1.25c-0.73,0.53-1.25,1.29-1.74,2.04
			c-1.78,2.77-3.23,5.76-4.3,8.88c-0.13,0.38-0.26,0.79-0.17,1.19c0.16,0.7,0.96,1.08,1.68,1.08c1.59,0,2.89-1.33,3.59-2.76
			c0.7-1.43,1.01-3.03,1.75-4.44c1.05-2,2.99-3.5,5.18-4.04c1.75-0.43,3.61-0.25,5.34-0.75c0.5-0.14,0.99-0.38,1.43-0.68
			c1.38-0.93,0.43-3.06-1.2-2.72c-6.04,1.29-11.65,4.57-15.68,9.25c-0.01,0.02-0.03,0.03-0.04,0.05c-1.48,1.73,1.1,4.06,2.65,2.4
			c0.27-0.29,0.52-0.6,0.76-0.91c1.18-1.57,2-3.37,3.11-4.99c1.7-2.48,4.07-4.49,6.77-5.8c1.24-0.6,2.65,0.41,2.56,1.78l-0.3,4.34
			c-0.12,1.78-0.21,3.7,0.73,5.22c1.27,2.05,4.06,2.77,5.28,4.85"/>
		<path class="st0" d="M212.45,360.69c-4.6-3.85-9.25-15.65-12.54-20.67c-1.8-2.74-3.16-5.76-5-8.48c-0.44-0.64-0.95-1.31-1.86-1.27
			c-0.74,0.03-1.39,0.56-1.69,1.24c-0.53,1.18-0.16,2.47,0.24,3.65c3.83,11.24,11.43,21.15,21.24,27.83
			c0.62,0.43,1.35-0.36,0.9-0.96c-5.93-7.92-7.42-18.82-6.76-28.88c0.19-2.86,0.64-5.94,2.09-8.33c0.46-0.76,1.62-0.49,1.67,0.4
			c0.19,3.41,1.2,8.97,1.43,10.15c1,5.27,3.19,9.31,6.39,13.6c6.19,8.3,13.02,16.35,21.69,22.01c8.68,5.65,19.5,8.7,29.55,6.23
			c17.3-4.24,27.89-22.98,45.78-26.63c2.66-0.54,5.18-1.77,6.96-3.82c5.58-6.43-0.66-12.81-6.83-14.33
			c-10.17-2.5-20.38,2.82-30.4,5.85c-12.72,3.85-26.52,4.03-39.33,0.52c17.31,3.32,35.13,2.43,52.7,1c3.67-0.3,7.64-0.56,10.37,2.76
			c2.65,3.23,2.53,7.86,0.22,11.34c-4.25,6.39-12,7.63-19.13,8.58c12.89,1.01,26.12-3.55,35.66-12.27
			c17.27-15.79,21.44-42.81,39.95-57.12c0-4.25-0.2-8.86-0.2-13.11"/>
		<path class="st0" d="M294.76,258.69c-1.54-0.42-3.02-1.05-4.39-1.87c-1.56-0.94-3.01-2.19-3.77-3.85
			c-0.48-1.03-0.66-2.17-0.84-3.3c-0.45-2.8-0.9-5.59-1.35-8.39c-0.19-1.18-0.66-2.63-1.84-2.75c-1.45-0.15-2.08,1.8-2.09,3.26
			c-0.02,5.4,1.8,11.47,6.66,13.83c3.26,1.58,7.56,1.34,9.87,4.13c-2.42-1.83-5.08-3.37-7.33-5.41c-4.03-3.65-6.57-8.91-6.93-14.34
			c-0.05-0.72-0.23-1.64-0.94-1.75c-1.14,4.92-0.52,10.22,1.7,14.75c0.98,2,2.36,3.93,4.38,4.88c1.17,0.55,2.46,0.73,3.71,1.03
			c2.33,0.56,4.55,1.56,6.51,2.92c-1.15-2.17-3.24-3.64-5.26-5.04c-0.76-0.52-1.56-1.06-2.47-1.18c-1.11-0.14-2.19,0.38-3.3,0.54
			c-2.68,0.38-5.17-1.32-7.8-1.94c-2.7-0.64-5.52-0.13-8.3-0.16c-0.86-0.01-1.78-0.09-2.47-0.6c-1.73-1.27-0.94-3.94-0.35-6.01
			c0.75-2.67,0.84-5.52,0.26-8.23c-0.19-0.87-0.62-1.88-1.5-2c-0.42-0.06-0.84,0.12-1.21,0.34c-3.3,1.97-3.46,6.61-5.23,10.03
			c-1.79,3.46-5.38,5.78-6.95,9.34c2.32,1.72,5.85,0.59,7.67-1.65c1.82-2.24,2.37-5.23,2.82-8.08s0.9-5.84,2.6-8.18
			c0.79,0.13,1.04,1.13,1.12,1.92c0.33,3.42,0.62,7.08-1.07,10.08c-0.95,1.69-2.45,3-3.95,4.23c-2.98,2.45-6.07,4.75-9.16,7.06
			c-2.3,1.71-4.64,3.45-7.31,4.49c-2.93,1.14-6.38,1.54-8.46,3.89"/>
		<path class="st0" d="M215.52,545.02c-5.31-23.42-10.62-46.85-15.93-70.27c-1.04-4.58-2.08-9.16-3.11-13.73
			c-2.83-12.48-5.66-24.97-9.18-37.27c-1.56-5.44-3.25-10.86-4.18-16.44c-2.5-15.12,0.92-30.81,7.97-44.47
			c1.06-2.06,4.13-1.58,4.54,0.7c0.33,1.82,0.57,3.68,1.19,5.64c1.95,6.18,6.81,10.92,11.05,15.82c4.48,5.19,8.42,10.84,13.02,15.92
			c4.84,5.35,10.36,10.03,15.86,14.69c9.13,7.73,18.27,15.47,27.4,23.2c-12.63,11.49-25.25,22.98-37.88,34.47
			c-6.52,5.93-13.84,12.2-22.64,12.46c-0.54,0.02-1.1,0-1.58-0.25c-0.65-0.35-1.01-1.06-1.31-1.74
			c-6.97-15.7-8.28-33.33-14.14-49.47c-1.21-3.34-2.62-6.62-3.4-10.08c-0.74-3.28-0.89-6.66-1.11-10.01
			c-0.63-9.85-1.78-19.73-0.83-29.56c0.95-9.82,4.22-19.79,11.2-26.77c-8.38,11.68-17.83,22.58-28.21,32.52
			c-1.72,1.64-3.29,3.43-4.93,5.15c-1.08,1.14-2.39,2.04-3.84,2.63c-10.98,4.4-18.23,14.19-22.94,25.33
			c-5.83,13.79-8.43,28.89-16.35,41.78c-2.26,3.67-3.75,7.75-4.21,12.04c-0.1,0.92-0.23,2.01,0.3,2.83c0.43,0.66,1.2,1.01,1.93,1.31
			c4.67,1.96,9.46,3.9,13.38,7.11c4.29,3.52,7.65,8.61,12.99,10.12c-11.19,8.25-20.83,18.59-28.27,30.34
			c-1.33,2.1-2.62,4.33-2.93,6.79s0.6,5.25,2.77,6.46c-2.4-6.31,2.17-12.94,6.47-18.14c5.83-7.05,11.66-14.11,17.49-21.16
			c0.89-1.07,1.79-2.19,2.17-3.52c0.92-3.33-1.83-6.65-4.93-8.16c-3.1-1.51-6.66-1.93-9.75-3.47c-6.15-3.07-9.43-10.24-9.56-17.11
			c-0.13-6.87,2.36-13.51,5.23-19.75c7.91-17.23,18.84-32.86,29.98-48.24c1.07-1.48-0.32-3.48-2.07-3
			c-33.91,9.33-67.06,21.52-98.25,37.76c-2.42,1.26-4.92,2.64-7.09,4.32c-3.53,2.72-0.95,8.39,3.41,7.46
			c4.83-1.02,9.6-3.56,14.01-5.96c23.81-12.95,49.08-23.19,75.18-30.48c0.88-0.25,1.36,1.01,0.55,1.42
			c-15.96,7.96-32.59,14.61-48.27,23.12C70.79,446,55.57,456.9,44.97,471.47c-1.49,2.05,0.97,4.64,3.1,3.27l0.06-0.04
			c26.71-17.31,49.38-40.79,77.17-56.11c1.35-0.74,2.78,0.89,1.86,2.13c-9.47,12.83-22.71,22.59-34.91,33.02
			c-15.36,13.12-29.45,27.72-42.04,43.52c-1.1,1.38,0.75,3.18,2.1,2.04c19.43-16.41,36.21-36.26,57.48-49.93
			c0.83-0.53,1.74,0.57,1.05,1.27c-18.52,18.93-36.87,39.26-45.13,63.91c-0.54,1.61,1.6,2.72,2.6,1.34
			c10.58-14.64,21.8-28.82,33.63-42.48c0.49-0.56,1.36,0.09,0.96,0.72c-8.76,13.75-18.96,26.86-25.21,41.64
			c-0.44,1.03,1.06,1.75,1.59,0.76c5.62-10.35,11.96-20.34,20.57-28.06c1.12-1,2.82,0.18,2.25,1.57l-4.86,11.74
			c-0.32,0.78,0.75,1.35,1.22,0.66c3.9-5.79,8.53-11.08,13.76-15.7c1.07-0.94,2.67,0.26,2.06,1.55l-9.74,20.65
			c-0.45,0.96,0.71,1.87,1.53,1.2h0c0.92-0.75,2.21,0.3,1.65,1.36c-4.09,7.75-6.25,16.52-6.19,25.29
			c10.16-7.26,18.3-16.93,26.33-26.5c-9.29,9.14-14.66,17.28-17.68,29.96c2.65-15.87,14.03-24.14,24.81-36.1
			c21.09-23.41,37.2-51.23,59.85-73.07c0.45-0.44-0.06-1.16-0.62-0.89c-6.81,3.31-12.33,8.99-17.62,14.51
			c-7.7,8.04-15.41,16.09-22.25,24.87c-5.87,7.55-11.07,15.6-16.25,23.64l-26.72,41.42c-0.48,0.75-0.71,1.67-0.49,2.54
			c0.4,1.57,1.92,1.78,3.24,1.84c15.73,0.75,31.47-4.8,47.06-2.56c5.92,0.85,11.61,2.81,17.42,4.25
			C190.9,543.75,202.96,546.66,215.52,545.02z"/>
	</g>
</g>
</svg>
