<?xml version="1.0" encoding="utf-8"?>
<!-- Generator: Adobe Illustrator 26.0.3, SVG Export Plug-In . SVG Version: 6.00 Build 0)  -->
<svg version="1.1" xmlns="http://www.w3.org/2000/svg" xmlns:xlink="http://www.w3.org/1999/xlink" x="0px" y="0px"
	 viewBox="0 0 566.93 566.93" style="enable-background:new 0 0 566.93 566.93;" xml:space="preserve">
<style type="text/css">

</style>
<g id="Layer_1">
</g>
<g id="Layer_2">
	<g>
		<path class="st0" d="M311.32,195.13c3.59-2.08,8.59-3.26,12.66-4.04c3.54-0.67,4.52-5.25,1.51-7.23l-0.07-0.05
			c-10.79-7.04-22.82-14.38-35.6-12.75c-5.28,0.68-10.27,2.88-14.94,5.4c-0.88,0.48-1.7,1.08-2.33,1.87
			c-3.04,3.8,0.32,7.9,3.66,10.25c8.42,5.94,19.05,8.67,29.29,7.53c7.04-0.78,13.79-3.31,20.81-4.28c2.2-0.3,4.47-0.47,6.46-1.46
			c1.99-0.99,3.64-3.07,3.32-5.26c-0.16-1.13-0.81-2.13-1.46-3.06c-1.55-2.2-3.26-4.28-5.14-6.2c-9.21-9.42-22.53-14.66-35.68-14.05
			c-13.16,0.61-29.32,17.28-34.22,17.31c-2.22-0.52,0.69-2.9,1.74-4.02c2.59-2.78,5.24-5.55,8.44-7.59c2.86-1.83,4.82-3.2,7.84-4.86
			c13.82-7.6,26.63-7.85,39.05-3.12c5.36,2.04,9.95,5.67,14.17,9.55c2.86,2.63,5.64,5.46,7.43,8.92c1.79,3.45,2.48,7.65,1.04,11.27
			c-1.69,4.25-5.91,6.93-9.92,9.04c-4.53,2.38-9.27,4.36-14.16,5.85c-4.29,1.31-8.72,2.33-13.21,2.51
			c-11.01,0.43-21.31-4.16-31-9.75c-1.66-0.96-3.15,1.44-1.59,2.55c1.31,0.93,2.71,1.73,4.16,2.41c4.51,2.13,9.44,3.19,14.33,4.16
			c4.34,0.86,8.72,1.66,13.14,1.8c9.46,0.3,18.66-2.43,27.33-6.41c2.62-1.2,4.95,2.11,2.93,4.17l-0.08,0.08
			c-7.4,7.53-15.26,15.34-25.39,18.34c-8.89,2.64-18.52,1.19-27.38-1.56c-7.44-2.31-14.8-5.72-20.64-10.76
			c-1.18-1.02-2.86,0.51-1.9,1.75c3.13,4.05,7.43,7.29,12.08,9.48c7.64,3.59,16.2,4.71,24.62,5.26c3.02,0.2,6.09,0.33,9.05-0.3
			c3.28-0.7,6.29-2.31,9.23-3.92c5.61-3.08,11.2-6.3,16.05-10.48c11.02-9.48,17.63-23.88,17.66-38.42
			c0.02-13.79-5.51-26.9-10.95-39.57c-0.46-1.06-0.93-2.16-1.78-2.94c-0.98-0.9-2.33-1.27-3.62-1.6c-3.3-0.86-6.61-1.72-9.91-2.58
			c-3.83-1-7.66-2-11.55-2.69c-4.55-0.82-9.18-1.23-13.8-1.21c-12.69,0.03-26.55,4.1-33.26,14.87c-0.42,0.67-0.82,1.45-0.1,2.24
			c0.51,0.56,1.34,0.72,2.07,0.5c20.59-6.22,42.48-8.09,63.83-5.47c2.82,0.35,3.98-3.56,1.39-4.74c-0.03-0.02-0.07-0.03-0.1-0.05
			c-12.83-5.69-27.47-5.2-41.46-3.96c-5.77,0.51-12.16,1.45-15.83,5.94c-0.51,0.62-0.97,1.38-0.84,2.17
			c0.16,1.04,1.24,1.65,2.24,1.99c3.39,1.13,7.07,0.74,10.63,0.39c11.74-1.18,23.78-1.85,35.15,1.3c2.5,0.69,4.98,1.57,7.56,1.75
			c3.25,0.22,6.48-0.67,9.52-1.87c1.14-0.45,2.32-0.98,2.41-2.74c0.06-1.18-0.45-2.32-1.24-3.19c-3.38-3.72-9.04-3.56-13.99-3.16
			c-11.74,0.96-23.48,1.92-35.21,2.88c-1.77,0.14-2.1-2.48-0.35-2.76c2.48-0.4,5.06-0.48,7.55-0.53c7.6-0.15,15.46-0.27,22.5,2.6
			c2.26,0.92,4.41,2.14,6.76,2.8c3.93,1.1,8.14,0.54,12.16,1.23c5.72,0.97,10.75,4.38,15.72,7.18c6.91,3.9,13.68,8.06,20.17,12.63
			c4.15,2.92,8.43,6.02,11.24,10.29c4.95,7.52,4.56,17.29,4.22,26.22c-0.11,2.94,0.91,5.81,2.88,7.99c0.35,0.39,0.79,0.81,1.33,0.83
			c0.65,0.02,1.15-0.57,1.53-1.1c2.92-4.07,5.67-8.5,9.94-11.13c4.2-2.59,9.32-3.08,14.24-3.35c3.61-0.2,7.36-0.28,10.67,1.17
			c6.27,2.76,9.12,10.63,7.78,17.34c-0.2,0.99-0.48,1.99-1.03,2.84c-0.85,1.31-2.28,2.15-3.76,2.64c-5.44,1.79-11.3-0.67-16.3-3.45
			c-5-2.78-10.14-6.05-15.86-5.97c-1.22,0.02-2.44,0.19-3.64-0.04c-1.76-0.33-3.54-1.78-2.5-4.09c0.33-0.74,0.88-1.35,1.52-1.85
			c5.36-4.15,11.67-7.06,18.31-8.44c4.82-1,9.91-1.19,14.59,0.35c6.16,2.03,11.5,7.39,11.23,14.41c-0.06,1.71-0.52,3.4-1.35,4.89
			c-3.25,5.89-9.9,6.32-15.43,4.73c-4.09-1.18-7.83-3.33-11.8-4.86c-3.57-1.37-7.33-2.22-11.14-2.52c-1.04-0.08-2.18-0.18-3.24-0.41
			c-1.56-0.33-2.62,1.56-1.5,2.7c0.61,0.61,1.26,1.19,1.9,1.72c2.14,1.79,4.3,3.6,6.76,4.91c3.27,1.73,6.96,2.52,10.36,3.98
			c5.39,2.32,10.38,6.41,16.25,6.3c1.64-0.03,3.33-0.43,4.61-1.45c1.29-1.02,2.08-2.74,1.71-4.34c0.95,3.37-2.16,6.8-5.59,7.48
			c-3.43,0.68-6.92-0.6-10.15-1.96c-7.52-3.18-14.79-6.97-21.71-11.31c-0.9-0.56-1.87,0.62-1.15,1.39c4.57,4.91,9.71,9.28,15.29,13
			c3.98,2.65,8.35,5.03,13.12,5.43c4.77,0.4,10.01-1.6,12.22-5.84c1.75-3.37,1.32-7.51-0.04-11.06c-0.71-1.85-1.67-3.74-1.35-5.69
			c0.27-1.63,1.39-2.97,2.26-4.38c1.55-2.5,2.39-5.44,2.38-8.38c0-1.61-0.27-3.27-1.14-4.62c-0.84-1.3-2.16-2.2-3.45-3.06
			c-4.07-2.69-8.06-6.33-12.92-6.76c-19.02-1.69-25.85,9.91-29.26,7.72c-1.36-0.87,0.41-2.61,1.45-3.49
			c6.56-5.53,15.75-6.53,24.33-6.55c2.5-0.01,4.99,0.25,7.42,0.88c2.84,0.73,3.61,1.78,5.21,2.99c3.41,2.59,6.51,5.72,8.39,9.57
			c1.88,3.84-1.63,12.75,0.84,12.44c2.84-0.95,2.59-3.53,2.76-5.72c0.17-2.19-0.09-4.42,0.33-6.57c0.31-1.59,0.99-3.09,1.47-4.64
			c1.74-5.58,0.89-11.59,0.03-17.36c-0.64-4.28-1.41-8.84-4.37-11.99c-1.59-1.69-3.67-2.81-5.79-3.75
			c-8.14-3.6-17.34-4.79-26.13-3.39c-1.04,0.17-2.16,0.41-2.59,1.63c-0.28,0.8-0.11,1.71,0.37,2.41c0.98,1.44,2.68,1.92,4.28,2.38
			c11.13,3.23,21.8,8.04,31.59,14.26c0.84,0.53,1.84,1.1,2.78,0.38c0.8-0.62,0.95-1.75,0.52-2.67c-3.3-6.96-9.92-12.23-17.42-13.94
			c-3.33-0.76-6.83-0.86-10.21-1.33c-1.83-0.26-2.44,2.37-0.68,2.96c0.4,0.13,0.81,0.26,1.2,0.37c8.59,2.54,17.15,5.73,24.27,11.16
			c-0.29-2.62-1.97-4.87-3.81-6.75c-7.6-7.75-19.24-11.29-29.87-9.1c-0.62,0.85-0.17,2.13,0.67,2.76c0.84,0.63,1.93,0.78,2.97,0.91
			c3.32,0.41,6.65,0.82,9.97,1.23c1.85,0.23,3.72,0.46,5.47,1.11c1.81,0.67,3.43,1.77,4.93,2.97c1.97,1.58,3.78,3.36,5.39,5.31
			c0.71,0.86,1.42,1.79,2.44,2.24s2.45,0.2,2.89-0.83c-2.13-3.36-6.35-4.53-9.95-6.23c-5.26-2.48-10.02-6.62-15.82-7.02
			c7.86-0.39,14.43,6.1,22.19,7.44c0.61,0.1,1.34,0.13,1.72-0.35c0.24-0.31,0.26-0.74,0.23-1.14c-0.2-2.39-1.65-4.47-3.05-6.41
			c-3.8-5.27-7.59-10.53-11.39-15.8c-3.62-5.03-2.97-11.64-4.37-17.68c-1.05-4.51-2.21-9.05-4.31-13.18
			c-0.8-1.58-1.74-3.09-2.5-4.69c-1.04-2.19-1.73-4.53-2.68-6.77c-1.5-3.5-3.63-6.7-5.48-10.01c-3.07-5.46-6.48-10.73-10.43-15.59
			c-9.06-11.14-18.37-20.58-30.65-27.89c-5.32-3.17-10.71-6.37-16.67-8.04c-2.02-0.57-4.09-0.96-6.03-1.74
			c-4.36-1.76-8.63-5.53-13-5.03c-1.39,0.16-2.79,0.09-4.15-0.24c-9.86-2.42-19.92-4.44-29.98-5.63
			c-21.79-2.58-44.06,0.59-64.83,7.66S192.1,48.24,174.3,61.07c-8.88,6.4-15.86,17.36-22.46,26.09c-3.32,4.39-6.67,8.83-9.06,13.79
			c-1.65,3.42-2.83,7.05-3.95,10.68c-2.09,6.77-4.01,13.59-5.54,20.5c-3.22,14.51-4.7,29.4-4.42,44.27
			c0.09,4.61,0.38,9.23,1.03,13.78c0.89,6.26,4.79,11.63,10.35,14.64c9.89,5.36,17.93,14.41,21.49,24.99
			c3.43,10.19,3.06,21.22,2.71,31.96c-0.26,7.98-1.85,15.84-4.41,23.41c-0.99,2.92-1.7,7.26-4.76,9.06
			c-1.63,0.96-3.61,1.01-5.5,1.03c-3.83,0.05-7.8,0.07-11.33-1.44c-3.72-1.59-6.56-4.71-8.9-8c-7.36-10.32-10.96-23.27-9.98-35.91
			c0.89-11.54-6.41-22.38-7.61-33.89c-0.32-3.06-0.43-6.49,1.59-8.82c0.98-1.13,2.36-1.85,3.76-2.39c8.54-3.3,18.55-0.77,25.92,4.66
			c8.01,5.91,13.33,14.81,17.54,23.77c0.7,1.49,0.39,3.32-0.9,4.34c-2.24,1.76-4.64-0.52-6.16-2.48c-3.34-4.3-6.99-8.36-10.9-12.14
			c-4.63-4.48-9.96-8.73-16.31-9.85c-2.31-0.41-4.98-0.27-6.6,1.43c-1.01,1.06-1.42,2.54-1.66,3.98
			c-0.93,5.77,0.59,11.62,2.08,17.27c2.19,8.28,4.39,16.55,6.58,24.83c1.31,4.92,2.81,10.17,6.7,13.45
			c1.95,1.64,4.69,2.43,7.22,2.24c3.32-0.25,2.95-5.3-0.38-5.19c-3.11,0.1-6.32,0.48-8.24-1.71c-0.88-1-1.25-2.34-1.57-3.63
			c-2.53-10.08-4.19-20.38-4.93-30.75c-0.24-3.32-0.36-6.8,1.41-9.75c1.12-1.87,3.01-3.23,5.19-3.29c4.23-0.11,6.61,4.44,8,8.33
			c1.35,3.78,3.37,8.23,7.36,8.71c2.27,0.27,4.78-0.88,6.6,1.02c1.1,1.15,1.33,2.89,0.73,4.36c-1.49,3.72-5.3,4.89-7.91,7.41
			c-3.72,3.58-4.33,9.97-1.27,14.13c1.71,2.32,4.45,3.75,7.3,4.08c2.72,0.32,4.01,3.59,2.08,5.53c-3.89,3.91-9.37,6.28-14.89,6.07
			c-0.8,0.35-0.9,1.53-0.39,2.24c0.51,0.7,1.39,1.02,2.24,1.22c7.83,1.86,16.61-4.07,17.8-12.04c0.46-3.11-0.48-6.85-3.37-8.08
			c-2.22-0.95-5.16-0.26-6.83-2c-0.96-1-1.12-2.68-0.37-3.85c0.76-1.17,2.36-1.71,3.67-1.24c1.44,0.51,2.44,2.05,4.34,1.34
			c0.84-0.32,1.52-0.98,1.89-1.8c0.77-1.71,0.38-3.6-0.12-5.35c-3.66-12.99-12.38-24.03-22.35-33.12
			c-3.27-2.98-7.14-5.97-11.95-4.39c-3.18,1.04-5.47,3.74-6.54,6.91c-1.92,5.69-0.17,11.56,1.55,17.12c3,9.68,6.01,19.37,9.01,29.05
			c0.94,3.03,1.96,6.2,4.23,8.42s6.21,3.08,8.61,1c-0.56-2.22-3.23-2.97-5.35-3.85c-8.07-3.32-11.71-12.63-13.6-21.15
			c-1.48-6.68-2.42-13.47-2.8-20.3c-0.26-4.7,0.5-10.63,5.42-11.74c1.29-0.29,2.63-0.12,3.89,0.27
			c8.14,2.53,11.59,12.07,18.88,16.23c1.78,1.02,3.75,1.68,5.51,2.75c4.07,2.46,6.67,6.87,7.87,11.47c1.2,4.6,1.16,9.43,0.97,14.18
			c-0.57,14.52-2.4,28.99-5.47,43.2c-2.73,12.66-5.76,25.14-4.83,37.63c0.44,5.87,4.44,10.86,10,12.8
			c8.28,2.89,16.47,5.99,24.84,8.68c6.65,2.14,13.36,4.3,19.42,7.78c3.42,1.97,6.59,4.34,9.91,6.46c5.7,3.64,11.82,6.56,17.73,9.84
			c10.87,6.03,21.01,13.28,31.12,20.51c11.33,8.1,28.44,7.28,40.53,14.2c7.34,4.2,14.27,9.35,22.34,11.92
			c3.84,1.22,7.86,1.83,11.87,2.22c7.16,0.7,14.46,0.72,21.47-0.91s13.73-5.03,18.54-10.39c3.64-4.06,6.98-4.59,11.06-8.21
			c5.91-5.25,12.31-11.53,12.23-19.44c-0.09-8.35-7.51-15.19-7.36-23.71c0.02-1.04-0.34-2.07-1.07-2.81
			c-2.03-2.05-4.67-0.03-6.46,1.72c-8.8,8.64-20.31,14.47-32.48,16.45c-5.96,0.97-12.05,1.05-17.95,2.34
			c-4.6,1.01-9,2.75-13.38,4.48c-3.04,1.2-6.17,2.46-8.09,5.31c-0.75,1.11-1.2,2.44-1.14,3.78c0.19,4.24,4.49,6,8.24,6.74
			c6.34,1.26,12.87,1.3,19.23,2.44c8.59,1.54,16.93,5.08,25.65,4.81c4.91-0.16,9.7-1.52,14.57-2.23c3.91-0.56,8.13-0.79,11.25-3.22
			c4.78-3.72,4.89-10.86,3.89-16.84c-1.01-6.03-2.7-11.94-5.04-17.59c-0.23-0.56-0.51-1.17-1.05-1.45c-0.5-0.26-1.1-0.18-1.65-0.04
			c-1.52,0.37-2.99,0.96-4.36,1.71c-18.44,10.12-39.14,15.07-59.58,19.93c-2.39,0.57-4.84,1.14-7.29,0.91
			c-3.4-0.32-6.46-2.15-9.25-4.12c-3.77-2.65-7.31-5.64-10.57-8.91c-2.31-2.32-4.58-4.86-7.92-5.62c-1.62-0.37-3.38-0.16-4.73,0.81
			c-3.56,2.53-1.83,7.62,1.35,9.85c2.82,1.97,6.38,2.45,9.68,3.43c8.14,2.41,14.89,7.97,22.16,12.36
			c17.85,10.77,39.8,14.52,60.21,10.28c6.66-1.38,13.84-4.17,16.72-10.33c1.82-3.91,1.47-8.72-0.82-12.38
			c-2.29-3.65-6.41-6.06-10.71-6.36c-3.73-0.26-7.39,0.97-10.98,2.01c-12.05,3.49-24.74,5.15-35.92,10.92
			c-0.95,0.49-1.75,1.27-2.16,2.25c-1.35,3.26,2.43,5.62,5.56,6.46c13.36,3.62,27.6,1.97,41.09-1.13c3.42-0.79,6.98-1.74,9.23-4.67
			c1.32-1.72,1.79-4.02,0.91-5.99c-1.75-3.9-7.04-3.74-11.15-3.09c-16.39,2.57-32.93,4.15-49.5,4.72c-2.38,0.08-4.87,0.17-6.79,1.84
			c-0.82,0.71-1.37,1.73-1.39,2.81c-0.06,2.57,2.36,3.84,4.66,4.59c5.31,1.73,10.77,2.98,16.27,3.97c8.68,1.56,18.04,3.16,26.7,0.72
			c11.75-3.31,20.87-14.51,21.56-26.74c0.05-0.82-0.08-1.66-0.45-2.4c-1.73-3.47-6.37-1.97-9.47-0.18
			c-7.73,4.47-15.47,8.94-23.2,13.41c-3.81,2.2-7.66,4.42-11.86,5.72c-5.08,1.57-10.43,1.73-15.77,1.48
			c-1.81-0.09-2.5,2.38-0.89,3.2c5.92,3.03,12.87,4.15,19.57,3.9c8.92-0.33,17.6-2.84,26.17-5.34c3.72-1.08,7.8-2.44,9.69-5.82
			c0.4-0.71,0.68-1.57,0.37-2.31c-0.35-0.85-1.32-1.25-2.21-1.5c-9.17-2.66-18.92-0.24-28.26,1.72
			c-14.82,3.12-29.89,5.09-45.01,5.88c-2.43,0.13-4.95,0.21-7.21-0.7c-2.23-0.9-3.97-2.67-5.61-4.43c-1.68-1.8-3.31-3.65-4.9-5.52
			c-1.89-2.23,0.82-5.38,3.31-3.86l0.06,0.04c1.4,0.86,2.69,1.89,3.81,3.09c11.02,11.73,28.2,13.27,43.97,14.25
			c6.92,0.43,13.84,0.85,20.75,1.28c2.53,0.16,5.13,0.31,7.55-0.46c2.35-0.74,4.36-2.3,6.2-3.94c0.04-0.04,0.08-0.07,0.12-0.11
			c5.23-4.71-0.5-13.12-6.82-10.01c-3.71,1.83-7.12,4.3-9.98,7.29c-0.39,0.41-0.8,0.89-0.81,1.46c0,0.56,0.38,1.04,0.76,1.45
			c4.3,4.64,10.65,7.42,16.97,7.04c6.32-0.38,12.43-4.04,15.42-9.62c2.99-5.58,2.56-12.91-1.35-17.89
			c-0.83-1.06-1.83-2.04-3.07-2.59c-0.97-0.44-2.04-0.6-3.1-0.69c-3.22-0.27-6.48,0.06-9.57,0.98c-2.8,0.83-5.44,2.13-8.19,3.13
			c-6.02,2.19-12.46,2.89-18.78,3.92c-6.32,1.03-12.74,2.48-18.14,5.93c-5.4,3.45-9.65,9.27-9.67,15.68
			c-0.01,2.96,1.01,6.08,3.37,7.86c2.48,1.88,5.86,1.92,8.76,3.05c2.18,0.85,4.08,2.31,6.22,3.25c4.61,2.03,9.94,1.52,14.82,0.32
			c13.66-3.36,25.53-11.59,37.05-19.67c1.43-1,2.91-2.06,3.77-3.58c0.91-1.63,1-3.58,0.95-5.45c-0.14-4.72-1.04-9.41-2.66-13.84
			c-0.81-2.23-1.98-4.58-4.15-5.53c-1.43-0.63-3.05-0.54-4.6-0.41c-12.97,1.07-25.76,4.29-37.69,9.49
			c-10.91,4.76-21.83,11.31-33.7,10.5c-7.95-0.54-15.44-4.4-23.25-5.51c-2.88-0.41-5.35,2.27-4.61,5.09
			c0.86,3.27,3.14,6.28,5.96,8.25c4.34,3.03,9.71,4.1,14.93,4.97c4.49,0.75,9.52,1.72,12.05,5.5c-4.28,4.18-11.45,3.02-16.77,0.28
			c-4.48-2.31-8.62-5.55-13.34-7.13c-2.72-0.91-4.85,2.44-2.91,4.55l0,0c2.13,2.33,4.8,4.08,7.77,5.16
			c3.39,1.23,6.91,2.3,10.51,2.26c6.33-0.07,12.22-3.53,18.55-3.75c5.62-0.2,11.27,2.36,14.83,6.71c1.18,1.43,2.18,3.09,3.76,4.06
			c1.5,0.92,3.33,1.1,5.08,1.25c5.38,0.48,11.33,0.79,15.59-2.53c5.99-4.67,5.97-14.55,12.21-18.88c2.2-1.53,5.08-2.3,7.47-3.51
			c2.51-1.27,1.89-4.97-0.89-5.41c-4.19-0.68-8.7,0.14-12.77,1.59c-5.71,2.03-10.97,5.18-16.74,7.04c-8.39,2.7-17.6,2.5-26.05-0.03
			c-4.3-1.29-8.45-3.17-12.88-3.87c-5.05-0.8-10.57-0.14-15.55-0.83c-1.35-0.19-1.99,1.62-0.83,2.34
			c12.01,7.47,27.26,9.5,41.67,9.66c12.85,0.14,26.85-1.36,36.17-10.22c3.77-3.58,6.66-8.28,11.28-10.68
			c4.43-2.3,9.91-2.16,14.11-4.86c3.36-2.16,5.39-5.81,7.54-9.18c3.64-5.68,7.98-10.9,12.89-15.52c2.57-2.42,3.5-5.14,5.38-8.14
			c5.85-9.35,6.51-20.93,6.3-32c-0.08-4.27-0.94-8.49-2.48-12.47l-2.66-6.86c-1.28-3.32-2.58-6.66-4.53-9.64
			c-1.77-2.71-5.7-5.94-8.68-7.22c-8-3.45-16.17-6.98-24.8-5.92c-7.63-1.43-15.71-2.21-23.24-0.3c-5.36,1.36-10.16,4.34-14.61,7.63
			c-7.18,5.3-13.69,11.51-19.33,18.43c-3.08,3.78-2.23,9.42,1.87,12.06c18.15,11.67,40.09,16.65,61.85,17.03
			c4.5,0.08,9.08-0.03,13.38-1.37c4.3-1.34,8.34-4.05,10.4-8.05c0.61-1.19,0.85-3.03,0.95-4.37c0.25-3.2-2.05-6.05-4.57-8.03
			c-2.86-2.25-6.2-3.88-9.73-4.76c-13.66-3.41-27.72-5.52-41.8-5.85c-4.06-0.09-8.13-0.05-12.16,0.43
			c-7.08,0.83-13.93,2.97-20.75,5.02c-0.86,0.26-1.63,0.82-2.02,1.63c-0.81,1.71,0.64,3.09,1.95,4.05
			c19.47,14.24,44.9,17.99,68.97,16.42c3.1-0.2,6.26-0.5,9.09-1.79c2.82-1.29,5.29-3.76,5.78-6.82c0.53-3.32-1.3-6.77-0.4-10.01
			c0.31-1.13,0.94-2.14,1.4-3.21c2.38-5.49,0.26-12.16-3.86-16.5c-4.12-4.34-9.88-6.73-15.63-8.38c-3.8-1.09-7.69-1.92-11.64-2.12
			c-8.83-0.45-17.6,2.27-25.43,6.38c-7.84,4.1-14.87,9.56-21.86,14.98c-0.9,0.7-1.91,1.65-1.7,2.77c0.22,1.21,1.68,1.71,2.91,1.82
			c4.12,0.39,8.41-0.79,12.34,0.5c2.28,0.74,4.22,2.26,6.41,3.21c4.17,1.82,8.91,1.5,13.45,1.91c5.08,0.46,10.04,1.85,15.12,2.42
			c2.74,0.31,5.59,0.35,8.3-0.11c3.87-0.65,4.05-6.2,0.26-7.23l-0.13-0.03c-1.8-0.49-3.61-0.76-5.44-0.74
			c-10.92,0.1-21.76-1.55-32.66-1.91c-6.69-0.22-13.5,0.08-20.01,1.53c-4.49,1-4.42,7.46,0.12,8.25c0.7,0.12,1.41,0.22,2.1,0.29
			c6.91,0.75,14.01,0.42,20.65,2.46c4.2,1.29,8.06,3.49,12.12,5.16c11.12,4.58,23.86,5.1,35.32,1.45c1.15-0.37,2.34-0.81,3.13-1.72
			c0.82-0.94,1.09-2.24,1.26-3.48c0.68-4.97,0.34-10.08-0.99-14.91c-0.62-2.24-1.46-4.54-0.7-6.85c0.42-1.27,1.41-2.34,2.72-2.6
			c1.91-0.37,3.28,1.09,4.31,2.51c3.96,5.43,6.32,12.01,6.71,18.72c0.2,3.47-0.06,7.18,1.71,10.18c0.28,0.48,0.65,0.96,1.19,1.11
			c1.24,0.35,2.13-1.19,2.37-2.45c0.91-4.66-0.14-9.46-1.2-14.09c-1.38-6.07-2.83-12.31-6.37-17.44
			c-3.29-4.77-8.16-8.23-13.27-10.95c-13.39-7.12-29.14-9.68-44.1-7.18c-14.95,2.5-29.01,10.06-39.35,21.15
			c-2.48,2.66-4.78,5.54-7.7,7.71c-2.91,2.15-6.32,3.51-9.39,5.44c-3.67,2.3-7.03,5.78-6.79,10.41c0.15,2.85,2.1,5.4,4.93,5.82
			c4.18,0.62,6.97-3.6,9.08-7.11c15.7-26.13,46.6-42.33,77.02-40.38c-14.06-2.59-28.77-0.35-42,5.09
			c-13.22,5.44-25.02,13.96-35.35,23.84c-0.91,0.87-1.81,1.77-2.68,2.72c-1.97,2.15,1.21,5.15,3.28,3.1l10.35-10.29
			c4.38-4.36,8.81-8.76,13.97-12.15c4.88-3.21,10.34-5.47,15.86-7.38c12.98-4.47,26.97-7.1,40.47-4.59s26.42,10.85,31.83,23.47
			c0.68-2.77-0.99-5.52-2.59-7.89c-2.89-4.28-5.78-8.56-8.66-12.84c-2.12-3.15-4.33-6.37-7-9.05c-1.58-1.59-4,0.78-2.48,2.43
			c0.08,0.09,0.16,0.17,0.24,0.25l6.13,6.54c1.44,1.54,3.89-0.34,2.76-2.12c-0.54-0.85-1.14-1.66-1.76-2.43
			c-2.24-2.76-4.85-5.39-5.97-8.76c-0.12-0.35-0.21-0.72-0.14-1.08c0.2-0.94,1.37-1.23,2.31-1.43c6.86-1.43,12.11-8.4,11.58-15.39
			c-0.23-3.03,0.32-4.82-0.95-7.58c-0.72-1.56-1.67-3.02-2.66-4.41c-2.65-3.72-6.24-6.6-10.3-8.69
			c-7.56-3.89-11.85-12.24-17.38-18.71c-3.12-3.66-6.31-7.59-7.17-12.32c-0.44-2.43-0.26-5.03-1.87-7.13
			c-0.75-0.98-1.93-1.62-3.16-1.48c-2.61,0.3-3.21,3.36-2.7,5.68c1,4.47,4.43,7.91,7.42,11.38c8.51,9.87,14.55,21.97,24.63,30.22
			c4.62,3.78,10.6,7.82,9.62,14.03c-0.4,2.54-2,4.72-4.13,6.15c-4.44,2.98-9.71,2.86-14.79,2.71c-1.06-0.03-2.22-0.1-2.82-1.17
			c-0.38-0.68-0.37-1.52-0.06-2.23c0.63-1.42,2.03-2.14,3.38-2.75c4.49-2.04,9.22-3.55,14.05-4.5c1.03,1.47,0.52,3.62-0.71,4.92
			c-1.24,1.3-3.02,1.92-4.76,2.35c-3.33,0.83-6.79,1.15-10.21,0.93c3.53-4,7.8-7.35,12.53-9.83c0.8-0.42,1.68-0.83,2.61-0.18
			c0.62,0.43,0.94,1.19,0.91,1.95c-0.08,1.58-1.27,2.69-2.45,3.59c-3.38,2.59-7.33,4.43-11.49,5.37c2.37-3.17,5.95-5.42,9.84-6.18
			c-2.19,3.72-6.44,6.14-10.76,6.12c2.71-4.53,7.35-7.86,12.5-9c1.21,1.65-0.66,3.8-2.41,4.87c-9.82,6-22.12,7.8-33.25,4.88
			c-1.03-0.27-2.09-0.61-2.82-1.38c-0.73-0.77-0.96-2.11-0.21-2.87c0.49-0.5,1.23-0.62,1.83-0.97c1.53-0.89,1.8-3.11,1.05-4.71
			c-0.75-1.6-2.23-2.72-3.66-3.76c-2.77-2.02-5.64-4.03-8.92-5.02c-3.88-1.17-8.51-0.71-11.17,2.61c-1.59,1.98-2.04,4.72-0.85,6.95
			c1.77,3.32,5.86,3.68,9.4,3.79c4.15,0.12,8.39,0.24,12.34-1.03c0.48-0.15,0.99-0.37,1.2-0.82c0.23-0.5-0.01-1.07-0.26-1.55
			c-3.12-5.8-10.72-8.86-16.96-6.42c-1.21,0.47-2.06,1.66-2,2.96c0.09,1.85,1.9,2.53,3.48,2.87c2.61,0.57,5.3,0.83,7.97,0.78
			c1.07-0.02,2.23-0.12,2.84-1.26c0.4-0.74,0.38-1.64,0.05-2.4c-0.67-1.53-2.19-2.32-3.66-2.96c-3.01-1.31-6.43-2.3-9.51-0.64
			c-1.92,1.02-3.08,3.18-2.51,5.27c0.89,3.28,5.11,3.9,8.47,3.91c1.88,0.01,3.77,0.01,5.65,0.02c1.25,0,2.6-0.02,3.36-1.4
			c0.43-0.78,0.44-1.73,0.13-2.55c-0.69-1.8-2.42-2.74-4.12-3.44c-3.62-1.48-7.53-2.24-11.44-2.2c-2.11,0.02-4.61,0.51-5.27,2.68
			c-0.3,0.97-0.09,2.03,0.45,2.89c1.09,1.73,3.02,2.45,4.92,2.86c2.93,0.63,6,0.62,8.93-0.03c1.65-0.37,3.42-1.03,3.57-3.34
			c0.06-1-0.27-1.99-0.84-2.81c-1.06-1.54-2.72-3.07-4.68-3.26c-1.51-0.14-3.18,0.73-3.57,2.2c-0.38,1.42,0.53,2.95,1.79,3.71
			s2.8,0.9,4.27,0.92c1.08,0.02,2.59-0.96,1.81-1.71c-2.77-1.06-5.8-1.42-8.74-1.02c-0.55,1.43,0.54,3.07,1.94,3.67
			c1.73,0.74,3.75,0.35,5.56,0.2c0.83-0.07,1.55-0.7,1.61-1.53c0.06-0.85-0.66-1.24-1.3-1.54c-2.17-1.01-4.6-1.93-6.92-0.81
			c-1.18,0.57-2.02,1.78-1.91,3.09c0.18,2.22,2.52,3.01,4.52,3.05c1.74,0.03,3.57-0.27,5.16,0.44c1.13,2.23-1.72,4.36-4.1,5.15
			c-4.03,1.34-8.2,2.28-12.42,2.8c-5.22,0.64-11.36,0.26-14.48-3.97c-1.22-1.66-1.79-3.7-2.08-5.74
			c-1.45-10.29,3.98-20.47,11.2-27.94c1.27-1.32,2.65-2.6,4.34-3.31c5.59-2.32,11.6,2.45,15.92,6.36c0.71,0.65,1.24,1.51,1.33,2.47
			c0.16,1.71-1.06,2.4-2.25,2.81c-5.71,1.96-12.29-0.68-17.91,1.52c-5.49,2.15-8.29,8.12-10.56,13.56
			c-3.47,8.31-6.94,16.62-10.41,24.93l-0.04,0.1c-1.35,3.23-6.21,1.84-5.64-1.61c0.93-5.61,2.57-11.14,4.3-16.58
			c3.85-12.16,9-25.25,20.22-31.33c2.57-1.39,5.38-2.35,7.82-3.97c0.39-0.26,0.78-0.55,1.15-0.85c2.35-1.94,5.77-1.69,8.02,0.36
			c2.32,2.11,5.19,3.61,8.3,4.17c1.27,0.23,2.49,0.76,3.49,1.58c4.3,3.51,0.79,8.24-3,10c-5.38,2.5-11.62,2.05-17.41,3.35
			c-3.64,0.82-7.19,2.39-9.83,5.03c-2.64,2.64-4.26,6.43-3.75,10.12c0.81,5.9,7.43,10.14,13.24,8.78c3.22-0.75,6.05-2.88,9.34-3.19
			c4.39-0.42,8.33,2.45,12.52,3.82c4.93,1.61,10.27,1.16,15.4,1.9c5.3,0.77,10.32,2.83,15.28,4.86c1.82,0.75,3.67,1.51,5.17,2.78
			c2.9,2.44,4.07,6.32,6.09,9.53c3.62,5.74,9.98,9.31,13.38,15.22c1.21,2.11,1.8,4.51,1.99,6.94c0.54,6.76,5.89,12.55,6.78,19.31
			c0.41,3.11,0.34,6.36-0.32,9.45c-0.61,2.86-4.9,2.19-4.66-0.73c1.78-21.72,6.62-43.22,7-65.03c0.13-7.49,2.49-15.01,1.69-22.46
			c-0.51-4.81-2.22-9.43-3.53-14.06c-0.34-1.13-0.67-2.26-1.01-3.38c-1.97-5.88-3.49-11.83-1.72-17.73c1.52-5.09,4.02-9.84,5.6-14.9
			c2.32-7.4,2.64-15.25,2.71-23c0.03-3.36,0.01-6.78-1.06-9.96c-0.94-2.78-2.64-5.23-4.29-7.66c-7.33-10.73-14.26-21.74-20.77-33
			c-3.36-5.81-14.65-6.5-20.26-5.96c-1.26,0.12-2.55-0.28-3.42-1.19c-2.13-2.24,0.07-5.09,1.66-7.33
			c3.35-4.68,4.35-10.76,3.65-16.48c-0.71-5.71-3-11.12-5.75-16.18c-8.68-15.93-23.35-29.64-41.26-32.53
			c-1.14-0.18-2.67-0.09-2.98,1.02c-7.98,0.92-16.39-0.33-24.33-1.55c-12.41-1.9-25.02-1.75-37.57-1.59
			c-12.1,0.15-24.32,0.31-36.09,3.16c-10.7,2.59-21.52,8.01-26.7,17.72c-5.85,10.97-3.21,24.66-7.45,36.35
			c-5.37,14.78-20.78,24.01-26.68,38.59c-6.05,14.96-13.4,28.22-14.92,44.28c-1.31,13.89-0.51,27.87,0.57,41.79
			c0.25,3.22-4.14,4.38-5.53,1.47l-0.04-0.08c-1.18-2.51-1.66-5.29-2.69-7.87c-1.42-3.56-3.91-6.69-7.06-8.88
			c-4.53-3.15-10.13-4.26-15.2-6.45c-5.69-2.47-10.46-9.58-10.63-15.78c-0.25-9.13-0.2-18,2.31-26.86
			c4.53-15.96,9.77-31.72,15.69-47.22c5.57-14.58,11.93-29.01,24.16-38.71s26.46-16.55,39.19-25.59
			c6.63-4.71,12.96-10.06,20.52-13.06c9.21-3.65,19.42-3.47,29.32-3.25c3.14,0.07,6.32,0.15,9.44,0.52c2.2,0.26,2.22,3.44,0.02,3.69
			c-19.21,2.21-39.08,3.27-54.61,14.34c-7.07,5.04-12.68,11.83-18.42,18.34c-15.67,17.77-33.29,34.47-43.52,55.84
			c-5.86,12.24-9.06,25.58-12.57,38.66c-1.04,3.87-1.81,7.82-2.2,11.81c-0.48,4.9-0.47,10.54,2.29,14.86
			c0.54,0.85,1.4,1.72,2.39,1.53c0.56-0.11,0.99-0.55,1.38-0.98c9.37-10.46,10.61-25.59,12.88-39.45
			c3.74-22.75,11.5-44.84,22.82-64.93c4.67-8.29,10.59-16.69,18.41-21.67c4.82-3.06,10.85,1.93,8.51,7.14
			c-1.3,2.9-3.25,5.67-5.23,8.09c-9.9,12.09-21.89,22.66-29.56,36.27c-12.09,21.46-11.89,47.43-11.38,72.05
			c0.15,6.99,0.49,14.53,4.85,19.98c2.65-8.68,0.03-17.98-0.13-27.05c-0.18-10.66,3.07-21.05,6.29-31.21
			c3.25-10.26,6.56-20.65,12.32-29.75c4.33-6.84,9.99-12.85,14.66-19.43c2.48-3.5-2.22-7.56-5.33-4.61
			c-0.16,0.15-0.31,0.3-0.47,0.45c-17.35,16.89-28.58,39.14-36.62,61.98c-4.77,13.56-8.56,28.16-5.22,42.21
			c0.24,0.99,0.93,1.86,1.9,2.18c2.45,0.79,3.75-2.45,4.01-4.87c0.5-4.68,0.98-9.51-0.37-14.02c-1.59-5.32-5.54-9.63-7.47-14.83
			c-3.15-8.48-0.51-18.09,2.78-26.36c2.76-6.94,6.13-18.62,7.27-26c2.65-17.13,9.7-33.79,20.61-47.2
			c12.53-15.41,30.89-25.26,50.01-30.63c6.05-1.7,12.22-2.99,18.37-4.28c4.1-0.86,8.2-1.72,12.36-2.24
			c5.15-0.65,10.35-0.8,15.54-0.75c11.99,0.1,23.97,1.2,35.78,3.28c8.46,1.49,15.55,5.51,24.1,4.73c1.17-0.11,2.43-0.29,2.94-1.74
			c0.42-1.21,0.01-2.58-0.93-3.47c-4.28-4.03-10.28-4.93-15.97-5.71c-16.87-2.3-33.83-4.58-50.84-4.01
			c-32.34,1.1-64.23,12.89-89.51,33.09c-2.27,1.82-4.62,3.88-4.52,7.2c0.11,3.42,2.67,6.22,5.96,7.17
			c5.22,1.51,10.36-1.19,14.38-4.54c5.33-4.44,9.49-10.16,14.86-14.54c6.7-5.47,14.95-8.61,23.13-11.42
			c13.85-4.75,28.1-8.81,42.72-9.61c11.22-0.61,22.75,0.82,33.08,5.08c1.36,0.56,0.74,2.61-0.7,2.32
			c-26.12-5.28-53.79-2.86-78.55,7.04c-3.58,1.43-7.2,3.08-9.85,5.88c-2.99,3.16-4.43,7.43-5.79,11.56
			c-1.99,6.06-3.99,12.13-5.98,18.19c-1.31,3.98-2.67,8.06-5.27,11.34c-4.44,5.61-11.46,7.85-18.73,8.96
			c-3.98,0.61-6.61,4.48-5.6,8.38c0.19,0.74,0.37,1.48,0.54,2.22c1.51,6.56-1.22,13.4-6.8,17.16c-6.94,4.69-14.02,9.18-21.21,13.48
			c-4.16,2.48-8.78,4.15-13.59,4.7c-1.4,0.16-2.99,0.15-4.03-0.8c-0.86-0.78-1.13-2.02-1.3-3.17c-2.69-17.88,6.68-35.13,15.72-50.8
			c4.37-7.57,8.8-15.23,14.83-21.56c7.1-7.46,16.1-12.77,24.98-17.98c19.53-11.47,39.93-23.22,62.51-25.04
			c8.41-0.68,16.86,0.06,25.26,0.8c14.39,1.26,28.78,2.52,43.18,3.78c12.49,1.09,25.65,2.45,36.5,8.27
			c1.83,0.98,0.94,3.78-1.13,3.56l-30.18-3.18c-9.1-0.96-18.27-1.92-27.37-1.08c-5.92,0.55-11.75,1.84-17.6,2.89
			c-13.05,2.34-26.32,3.43-39.57,3.28c-5.11-0.06-6.98-6.85-2.57-9.43c10.17-5.96,22.82-8.28,34.78-9.65
			c9.86-1.13,19.76-1.9,29.68-2.3c1.05-0.04,2.16-0.05,3.24,0.05c3.28,0.3,4.02,4.78,1,6.08c-7.55,3.25-16.64,3.01-25.07,3.55
			c-36.08,2.29-70.2,23.74-88.66,54.7c-1.72,2.88-6.15,1.02-5.3-2.22c2.8-10.67,9.72-20.7,16.4-29.83
			c7.27-9.94,14.81-20.12,24.49-27.55c2.98-2.29,6.97,1.17,5.09,4.42c-1.76,3.05-4.4,5.87-6.84,8.4
			c-9.07,9.41-16.94,19.98-23.36,31.37c0.73-0.67,1.52,0.77,1.46,1.76c-0.88,14.54-5.39,28.84-13.01,41.26
			c-5.4,8.81-12.35,16.7-16.77,26.04c-4.3,9.07-6.03,19.13-9.56,28.52c-0.33,0.89-1.04,1.63-1.95,1.89
			c-2.33,0.66-3.49-2.03-3.89-4.15c-3.41-18.03-3.24-36.53-2.53-54.87c0.33-8.63,0.8-17.38,3.45-25.6c1.3-4.04,3.19-7.96,5.67-11.4
			c3.97-5.49,12.56-2.06,11.58,4.64c-0.24,1.62-0.61,3.22-1.1,4.77c-1.86,5.92-5.21,11.23-8.44,16.53
			c-6.39,10.46-12.45,21.12-18.51,31.77c-0.73,1.29-1.47,2.58-2.2,3.87c-3.75,6.58-7.5,13.18-10.6,20.08
			c-0.59,1.31-1.15,2.63-1.7,3.95c-2.15,5.19-9.9,3.23-9.37-2.36c0.11-1.1,0.27-2.2,0.48-3.27c1.3-6.59,4.23-12.72,6.42-19.07
			c6.22-18.03,6.67-38.27,17.38-54.21c0.71-1.05,1.77-1.86,3.01-2.14c3.96-0.9,5.69,3.57,5.77,7.08c0.21,9.46-4.06,18.34-6.93,27.35
			c-6.38,20.05-5.95,41.75-12.01,61.9c-0.64,2.14-1.42,4.35-3.05,5.86c-1.17,1.08-2.91,1.66-4.42,1.37
			c-0.87-0.17-1.66,0.56-1.67,1.45l0,0c-0.01,1.38,0.94,2.57,2.28,2.91c12.85,3.22,23.71,13.77,26.87,26.72
			c0.52,2.13,2.62,3.51,4.7,2.81c2.82-0.95,1.97-4.58,0.75-6.97c-4.72-9.23-10.24-18.78-12.29-28.71c-0.6-2.89,3.75-3.87,4.49-1.01
			c4.65,18.07,3.29,44.68,10.01,38.32c6.8-7.43-9.28-33.7-5.08-50.19c3.47-13.63,12.87-26.36,13.85-39.85
			c0.25-3.47-3.77-5.58-6.48-3.41c-11.51,9.19-18.35,24.18-17.23,38.91c0.43,5.69,1.93,11.5-1.2,16.89
			c-1.4,2.41-3.96,4.03-6.74,3.96c-5.61-0.15-7.85-6.43-8.41-11.66c-1.39-13.02,1.04-26.1,3.46-38.97
			c2.43-12.91,5.27-26.64,14.52-35.97c0.85-0.86,1.92-1.74,3.28-1.04c0.77,0.4,1.29,1.16,1.49,2c3.73,15.69-6.39,30.48-14.46,44.22
			c-5.96,10.15-11.04,20.81-15.17,31.82c-1.07,2.86-5.29,2.26-5.48-0.79c-0.81-12.92-0.64-25.9,1.48-38.66
			c2.08-12.53,6.11-24.88,12.51-35.8c2.08-3.55,7.58-1.08,6.24,2.81c-2.66,7.69-7.28,15.09-10.73,22.78c-1.25,2.8-5.43,1.3-4.7-1.68
			c0.54-2.19,1.29-4.33,2.18-6.37c2.91-6.66,7.19-12.64,10.4-19.17c4.07-8.29,6.43-17.51,11.96-24.91
			c3.19-4.27,7.32-7.75,11.52-11.02c30.66-23.85,68.16-38.81,106.81-42.64c8.41-0.83,16.94-1.15,25.28,0.2
			c6.99,1.13,13.74,3.4,20.45,5.67l25.34,8.56c2.04,0.69,1.3,3.73-0.83,3.41l-0.09-0.01c-28.29-4.28-57.58-9.38-85.39-4.26
			c-2.29,0.42-2.02,3.82,0.31,3.88c16.12,0.4,32.27-0.51,48.24-2.74c1.16-0.16,2.24-0.81,2.79-1.85c1.08-2.03-0.63-3.72-2.31-4.64
			c-3.8-2.07-8.3-2.32-12.62-2.52c-26.09-1.23-54.68-1.7-75.22,14.42c-6.92,5.43-12.43,12.43-17.86,19.35
			c5.78-1.02,11.26-3.65,15.72-7.47c1.42-1.22,3.46,0.51,2.52,2.13c-1.16,2.01-2.61,3.93-3.97,5.8
			c-6.8,9.35-12.18,20.06-13.48,31.55c-1.3,11.49,1.92,23.84,10.21,31.91c13.33,2.57,27.69-1.03,40.68-5
			c28.81-8.8,59.4-8.57,89.6-7.43c3.21,0.12,3.93-4.51,0.82-5.31c-2.85-0.73-5.97-0.98-8.86-1.13c-16.62-0.85-33.34-2.53-49.83-0.27
			c-16.48,2.26-33.08,9-43.43,22.04c-8.69,10.94-12.13,25.22-13.01,39.16c-0.38,6.02-0.27,12.32,3.22,17.5
			c2.09,3.1,5.37,5.33,9.1,5.53c7.41,0.39,12.02-7.13,18.04-10.94c2.24-1.42,4.98,1,3.83,3.39c-1.12,2.31-2.78,4.37-4.8,5.97
			c-2.55,2.02-5.94-1.2-4.09-3.87c0.59-0.86,1.27-1.66,1.97-2.4c8.07-8.57,19.93-13.37,31.67-13.05c3.28,0.09,5.92,2.85,5.81,6.13
			c-0.07,2.09-0.67,4.14-1.85,5.86c-3.01,4.39-9.9,6.05-13.95,1.56c-2.11-2.33-2.65-5.72-1.59-8.67c3.34-9.31,17.7-3.61,14.73,4.92
			c-1.36,3.91-5.75,6.08-9.69,4.8c-7.65-2.49-4.22-14.09,2.46-13.93c5.84,0.14,8.62,9.44,3.74,12.63c-1.55,1.01-3.61,1.38-5.3-0.07
			c-1.13-0.97-1.63-2.52-1.35-3.99c0.79-4.21,6.43-4.37,8.46-1.4c1.68,2.45,0.73,6.19-1.77,7.8c-3.79,2.44-10.22-0.64-8.94-5.98
			c0.28-1.18,0.97-2.25,1.88-3.05c4.91-4.29,10.4,1.97,8.32,6.2c-1.24,2.52-4.25,3.62-7.04,3.98c-4.47,0.58-10.09-0.91-10.82-5.62
			c-0.26-1.7,0.27-3.45,1.35-4.78c2.64-3.23,7.06-3.5,10.62-2.08c2.51,1,4.91,3.13,4.54,6.01c-0.28,2.28-2.71,3.73-4.64,2.49
			c-2.55-1.64-0.39-5.98,2.2-7.89c3.36-2.48,8.68-4.13,11.23-0.8c1.24,1.62,1.29,3.89,0.28,5.67c-1.82,3.19-5.6,4.07-8.97,3.59
			c-3.3-0.47-6.71-3.28-6.9-6.23c-0.09-1.41,1.49-2.35,2.73-1.68c1.62,0.87,2.82,2.58,3,4.4c0.08,0.84-0.3,1.7-1.03,2.12
			c-3.23,1.9-9.12-1.44-6.51-6.19c1-1.83,2.89-3.11,4.97-3.09c4.34,0.03,6.94,5.04,5.57,8.86c-2.44,2.41-7.3,1.27-8.41-1.98
			c-0.64-1.87,0.13-3.95,1.55-5.3c1.9-1.8,5.04-0.25,4.73,2.34c-0.31,2.6-2.26,4.99-5.33,4.57c-2.32-0.32-4.06-2.58-3.63-4.88
			c0.99-5.26,10.01-1.98,7.51,2.85c-1.38,2.66-4.77,3.33-7.09,1.43c-3.82-3.12-0.3-9.24,3.99-9.01c3.79,0.2,6.51,4.69,5.31,8.29
			c-0.54,1.64-1.78,3.12-3.81,3.17c-1.91,0.05-3.64-1.29-4.16-3.13c-1.09-3.89,3.46-6.84,6.82-5.55c2.13,0.81,3.52,2.95,3.81,5.22
			c0.18,1.4-0.81,2.7-2.2,2.96c-2.99,0.56-6.1,0.61-8.36-1.84c-1.45-1.57-1.44-4.12,0.22-5.48c2.93-2.4,6.33,1.8,5.06,4.68
			c-1.13,2.58-4.47,3.55-7.21,2.92c-1.88-0.43-3.71-1.5-4.01-3.95c-0.34-2.77,1.74-5.28,4.5-5.71c4.11-0.64,7.33,2.59,8.59,6.36
			c0.52,1.56-0.51,3.26-2.13,3.5c-2.83,0.41-6.22-1.73-4.91-5.6c0.38-1.12,1.15-2.11,2.18-2.7c3.98-2.25,8.03,2.11,7.08,5.81
			c-3.25,1.71-6.81,3.47-10.47,2.48c-2.14-0.58-3.9-2.24-4.24-4.43c-0.4-2.62,1.41-4.29,3.42-5.11c3.24-1.32,7.39-0.47,9.46,2.35
			c2.51,3.42,0.97,9.45-3.91,9.8c-2.34,0.17-4.61-1.21-5.29-3.45c-1.04-3.43,1.97-6.42,5.19-7.12c1.69-0.37,3.42-0.26,5.13,0.04
			c2.74,0.47,3.84,3.89,1.89,5.87c-1.67,1.69-4.28,2.6-6.57,1.82c-4.14-1.42-6.06-6.68-4.78-10.86c3.05-3.93,10.51-0.8,10.68,4.17
			c0.2,5.89-7.8,10.16-12.95,6.7c-0.84-0.57-1.54-1.38-1.8-2.36c-0.58-2.2,1.03-3.85,2.66-5.02c9.8-7.01,23.46-4.76,34.57-0.08
			c11.1,4.69,21.56,11.56,33.49,13.22c13.73,1.92,27.3-3.32,41.09-5.14c2.81-0.37,4.95,2.57,3.62,5.07
			c-0.42,0.79-0.97,1.52-1.61,2.17c-3.25,3.3-8.67-0.28-7.04-4.61c3.21-8.52,10.85-15.38,19.65-17.7c4.32-1.14,6.73,4.89,2.84,7.09
			c-0.31,0.18-0.62,0.34-0.92,0.49c-7.21,3.61-13.29,9.42-17.23,16.45c3.88,2.84,9.1-0.51,13.01-3.3s10.47-4.53,12.63-0.24
			c0.57,1.13,0.64,2.46,0.44,3.72c-0.62,4-4.31,7.49-8.35,7.31c-2.45-0.11-4.55-1.72-5.65-3.91c-3.96-7.91,8.02-11.06,9.67-4.71
			c0.77,2.97-1.46,6-4.52,6.25c-6.08,0.52-6.56-9.63-0.61-9.84c2.48-0.09,4.74,1.66,5.32,4.08c1.21,5.04-5.35,7.94-8.79,5.2
			c-2.92-2.32-2.56-7.53,0.56-9.57c3.25-2.13,8.71-0.39,8.67,4.29c-0.01,1.7-0.88,3.33-2.25,4.33c-4.77,3.5-9.86-2.52-7.88-6.69
			c1.58-3.35,6.92-3.96,9.26-1.09c3.45,3.39,2.01,10.8-3.43,11.02c-3.11,0.12-5.69-2.47-5.39-5.57c0.21-2.16,1.74-3.35,3.37-4.18
			c2.49-1.27,5.6-1.8,7.93,0.18c3.46,2.93,2.7,7.3-1.29,9.47c-7.17,3.89-14.68-9.28-4.5-12.96c1.8-0.65,3.8-0.76,5.58-0.07
			c6.69,2.58,5.02,12.39-0.82,14.17c-5.88,1.79-12.81-5.54-8.49-11.44c1.02-1.39,2.57-2.37,4.28-2.52c5.19-0.46,6.84,5.94,4.07,9.12
			c-2.24,2.58-6.48,2.83-9.36,1c-5.85-3.73-6.28-13.8-13.24-15.36c-4.08-0.92-8.07,1.71-9.43,5.66c-2.39,6.89,1.35,13.17,5.28,18.54
			c5.05,6.9,10.73,13.33,16.95,19.2c9.28,8.75,20.63,17.92,20.09,31.03c-0.2,4.9-2.24,9.62-5.67,13.13
			c-7.68,7.85-18.37,6.89-28.31,7.05c-30.89,0.52-61.34,14.2-82.23,36.96c-4.55,4.95-8.89,11.08-8.16,17.76
			c0.55,5.01,5.61,9.33,10.2,9.26c2.55-0.04,4.65,2.02,4.92,4.55l0,0c0.09,0.81,1.23,0.95,1.49,0.17
			c1.91-5.68,6.32-10.53,11.82-13.02c6.94-3.15,15.33-2.61,22.05,0.97c5.34,2.84,9.65,7.41,15.14,9.94
			c9.06,4.18,19.41,2.12,29.52,1.98c2.42-0.03,2.55-3.56,0.14-3.79c-0.49-0.05-0.97-0.08-1.43-0.09
			c-6.17-0.25-12.41-0.49-18.54,0.09c-2.43,0.23-2.84,3.6-0.56,4.47c3.79,1.44,7.86,2.12,11.91,2c2.22-0.06,2.26-3.36,0.05-3.55
			c-6.05-0.5-12.55,0.59-18.52-0.85c-4.8-1.16-9.03-3.9-13.55-5.88c-12.79-5.58-28.23-4.63-40.23,2.49
			C304.49,347,296.8,358,294.33,370.1c-0.64,3.14-4.53,4.35-6.74,2.03c-1.37-1.44-2.5-3.27-3.36-5.01
			c-1.9-3.86-2.15-8.29-2.35-12.59c-0.94-19.47-1.88-39.05,0.56-58.39c1.21-9.57,3.2-19.51,0.15-28.66
			c-3.86-11.56-14.77-19.04-25-25.67c-4.38-2.84-9.82-3.42-14.51-5.71c-7.98-3.9-16.37-8.15-21.08-15.68
			c-3.93-6.29-4.72-14.1-3.92-21.47c0.85-7.8,3.37-15.58,2.23-23.34c-1.39-9.46-11.11-19.05-20.74-11.71
			c-3.04,2.31-5.03,5.72-5.92,9.43c-2.56,10.66-4.12,21.56-4.66,32.51c-0.6,12.06,0.6,25.49,9.35,33.82
			c4.74,4.52,11.07,6.88,16.71,10.2c20.07,11.83,30.21,34.84,39.11,56.37c2.19,5.3,4.38,10.6,6.57,15.9
			c1.63,3.94,3.26,7.9,5.63,11.47c1.72,2.6,2.48,5.73,1.99,8.81c-1.72,10.85-1.45,19.4,0.46,30.82c0.27,1.63,1.29,3.11,2.8,3.77
			c3.56,1.56,6.05-2.33,6.94-5.62c2.6-9.52,1.62-19.62,0.23-29.39c-2.31-16.24-5.7-32.32-10.15-48.11
			c-2.38-8.44-8.89-15.06-13.64-22.43c-3.66-5.68-7.51-11.56-14.04-14.28c-3.06-1.27-6.51-1.53-9.6-0.32
			c-7.08,2.77-8.3,10.93-8.42,17.94c-0.54,30.85,7.72,61.4,6.24,92.26c-0.1,2.17-1.75,4.06-3.91,4.24c-2.47,0.2-3.64-2.05-4.41-4.05
			c-3.57-9.18-5.54-18.89-7.81-28.47c-5.42-22.97-12.61-45.47-19.78-67.95c-0.87-2.74-1.77-5.52-3.41-7.87
			c-1.32-1.9-3.09-3.48-4.2-5.5c-2.22-4.05-1.46-9.17-1.49-13.54c-0.01-2.44,0.95-4.83,2.84-6.37c4.29-3.51,9.18,0.24,12.18,3.95
			c7.18,8.88,12.02,19.6,14.1,30.83c0.71,3.84,1.09,7.89-0.71,11.53c-0.86,1.74-2.26,3.22-4.05,3.99
			c-5.49,2.36-10.61-2.52-13.98-7.06c-6.65-8.96-12.32-18.65-16.89-28.84c-0.39-0.87-0.85-1.84-2.05-1.85
			c-1.36-0.01-2.43,1.18-2.47,2.54c-0.59,23.32-2.62,46.59-6.08,69.66c-0.83,5.51-1.74,11.08-1.15,16.61
			c0.35,3.29,1.3,6.61,2.95,9.46c2.77,4.78-1.51,10.7-6.87,9.35c-0.04-0.01-0.09-0.02-0.13-0.03c-4.7-1.23-9.32-3.82-14.15-2.5
			c-4.72,1.29-7.77,6-7.22,10.86c0.46,4.13,3.43,6.75,6.31,9.19c20.05,17,41.39,32.49,63.78,46.28c7.7,4.75,15.55,9.31,22.73,14.82
			c6.03,4.63,11.54,9.91,17.3,14.87c10.47,9.03,21.79,17.08,33.76,23.99c26.37,15.24,42.98,41.14,67.02,59.83
			c2.11,1.64,5.2,3.27,7.2,1.51c0.48-4.49-3.3-8.18-6.77-11.06c-19.03-15.75-39.03-30.33-59.84-43.64
			c1.08-4.75,6.09-7.28,10.42-9.51c12.43-6.41,23.47-15.47,32.21-26.38c2.19-2.73,1.02-6.81-2.26-8.03
			c-23.29-8.69-44.58-22.49-68.22-30.3c-5.36-1.77-10.84-3.23-15.99-5.54c-5.51-2.47-10.55-5.86-15.55-9.27
			c-22.68-15.46-45.66-31.77-72.25-38.57c-6.77-1.73-15.54-2.04-19.06,4.01c-1.41,2.42-1.63,5.46-3.4,7.63
			c-1.75,2.14-4.61,2.95-7.29,3.64c-8.6,2.23-17.2,4.46-25.8,6.69c-11.87,3.08-21.7,6.56-31.74,13.6
			c-4.12,2.89-8.53,6.32-13.54,5.89c-3.69-0.32-6.82-2.7-10.16-4.3c-0.74-0.35-1.53-0.66-2.35-0.9c-3.71-1.07-5.48,4.53-1.83,5.79
			c2.54,0.88,5.39,1.29,8.04,1.66c18.93,2.64,37.31,9.02,53.85,18.59c1.84,1.07,3.56-1.58,1.81-2.8
			c-8.06-5.62-16.92-10.1-26.25-13.19c-1.99-0.66-3.5-2.46-3.46-4.55c0.04-2.31,1.97-3.18,3.71-3.86
			c16.85-6.58,34.44-11.28,52.33-13.99c5.35,4.14,11.14,9.27,16.48,13.41c14.68,11.37,29.4,22.75,45.17,32.55
			c14.86,9.24,30.61,17.02,45.26,26.59c12.7,8.28,24.73,18.1,33.57,30.34c2.32,3.21-0.58,7.59-4.45,6.72l-0.09-0.02
			c-5.67-1.29-11.34-2.58-17.01-3.87c-13.19-3-26.4-6-39.2-10.38c-11-3.76-21.63-8.52-32.3-13.15c-4.21-1.83-7.3,4.15-3.37,6.54
			c12.62,7.67,25.83,14.47,38.98,21.23c7.03,3.62,14.12,7.25,21.73,9.42c12.83,3.66,26.46,2.95,39.77,2.37
			c0.73-0.03,1.46-0.12,2.15-0.34c0.98-0.31,1.74-0.75,2.31-1.3c3.24-3.07,8.2-3.36,11.41-0.26c8.35,8.05,15.38,16.68,24.89,24.7
			c13.81,11.66,30.12,21.61,48.28,22.47c1.48,0.07,2.98-0.51,3.91-1.66c1.88-2.32,0.12-5.11-1.52-7.21
			c-15.9-20.32-30.73-41.47-44.4-63.35c-1.72-2.74,1.14-6.05,4.11-4.77c8.16,3.5,15.76,8.3,22.39,14.2
			c4.03,3.58,7.73,7.58,12.17,10.65c3.78,2.61,8.04,4.51,12.51,5.57c3.43,0.81,7.01,1.13,10.49,0.61c6.28-0.94,11.87-4.52,17.4-7.43
			c1.44-0.76,2.8-1.67,3.94-2.84c7.65-7.9,1.51-15.65-4.03-21.38c-6.64-6.86-13.27-13.73-19.91-20.59
			c-3.16-3.27-6.43-6.62-10.59-8.47c-4.33-1.93-9.22-2.07-13.96-2.12c-8.7-0.1-17.77,0.05-25.25,5.02
			c-3.49,2.32-6.25,5.66-7.43,9.68c-2.53,8.64,3.17,15,8.82,20.2c14.09,12.96,30.33,23.58,47.87,31.27
			c1.71,0.75,3.48,1.49,5.34,1.63c2.44,0.19,4.85-0.65,7.06-1.7c6.83-3.26,12.42-8.58,17.89-13.82c1.24-1.19,2.54-2.46,3.04-4.11
			c0.46-1.51,0.2-3.16-0.19-4.67c-0.92-3.57-2.63-6.88-4.93-9.75c-8.72-10.91-18.96-21.13-31.47-27.5
			c-11.03-5.62-23.99-8.05-35.98-4.99c-2.74,0.7-5.44,1.69-7.79,3.27c-2.49,1.67-4.5,3.94-6.48,6.18c-1.94,2.2-4,4.69-3.94,7.63
			c0.07,2.86,2.14,5.22,4.09,7.31c8.57,9.16,17.25,18.4,27.7,25.32c6.13,4.05,12.85,7.3,18.26,12.28
			c7.4,6.81,11.85,16.72,11.99,26.77c0.04,3.1,1.27,6.12,3.54,8.23c2.42,2.25,5.61,3.41,8.75,4.39c18.58,5.8,38.61,6.87,57.7,3.08
			c1.55-0.31,2.97-1.19,3.8-2.54c1.6-2.58,0.06-4.57-1.38-6.29c-12.78-15.29-25.56-30.58-38.34-45.88c-1.39-1.66-2.88-3.39-5.1-3.83
			c-2.25-0.44-4.48,0.75-5.7,2.69c-3.02,4.79,3.11,9.39,6.98,7.16c2.25-1.3,3.19-4.17,2.92-6.75c-0.27-2.58-1.51-4.94-2.76-7.21
			c-7.83-14.2-18.41-28.83-33.71-33.35c-4.16-1.23-6.71-5.85-5.54-10.03c0.91-3.25,3.26-5.93,5.92-8
			c5.28-4.11,12.41-6.21,18.82-4.31c7.11,2.11,12.04,8.51,18.51,12.13c13.51,7.56,31.65,2.11,44.86,10.17
			c2.72,1.66,5.11,3.84,7.9,5.39c3.7,2.05,8.03,2.95,11.38,5.54c4.78,3.7,6.58,10.11,6.93,16.14c0.35,6.03-0.47,12.12,0.4,18.1
			c1.92,13.32,15.65,20.1,26.48,29.02c3.86,3.18-0.7,9.09-4.72,6.13c-2.1-1.55-4.16-3.19-6.22-4.59
			c-8.45-5.73-19.9-8.39-24.62-17.44c-3.34-6.4-2.19-14.19-4.04-21.17c-1.75-6.6-6.08-12.17-10.52-17.36
			c-9.21-10.75-20.26-21.21-34.19-23.69c-6.56-1.17-13.72-0.38-18.89,4.33c-1.37,1.25-2.5,2.75-3.28,4.43
			c-3.49,7.53,0.95,14.28,5.98,19.31c11.57,11.57,27.2,17.99,40.66,27.29c5.38,3.71,10.43,7.91,15.08,12.51
			c1.56,1.55,3.98-0.61,2.58-2.31c-6.74-8.2-16.85-13.97-26.41-19.97c-13.56-8.5-28.1-19.08-31.2-34.66
			c-0.08-0.42,0.35-0.75,0.74-0.58l0.56,0.25c1.03,0.45,2.04-0.67,1.48-1.64c-2.4-4.17-5.59-8.17-7.71-12.67
			c-6.78-14.43-21.7-23.51-37-27.98c-15.3-4.47-31.41-5.15-47.16-7.6c-15.75-2.45-31.87-7.06-43.62-17.83
			c-15.95-14.61-20.82-37.44-24.37-58.78c1.4,1.21,2.82-1.51,2.71-3.36c-1.1-17.76-2.73-35.88-9.86-52.19
			c-6.43-14.71-18.12-27.9-33.13-33.05c-8.46-2.9-16.14-12.29-17.01-21.19c-2.12-21.71,0.71-43.89,8.23-64.36
			c0.39-1.06,0.47-2.61-0.14-3.3c-0.63-0.71-1.24-1.44-1.6-2.33c-1.88-4.64-3.5-5.29-9.59-4.6c-5.01,0.56-7.61,2.22-10.95,6.32
			c-4.52,5.54-6.19,12.24-7.34,19.17c-2.19,13.22-5.17,24.67-5.77,38.27c-0.36,8.31-3.9,24.56,5.28,29.54
			c8.36,4.54,20.72-3.72,26.02-10.13c3.81-4.62,5.16-11.85,7.54-17.24c5.27-11.97,6.68-22.58,8.56-35.39
			c1.44-9.81,7.03-33.53-4.94-39.21c-11.23-5.32-20.12,15.75-24.37,23.08c-4.26,7.36-4.06,16.19-4.14,24.46
			c-0.11,12.57,0.01,25.14,0.01,37.71c0,25.71,8.28,51.72,13.29,76.73c1.33,6.66,1.43,13.49,3.57,20.09
			c1.77,5.44,3.82,10.49,4.52,16.22c0.55,4.49,6.84,30.94-5.11,26.43c-5.13-1.94-10.14-14.86-11.51-19.51
			c-2.56-8.67-4.81-17.82-5.61-26.75c-1.75-19.47-5.95-37.52-12.55-55.83c-0.5-1.39-0.96-2.69-1.45-3.88
			c-2.57-6.36-11.94-5.06-12.68,1.77c-0.34,3.18-0.6,6.4-1.3,9.34c-2.49,10.58-3.47,21.24-5.33,31.91
			c-1.59,9.1-3.8,18.36-3.89,27.59c-0.03,3.29-1.69,14.48,1.1,16.38c11.17,7.64,12.74-41.25,12.73-47.24
			c0-10.98-0.07-21.97-0.03-32.95c0.02-6.28-1.63-22.7,3.49-28.06c6.29-6.58,26.8-1.88,33.99-0.4c11.63,2.4,20.25,5.67,30.26,12.13
			c13.11,8.46,20.28,18.99,28.53,31.88c7.65,11.96,10.31,20.85,12.43,35.04c1,6.69,3.76,12.79,5.14,19.29
			c1.3,6.14,0.05,13.14,0.43,19.44c0.44,7.29-0.43,19.18,7.93,21.46c2.78,0.76,6.91,1.97,9.82,1.97c8.35,0,17.56-0.86,25.82-2.09
			c9.68-1.45,10.46-7.35,16.27-13.71"/>
		<path class="st0" d="M370.64,252.41c-1.32-2.13-3.68-3.45-6.12-4.03c-2.44-0.59-4.98-0.53-7.48-0.47
			c-1.51,0.04-3.42,0.39-3.75,1.86c-0.18,0.83,0.27,1.67,0.84,2.29c0.69,0.75,1.57,1.31,2.44,1.85c2.17,1.37,4.36,2.74,6.8,3.53
			c1.69,0.55,3.47,0.79,5.23,1.02c1.27,0.16,2.93,0.09,3.35-1.12c0.27-0.79-0.19-1.63-0.69-2.3c-3.27-4.34-9.31-6.38-14.53-4.89
			c-0.27,0.08-0.56,0.17-0.72,0.4c-0.13,0.18-0.16,0.41-0.15,0.63c0.03,1.41,1.25,2.51,2.49,3.18c1.71,0.92,3.66,1.4,5.6,1.37
			c0.4-0.01,0.81-0.04,1.15-0.23c0.75-0.43,0.88-1.55,0.45-2.3c-0.43-0.76-1.24-1.21-2.06-1.5c-1.17-0.42-2.42-0.61-3.65-0.54
			c-0.42,0.02-0.85,0.08-1.2,0.3c-0.82,0.5-0.94,1.74-0.46,2.58c0.48,0.84,1.37,1.36,2.26,1.73c1.97,0.83,4.14,1.16,6.27,0.97
			c0.69-0.06,1.44-0.21,1.88-0.75c0.82-1.02-0.06-2.54-1.09-3.37c-2.78-2.23-6.58-2.76-10.14-2.53c-0.63,0.04-1.35,0.16-1.66,0.71
			c-0.34,0.61,0.05,1.37,0.49,1.92c1.12,1.42,2.6,2.56,4.26,3.28c1.04,0.45,2.36,0.71,3.24-0.02c0.78-0.65,0.87-1.88,0.43-2.79
			c-0.45-0.91-1.31-1.55-2.21-2.02c-1.76-0.93-3.77-1.36-5.76-1.24c-0.59,0.03-1.22,0.14-1.63,0.56c-0.47,0.48-0.51,1.22-0.45,1.89
			c0.22,2.26,1.45,4.41,3.28,5.75c1.84,1.34,4.25,1.85,6.48,1.38c1.05-0.23,2.09-0.68,2.83-1.47c0.74-0.78,1.16-1.92,0.91-2.97
			c-0.27-1.14-1.25-1.99-2.26-2.58c-2.24-1.31-4.87-1.79-7.46-1.88c-1.8-0.06-3.87,0.19-4.88,1.68c-0.95,1.4-0.49,3.43,0.72,4.62
			c1.2,1.19,2.95,1.67,4.64,1.76c1.17,0.06,2.39-0.05,3.4-0.63c1.01-0.59,1.76-1.74,1.58-2.9c-0.16-1.06-1.02-1.88-1.92-2.46
			c-1.65-1.07-3.62-1.63-5.59-1.61c-0.19,0-0.39,0.01-0.57,0.09c-0.34,0.14-0.54,0.51-0.62,0.87c-0.19,0.89,0.25,1.82,0.91,2.44
			c0.66,0.62,1.52,0.99,2.37,1.31c4.62,1.74,9.77,2.45,14.51,1.11c0.54-0.15,1.14-0.4,1.3-0.93c0.17-0.55-0.21-1.1-0.6-1.52
			c-1.86-2-4.46-3.31-7.17-3.6c-1.47-0.16-3.27,0.17-3.83,1.54c-0.51,1.26,0.45,2.76,1.74,3.19c0.49,0.16,1.1,0.17,1.45-0.21
			c0.58-0.62-0.01-1.62-0.63-2.19c-2.14-1.96-4.95-3.17-7.85-3.38c-0.59-0.04-1.21-0.04-1.74,0.22c-1.16,0.55-1.51,2.14-1.03,3.33
			c0.49,1.18,1.59,2,2.73,2.58c1.15,0.58,2.46,0.99,3.73,0.74c1.27-0.24,2.45-1.29,2.5-2.58c0.07-1.79-1.87-2.99-3.64-3.31
			c-0.8-0.15-1.74-0.15-2.29,0.44c-0.61,0.66-0.42,1.78,0.19,2.44s1.51,0.96,2.39,1.16c1.64,0.39,3.33,0.56,5.01,0.51
			c1.23-0.04,2.72-0.42,3.01-1.61c0.21-0.86-0.39-1.75-1.16-2.18s-1.7-0.48-2.58-0.53c-0.26-0.01-0.53-0.02-0.76,0.1
			c-0.24,0.12-0.4,0.37-0.49,0.62c-0.37,1.06,0.38,2.26,1.38,2.78c1,0.52,2.18,0.53,3.3,0.54c0.3,0,0.63-0.01,0.86-0.2
			c0.59-0.48,0-1.43-0.61-1.88c-2.45-1.8-5.56-2.68-8.59-2.42c-0.54,0.05-1.1,0.13-1.53,0.45c-0.39,0.28-0.64,0.72-0.77,1.17
			c-0.45,1.58,0.69,3.43,2.31,3.73c0.26,0.05,0.54,0.05,0.75-0.1c0.28-0.21,0.3-0.62,0.26-0.97c-0.27-2.3-2.4-4.23-4.71-4.27
			c-0.44-0.01-0.91,0.05-1.26,0.32c-0.57,0.44-0.63,1.32-0.33,1.98c0.3,0.66,0.87,1.15,1.42,1.61c0.73,0.61,1.49,1.24,2.4,1.53
			c0.91,0.29,2.02,0.14,2.63-0.59c0.61-0.74,0.37-2.09-0.55-2.35"/>
		<path class="st0" d="M409.79,257.88c-0.89,0.16-1.84-0.2-2.69,0.09c-0.46,0.16-0.84,0.49-1.19,0.82c-0.85,0.8-1.65,1.67-2.37,2.6
			c1.7,0.27,3.44,0.54,5.13,0.23c1.69-0.31,3.36-1.33,3.97-2.94c0.19-0.5,0.26-1.08,0-1.54c-0.27-0.48-0.85-0.71-1.4-0.75
			c-1.46-0.11-2.76,0.84-3.91,1.74c-1.21,0.95-2.46,1.95-3.09,3.35c0.88,0.5,1.99,0.47,2.94,0.13c0.95-0.34,1.77-0.97,2.53-1.65
			c1.05-0.93,2.04-2.03,2.39-3.38c0.06-0.23,0.08-0.52-0.11-0.67c-0.11-0.08-0.25-0.09-0.39-0.09c-2.41-0.01-4.66,1.99-4.93,4.38
			c-0.04,0.31-0.02,0.66,0.21,0.86c0.15,0.12,0.35,0.15,0.54,0.16c0.85,0.02,1.67-0.42,2.25-1.06c0.57-0.63,0.93-1.44,1.18-2.25
			c0.04-0.14,0.08-0.3,0.02-0.44c-0.1-0.23-0.4-0.26-0.65-0.25c-2.26,0.12-4.38,1.72-5.1,3.87c-0.04,0.12-0.08,0.26-0.03,0.38
			c0.05,0.13,0.19,0.21,0.32,0.25c0.72,0.25,1.53-0.03,2.16-0.48c1-0.72,1.67-1.89,1.8-3.12c0.02-0.2,0.02-0.41-0.08-0.58
			c-0.12-0.2-0.37-0.3-0.6-0.35c-1.24-0.27-2.63,0.47-3.1,1.66"/>
		<path class="st0" d="M411.93,190.33c-0.9-0.15-1.82-0.3-2.73-0.2s-1.83,0.51-2.35,1.27c-0.51,0.74-0.57,1.7-0.61,2.6
			c-0.03,0.58-0.05,1.19,0.21,1.72c0.24,0.49,0.69,0.84,1.15,1.13c1.22,0.78,2.63,1.27,4.07,1.42c0.3,0.03,0.62,0.04,0.88-0.1
			c0.29-0.16,0.45-0.47,0.57-0.78c0.51-1.39,0.32-3.03-0.51-4.26c-0.83-1.23-2.27-2.03-3.75-2.08c-0.34-0.01-0.71,0.02-0.99,0.22
			c-0.24,0.16-0.39,0.43-0.5,0.69c-0.86,1.95,0.1,4.54,2.08,5.36c1.97,0.81,4.56-0.46,5.01-2.54c0.15-0.71,0.06-1.52-0.44-2.05
			c-0.5-0.53-1.28-0.66-2.01-0.7c-0.88-0.05-1.83,0.02-2.54,0.54c-0.81,0.59-1.17,1.73-0.84,2.67c0.33,0.94,1.33,1.61,2.32,1.56
			c0.36-0.02,0.73-0.13,1.01-0.35c0.34-0.26,0.55-0.67,0.68-1.08c0.5-1.5,0.14-3.29-0.99-4.4s-2.99-1.43-4.38-0.67
			s-2.11,2.6-1.52,4.07c0.42,1.05,1.4,1.8,2.47,2.18c1.07,0.37,2.22,0.41,3.35,0.37c0.31-0.01,0.64-0.03,0.92-0.16
			c0.76-0.35,0.97-1.31,1.09-2.14c0.12-0.87,0.24-1.81-0.18-2.59c-0.47-0.89-1.51-1.32-2.5-1.5c-1.17-0.22-2.39-0.19-3.55,0.09
			c-0.42,0.1-0.86,0.25-1.15,0.57c-0.26,0.29-0.36,0.68-0.41,1.06c-0.22,1.59,0.34,3.24,1.4,4.44s2.6,1.94,4.18,2.14
			c2.32,0.29,4.97-0.82,5.71-3.04c0.26-0.76,0.24-1.68-0.27-2.3c-0.33-0.39-0.81-0.62-1.3-0.8c-0.91-0.34-1.88-0.55-2.85-0.62
			c-0.95-0.07-2.02,0.03-2.68,0.71c-0.47,0.48-0.65,1.16-0.79,1.82c-0.21,1.04-0.33,2.19,0.21,3.12c0.72,1.26,2.56,1.63,3.82,0.89
			c1.25-0.74,1.84-2.36,1.55-3.78s-1.36-2.62-2.66-3.27c-1.3-0.65-2.8-0.81-4.25-0.67c-0.24,0.02-0.49,0.06-0.68,0.2
			c-0.29,0.22-0.36,0.62-0.4,0.98c-0.09,0.8-0.12,1.61-0.1,2.41c0.01,0.35,0.03,0.7,0.19,1.01c0.27,0.55,0.91,0.84,1.52,0.87
			c0.61,0.03,1.97,0.6,2.55,0.41"/>
	</g>
</g>
</svg>
