<?xml version="1.0" encoding="utf-8"?>
<!-- Generator: Adobe Illustrator 22.0.0, SVG Export Plug-In . SVG Version: 6.00 Build 0)  -->
<svg version="1.1" id="Layer_1" xmlns="http://www.w3.org/2000/svg" xmlns:xlink="http://www.w3.org/1999/xlink" x="0px" y="0px"
	 viewBox="0 0 1080 1080" style="enable-background:new 0 0 1080 1080;" xml:space="preserve">
<style type="text/css">
	.st0{fill:#ADB5BD;}
</style>
<g>
	<path class="st0" d="M1058,556.9v249.3c0,7.7-9.2,12.4-16.2,8.3L694,589.1c-7-4.7-16.8-0.1-16.8,7.9v196.6
		c0,15.4-18.3,24.8-32.4,16.6L285.1,605.8c-11.1-6.4-25.4,1.1-25.4,13.2v155.1c0,21.7-19,39.3-42.5,39.3H22V563.8
		c0-7.3,5.8-13.2,12.9-13.2h0h98.4c22.9,0,41.5-19,41.5-42.3V286.7c0-15.4,18.3-24.8,32.4-16.6l359.2,214.8
		c7.1,4.1,16.2-0.6,16.2-8.3V271.2c0-7.7,9.2-6.5,16.2-8.3L1053,542.8C1056.1,550.4,1058,553.5,1058,556.9z"/>
</g>
</svg>
